<svg version="1.2" xmlns="http://www.w3.org/2000/svg" viewBox="0 0 855 226" width="855" height="226"><style>.a{fill:#000}</style><path class="a" d="m241.2 202.4c-2.5 4.7-8.6 8.3-17 8.3-11.7 0-18.7-6.2-18.7-16.1 0-9.9 7-16.1 18.6-16.1 7.4 0 12.4 2.8 15.4 6.3l-3.1 2.3c-2.8-3.5-6.8-5.2-12.3-5.2-9.1 0-14.8 4.3-14.8 12.7 0 8.4 5.8 12.7 15.1 12.7 6 0 10.9-1.8 13.2-6v-3.9h-13.8v-3.4h17.4z"/><path fill-rule="evenodd" class="a" d="m301.3 201.6h-20.5l-4.4 8.2h-4.1l16.7-30.4h4.1l16.7 30.4h-4.1zm-1.8-3.3l-8.4-15.6-8.5 15.6z"/><path fill-rule="evenodd" class="a" d="m372.4 209.8l-10.1-11.6h-14.4v11.6h-3.7v-30.4h20.4c6.8 0 11.6 3.4 11.6 9.4 0 5.3-3.8 8.6-9.4 9.2l10.4 11.8zm-8.1-15c4.9 0 8.2-1.9 8.2-6 0-4.1-3.3-6-8.2-6h-16.5v12z"/><path fill-rule="evenodd" class="a" d="m445.9 194.6c0 9.3-7.1 15.2-18.2 15.2h-14.7v-30.4h14.7c11.1 0 18.2 5.9 18.2 15.2zm-3.7 0c0-7.8-6.1-11.8-14.7-11.8h-10.9v23.6h10.9c8.6 0 14.7-4 14.7-11.8z"/><path class="a" d="m511.8 206.4v3.4h-29.4v-30.4h28.9v3.4h-25.3v9.8h21.5v3.4h-21.5v10.4z"/><path class="a" d="m580.2 179.4v30.4h-3.2l-25.5-25.7v25.7h-3.6v-30.4h4l24.7 25.1v-25.1z"/><path class="a" d="m649.3 201c0 5.6-5.7 9.7-15.6 9.7-6.6 0-13-2.1-17.8-6.2l2.6-2.8c4.4 3.9 9.3 5.6 15.4 5.6 7.3 0 11.6-2.3 11.6-6.1 0-3.6-4.4-4.6-12.6-5.3-8.1-0.6-15.9-2.4-15.9-8.4 0-5.7 7.2-9 15.3-9 6.6 0 12 2.3 15.5 5.4l-2.8 2.5c-3-3-7.4-4.5-12.5-4.5-5.4-0.1-11.8 1.5-11.8 5.5 0 3.7 5.7 4.5 12.9 5.1 9.2 0.7 15.7 2.5 15.7 8.5z"/><path fill-rule="evenodd" class="a" d="m94.5 101.8h-67.2l-14.6 26.7h-13.2l54.8-99.6h13.4l54.8 99.6h-13.5zm-5.9-10.8l-27.7-51.1-27.8 51.1z"/><path class="a" d="m315.5 28.9v52.6c0 29.1-18.2 50-52.5 50-34.3 0-52.7-20.9-52.7-50v-52.6h11.9v51.9c0 24.5 14.7 39.6 40.8 39.6 25.9 0 40.5-15.1 40.5-39.6v-51.9z"/><path fill-rule="evenodd" class="a" d="m515.1 128.5l-33.1-38.1h-47.4v38.1h-12.1v-99.6h66.9c22.3 0 38.2 11.1 38.2 30.7 0 17.4-12.5 28.2-30.9 30.3l34 38.6zm-26.4-49.2c16 0 26.7-6.2 26.7-19.7 0-13.5-10.7-19.6-26.7-19.6h-54.1v39.3z"/><path class="a" d="m624.9 128.5v-99.6h12v99.6z"/><path fill-rule="evenodd" class="a" d="m827.2 101.8h-67.2l-14.5 26.7h-13.2l54.8-99.6h13.4l54.8 99.6h-13.5zm-5.9-10.8l-27.7-51.1-27.8 51.1z"/></svg>
