<?xml version="1.0" encoding="UTF-8"?><svg id="Layer_1" xmlns="http://www.w3.org/2000/svg" viewBox="0 0 1168.9 1010.27"><defs><style>.cls-1{fill:#000;stroke-width:0px;}</style></defs><path class="cls-1" d="M583.66,242.78c33.16-86.77,95.59-131.4,189.16-133.75.95,43.52-9.75,82.52-34.39,117.36-24.62,34.82-57.69,58.32-98.6,71.74,86.95,33.33,131.16,95.86,133.71,189.04-43.73,1.4-82.77-9.63-117.68-34.43-34.79-24.72-58.21-57.91-71.43-98.5-33.16,86.67-95.41,131.37-188.85,133.85-1.48-43.79,9.66-82.67,34.22-117.5,24.56-34.83,57.67-58.31,98.4-71.67-86.83-33.39-131.41-95.73-133.47-189.1,43.84-1.11,82.77,9.97,117.55,34.71,34.73,24.71,58.18,57.79,71.37,98.25ZM756.13,470.8c-2.06-91.64-82.85-162.71-163.55-163.47,2.67,84.68,74.7,161.32,163.55,163.47ZM592.72,290.15c97.21-4.68,163.59-87.97,163.1-163.66-89.05,1.73-161.41,80.3-163.1,163.66ZM411.77,471.39c47.14-3.26,86.82-21.43,118.54-55.97,28.07-30.56,43.06-66.79,45.57-108.4-85.23,2.88-161.28,74.01-164.1,164.37ZM411.29,126.39c3.48,48.39,22.38,88.98,58.59,120.9,30.01,26.46,65.31,40.56,105.39,43.05-1.27-83.4-74.27-162.1-163.98-163.95Z"/><path class="cls-1" d="M1094.91,868.12c-3.19,7.78-8.66,11.28-16.37,11.72-8.57.49-16.6-1.28-20.1-9.74-2.66-6.42-4.01-13.72-4.33-20.7-.65-14.12-.19-28.29-.19-42.44v-5.81h-114.47c0,4.98-.02,9.78,0,14.57.08,12.48.14,24.96.28,37.44.09,8.27,2.33,15.69,9.66,21.55h-46.5c8.07-6.64,9.49-15.22,9.48-24.47-.07-52.43.52-104.88-.19-157.3-.66-48.8,34.5-71.02,68.4-75.56,23.16-3.11,45.59-.57,66.07,11.49,22.45,13.22,34.06,33.1,34.11,59.27.11,54.77.03,109.53.03,164.3,0,1.33-.01,2.66,0,4,.11,9.89,4,13.26,14.1,11.68ZM939.44,786.77h114.47v-6.29c0-31.11.03-62.23-.03-93.34-.01-5.14-.11-10.34-.79-15.42-2.92-22.01-13.7-38.77-35.11-46.16-22-7.6-43.18-5.09-61,11.24-13.55,12.42-17.53,28.9-17.54,46.65-.01,32.61,0,65.22,0,97.83v5.49Z"/><path class="cls-1" d="M668.06,867.94c-3.28,8.8-9.69,11.86-18.1,11.99-9.02.15-16.46-3.06-19.39-11.83-2.22-6.65-3.22-13.92-3.5-20.96-.53-13.3-.15-26.63-.15-39.95,0-1.96,0-3.92,0-6.16h-113.85c-.09,2-.26,3.93-.26,5.86-.02,14.32,0,28.64-.02,42.95,0,9.2,1.21,17.95,9.66,24.8h-46.12c9.73-8.18,9.38-19.2,9.37-30.16-.02-50.61.72-101.24-.24-151.83-.8-42.35,27.42-67.59,62.23-74.18,27.22-5.15,53.49-2.43,77.02,13.56,19.43,13.21,29.15,32.07,29.23,55.47.2,55.11.06,110.21.06,165.32,0,1.5-.03,3,.01,4.49.29,9.21,4.46,12.54,14.03,10.63ZM626.5,786.96c.15-1.45.39-2.74.39-4.03.02-34.62.68-69.25-.14-103.84-1.22-51.84-48.3-66.59-81.39-52.29-22.96,9.92-32.21,29.34-32.47,53.3-.36,33.78-.1,67.57-.08,101.35,0,1.79.15,3.57.23,5.52h113.47Z"/><path class="cls-1" d="M120.73,874.88h-46.74c10.41-9,9.71-20.6,9.71-32.03,0-50.29.72-100.59-.23-150.86-.77-40.29,25.76-64.42,55.55-71.94,27.67-6.98,54.67-5.44,79.6,9.41,21.8,12.98,33.08,32.52,33.05,58.27-.07,54.62-.02,109.23-.01,163.85,0,1.99,0,4,.23,5.98,1.05,9.41,4.16,11.94,14.7,10.71-2.42,3.13-3.89,5.93-6.13,7.78-9.61,7.91-26.71,4.36-31.55-7.07-2.46-5.81-3.59-12.51-3.83-18.86-.55-14.47-.17-28.97-.17-43.45,0-1.78,0-3.57,0-5.63h-114.31c0,2.26,0,4.37,0,6.48,0,14.49-.08,28.97.03,43.46.07,8.85,1.67,17.22,10.1,23.91ZM110.59,786.85h114.06c.09-1.59.23-2.88.23-4.18.01-33.61.04-67.22-.04-100.83,0-4.14-.34-8.32-1.01-12.4-3.41-20.74-13.98-36.44-34.15-43.63-21.4-7.63-42.1-5.62-60.01,9.55-13.73,11.63-18.91,27.46-19.02,44.93-.23,33.78-.07,67.55-.07,101.33v5.23Z"/><path class="cls-1" d="M874.5,874.22c-7.42,2.44-11.17-.69-14.93-5.73-50.88-68.15-101.94-136.16-152.97-204.2-1.25-1.67-2.55-3.31-4.97-4.64v5.78c0,64.44.03,128.88-.05,193.32,0,5.97.25,11.62,6.38,16.01h-25.78c6.24-5.29,6.08-11.71,6.08-18.26-.07-69.93-.09-139.87.05-209.8,0-4.78-1.06-8.63-4.2-12.24-3.38-3.88-6.32-8.14-10.28-13.33,4.29,0,7.63-.03,10.97,0,7.65.09,16.41-2.06,22.62.99,6.01,2.95,9.41,11.25,13.9,17.24,45.12,60.2,90.23,120.41,135.35,180.61,1.07,1.43,2.21,2.8,3.99,5.04.2-2.4.41-3.78.41-5.16.02-61.61.09-123.22-.15-184.82-.02-4.46-2.43-8.91-3.75-13.46h23.97c-7.72,5.14-6.62,12.52-6.62,19.6,0,75.43,0,150.86,0,226.28v6.77Z"/><path class="cls-1" d="M262.39,621.31h50.08c-.54.66-.82,1.16-1.23,1.47-6.58,4.93-8.25,9.64-5.45,17.31,1.41,3.88,3.49,7.53,5.47,11.18,22.24,41.08,44.51,82.15,66.78,123.21.78,1.45,1.64,2.85,2.96,5.13,4.11-8.61,7.93-16.56,11.7-24.53,19.39-41.02,38.7-82.07,58.25-123.01,2.12-4.43,2.02-7.49-3.05-10.59h27.5c-17.64,18.53-24.32,43.53-35.51,65.96-17.06,34.19-32.89,68.99-49.09,103.61-1.35,2.89-2.11,6.32-2.16,9.51-.22,15.81-.1,31.63-.1,47.45,0,13.3,1.12,16.76,8.77,26.75h-45.31c10.16-8.69,9.65-20.1,9.65-31.36,0-14.32.09-28.64-.09-42.95-.03-2.53-.68-5.31-1.88-7.52-27.6-50.85-55.19-101.7-83.13-152.36-3.85-6.99-9.49-12.98-14.17-19.26Z"/><path class="cls-1" d="M583.81,554.52c-4.04-4.51-8.17-8.78-11.92-13.37-20.62-25.24-33.84-53.84-38.45-86.21-.25-1.75.52-4.38,1.78-5.5,20.33-17.95,36.37-39.14,48.66-64.08,1.15,1.99,2.14,3.55,2.99,5.18,11.64,22.36,26.87,41.9,45.65,58.73,1.41,1.26,2.54,4.01,2.25,5.82-6.13,37.67-22.65,70.19-48.96,97.79-.44.46-1,.82-2,1.63ZM584.2,419.83c-10.44,11.75-21.29,23.87-31.97,36.14-1.08,1.24-1.87,3.62-1.47,5.12,2.27,8.49,4.5,17.04,7.58,25.26,5.97,15.95,14.51,30.49,25.73,44.04.83-1.04,1.46-1.81,2.06-2.6,14.34-18.72,24.43-39.46,30.27-62.34,1.32-5.17.51-8.52-3.39-12.62-10.27-10.81-19.69-22.43-28.82-33Z"/><path class="cls-1" d="M583.93,211.85c-9.09-18.48-20.09-34.87-33.75-49.4-4.55-4.85-9.37-9.46-14.32-13.91-2.22-2-3.01-3.83-2.52-6.86,5.33-32.97,18.85-62.16,40.27-87.73,2.67-3.19,5.53-6.21,8.33-9.29.56-.61,1.21-1.13,2.28-2.12,3.68,4.08,7.44,8.02,10.94,12.17,21.44,25.41,34.38,54.71,39.57,87.47.26,1.62-.39,4.09-1.54,5.12-19.92,17.66-35.74,38.44-47.83,62.12-.29.57-.66,1.11-1.43,2.42ZM584.07,66.78c-16.25,20.07-26.67,42.06-32.74,66.25-1.13,4.53-.67,7.79,3.23,10.71,2.63,1.97,4.84,4.57,6.97,7.11,7.65,9.12,15.18,18.33,22.8,27.55.07-.03.43-.12.63-.35,10.28-12.17,20.63-24.28,30.71-36.61,1.22-1.49,1.88-4.39,1.35-6.22-2.84-9.87-5.68-19.79-9.4-29.34-5.51-14.14-13.49-26.92-23.55-39.1Z"/><path class="cls-1" d="M839.93,298.38c-10.4,10.74-21.68,19.4-33.9,26.87-19.48,11.92-40.52,19.77-63,23.81-3.79.68-6.7.26-9.59-3.08-16.07-18.57-35.34-33.14-57.07-44.52-1.59-.83-3.14-1.72-5.37-2.95,2.6-1.43,4.7-2.62,6.84-3.76,21.5-11.45,40.4-26.17,56.57-44.42,1.36-1.53,4.3-2.83,6.23-2.52,38.29,6.03,71.07,23.03,99.28,50.57ZM815.16,299.05c-.18-.75-.16-.97-.26-1.06-20.31-16.66-43.33-27.63-69.08-32.74-1.47-.29-3.64.89-4.93,2.01-8.14,7.11-16.02,14.52-24.21,21.57-3.97,3.42-8.41,6.3-11.9,8.87,12.52,11.21,24.84,22.28,37.27,33.24.92.81,2.73,1.27,3.93,1.01,25.63-5.5,48.65-16.5,69.18-32.91Z"/><path class="cls-1" d="M327.57,299.39c11.61-12.01,23.72-21.23,36.95-29.01,19.26-11.33,39.91-18.91,62-22.36,2.08-.32,5.24.33,6.52,1.76,17.61,19.75,38.21,35.5,61.81,47.4.55.28,1.03.69,2,1.36-5.69,3.21-11.05,6.06-16.24,9.21-17.64,10.68-33.37,23.7-46.82,39.34-2.71,3.15-5.59,2.41-8.56,1.9-24.73-4.27-47.78-13.02-68.52-27.19-9.96-6.81-19.17-14.69-29.14-22.41ZM462.66,298.4c-11.09-9.68-22.9-19.6-34.19-30.1-2.99-2.79-5.4-3.56-9.07-2.66-16.89,4.11-32.94,10.33-47.77,19.44-6.6,4.06-12.86,8.66-19.67,13.28,21.34,17.2,44.49,28.19,70.29,33.59,1.21.25,3.02-.1,3.91-.89,12.4-10.97,24.69-22.06,36.49-32.66Z"/><path class="cls-1" d="M505.69,965.8c-5.14,1.73-8.01,1.08-10.58-2.18-2.87-3.65-6.79-6.53-9.31-10.37-4.77-7.28-11.44-7.35-19.34-6.09v19.21c-3.55.48-6.65,1.63-6.63-3.41.05-16.3.02-32.6.05-48.9,0-.8.28-1.6.49-2.74,9.84,0,19.65-.73,29.28.22,8.22.81,13.37,8.19,13.58,16.68.22,9.03-4.43,14.98-14.76,18.23,5.67,6.37,11.16,12.54,17.22,19.35ZM466.62,940.07c2.23,0,4.03,0,5.84,0,4.66-.02,9.33.19,13.96-.13,6.11-.41,9.98-4.76,10.15-10.84.16-6.04-3.27-10.91-8.93-11.29-6.89-.47-13.84-.11-21.02-.11v22.37Z"/><path class="cls-1" d="M782.78,924.53c0,4.89,0,9.78,0,14.67,0,7.49-.21,14.99.08,22.47.18,4.67-1.52,6.1-6.23,4.63v-54.78c3.46-1.26,5.95-.61,8.29,2.71,8.24,11.69,16.78,23.18,25.21,34.73,1.05,1.43,2.17,2.81,4.2,5.43,0-7.95,0-14.49,0-21.04,0-5.66-.01-11.32,0-16.98q.02-5.76,6.65-4.87c0,1.68,0,3.45,0,5.23,0,14.65.07,29.3-.08,43.94-.02,2.02-.53,5.15-1.83,5.83-2.99,1.55-5.06-.9-6.81-3.33-8.36-11.61-16.78-23.17-25.2-34.74-1.03-1.41-2.15-2.75-3.23-4.12l-1.04.22Z"/><path class="cls-1" d="M565.65,966.66v-55.66c10.01.59,20.12-1.73,29.94,1.78,11.85,4.24,18.83,16.11,17.32,28.9-1.66,14.03-10.74,23.68-24.3,24.86-7.4.65-14.91.12-22.95.12ZM572.41,917.94v42.07c5.6,0,10.77.38,15.86-.08,10.03-.91,17.51-9.13,18.1-19.31.65-11.19-5.86-20.89-16.1-22.51-5.77-.91-11.81-.16-17.86-.16Z"/><path class="cls-1" d="M285.95,923.63c-5.64-5.55-12.26-7.88-20.07-6.91-11.85,1.47-19.07,10.85-18.43,24.24.53,11.13,9.21,19.74,20.24,20.08.33.01.67.03,1,0,14.82-1.15,17.75-3.81,15.41-18.15h-17.53c-1.6-6.14-1.33-6.55,4.18-6.58,5.32-.03,10.65.09,15.97-.04,2.98-.07,4.18,1.01,4.06,4.07-.19,4.65-.25,9.33.02,13.97.2,3.38-1.05,5.56-3.68,7.56-11.63,8.82-29.42,7.49-39.16-3.08-9.79-10.63-9.68-29.56.22-40.25,9.39-10.13,27.02-11.49,38.33-2.94,4.42,3.34,4.42,4.15-.57,8.03Z"/><path class="cls-1" d="M681.03,941.72v18.56c6.22,0,12.29,0,18.36,0,3.99,0,8.01-.24,11.96.16,1.24.13,2.3,2.02,3.44,3.11-1.1,1.08-2.18,3.09-3.29,3.11-12.11.23-24.23.14-36.75.14v-55.4h38.1c1.78,4.92,1.35,5.63-3.89,5.66-7.82.04-15.64.21-23.45-.07-3.85-.14-4.94,1.24-4.71,4.87.27,4.26.06,8.55.06,13.44,9.34,0,18.11-.07,26.87.08,1.42.02,3.73.73,4.05,1.66.88,2.61.4,4.81-3.43,4.73-8.94-.18-17.88-.06-27.31-.06Z"/><path class="cls-1" d="M400.64,966.13c-4.33,1.57-7.09.7-8.04-3.48-1.75-7.69-6.45-10.09-14.08-9.06-5.23.7-10.64.33-15.95.06-3.18-.16-4.96.92-5.89,3.92-.53,1.73-1.67,3.28-2.17,5.02-1.18,4.08-3.7,5.11-8.05,3.6.27-1.19.35-2.47.84-3.56,7.22-16.23,14.43-32.47,21.86-48.6.64-1.38,2.77-2.68,4.33-2.84,1.32-.13,3.56,1.1,4.12,2.31,7.65,16.59,15.08,33.27,22.52,49.95.32.71.31,1.57.51,2.68ZM361.49,946.82h24.03c-3.97-8.81-7.73-17.16-12.01-26.69-4.3,9.54-8.06,17.89-12.02,26.69Z"/><path class="cls-1" d="M924.86,918.9c-1.83,3.91-3.56,4.76-7.21,1.81-6.95-5.62-15.09-6.01-22.93-2.21-2.28,1.11-4.56,4.72-4.6,7.22-.03,2.15,2.69,5.47,4.94,6.32,6.17,2.33,12.78,3.47,19.13,5.39,8.69,2.62,12.47,6.74,12.79,13.34.29,6.09-2.35,10.57-7.54,13.6-9.92,5.79-26.22,3.84-34.53-4.09-3.93-3.75-3.86-4.48,1.07-8.01,5.59,6.56,12.85,9.57,21.53,8.74,2.29-.22,4.64-.62,6.77-1.44,3.41-1.32,5.9-3.48,6.01-7.69.12-4.38-2.55-6.43-6.03-7.48-5.87-1.77-11.91-2.93-17.79-4.68-5.3-1.58-10.45-3.59-12.51-9.56-1.96-5.68-.42-11.54,4.11-15.35,9.53-8,28.73-5.97,36.79,4.09Z"/></svg>