<?xml version="1.0" encoding="UTF-8"?><svg id="Layer_1" xmlns="http://www.w3.org/2000/svg" viewBox="0 0 585.05 325.38"><defs><style>.cls-1{fill:#1d1d1b;}.cls-1,.cls-2{stroke-width:0px;}.cls-2{fill:#000;}</style></defs><path class="cls-1" d="M223.58,166.72v13.42h-86.16v-13.42l69.49-74.69-1.08-1.95c-12.99,1.52-28.79,2.82-43.73,2.82h-22.73v-13.42h83.35v13.42l-69.27,74.68,1.08,1.95c12.34-1.3,27.06-2.81,40.7-2.81h28.36Z"/><path class="cls-1" d="M340.91,154.16h-1.52c-5.41,17.32-19.48,28.36-37.45,28.36-23.6,0-33.99-15.15-33.99-37.24v-65.81h14.94v62.78c0,15.15,6.06,26.63,24.24,26.63,20.13,0,33.55-12.56,33.55-31.39v-58.02h14.94v100.66h-14.72v-25.98Z"/><path class="cls-1" d="M405.84,180.14v-100.66h14.5v27.06h1.3c4.98-19.48,15.81-28.14,32.04-28.14h4.11v16.24h-4.76c-22.3,0-32.25,9.53-32.25,33.77v51.74h-14.94Z"/><path class="cls-1" d="M40.88,182.3c-19.7,0-31.82-8.44-31.82-27.71,0-16.67,11.47-29.44,35.28-29.44h34.64v-9.31c0-16.67-6.49-25.98-24.68-25.98-15.15,0-23.6,7.58-27.06,22.3l-14.28-3.68c4.55-19.7,18.83-31.17,41.56-31.17,27.27,0,39.18,13.42,39.18,38.32v64.51h-14.72v-43.95h-32.91c-14.5,0-22.51,5.85-22.51,17.1,0,8.66,5.59,19.04,21.43,16.67,12.8-1.91,30.17-13.69,30.17-13.69l-34.28,26.03Z"/><path class="cls-1" d="M523.17,182.3c-19.7,0-31.82-8.44-31.82-27.71,0-16.67,11.47-29.44,35.28-29.44h34.64v-9.31c0-16.67-6.49-25.98-24.68-25.98-15.15,0-23.6,7.58-27.06,22.3l-14.28-3.68c4.55-19.7,18.83-31.17,41.56-31.17,27.27,0,39.18,13.42,39.18,38.32v64.51h-14.72v-43.95h-32.9c-14.5,0-22.51,5.85-22.51,17.1,0,8.66,5.59,19.04,21.43,16.67,12.8-1.91,30.17-13.69,30.17-13.69l-34.28,26.03Z"/><path class="cls-2" d="M145.16,285.74v-18.15h7.72c1.61,0,2.78.09,3.52.28,1.26.31,2.19.96,2.81,1.95.53.83.8,1.79.8,2.86,0,2.9-1.6,4.58-4.79,5.05.91.52,1.68,1.17,2.33,1.94.39.46.96,1.3,1.72,2.53l2.22,3.54h-4.36l-2.66-3.95c-.8-1.18-1.23-1.83-1.31-1.93-.62-.82-1.2-1.32-1.73-1.5-.39-.14-1-.21-1.84-.21h-.74v7.58h-3.67ZM148.84,275.25h2.7c1.34,0,2.12-.01,2.32-.04.98-.11,1.65-.42,2-.94.25-.36.37-.82.37-1.35,0-1.26-.62-1.99-1.86-2.19-.27-.04-1.16-.05-2.67-.05h-2.85v4.58Z"/><path class="cls-2" d="M178.24,285.74v-18.15h13.46v3.08h-9.79v3.99h9.11v3.08h-9.11v4.93h10.14v3.07h-13.82Z"/><path class="cls-2" d="M209,279.83l3.58-.34c.41,2.31,1.73,3.47,3.95,3.47.91,0,1.7-.18,2.35-.54.8-.45,1.21-1.1,1.21-1.95s-.56-1.49-1.69-1.89c-.41-.15-1.39-.41-2.94-.8-1.96-.49-3.34-1.08-4.12-1.79-1.12-1-1.68-2.22-1.68-3.66,0-.99.29-1.89.85-2.68.54-.77,1.28-1.35,2.2-1.75.99-.42,2.18-.63,3.58-.63,1.99,0,3.59.41,4.79,1.22,1.38.95,2.1,2.37,2.17,4.28l-3.69.15c-.16-.95-.51-1.63-1.06-2.04-.51-.37-1.27-.56-2.26-.56-1.06,0-1.89.21-2.49.64-.38.28-.58.66-.58,1.12,0,.43.18.79.55,1.09.45.38,1.58.81,3.4,1.27,2.02.52,3.33.94,3.92,1.24,1.81.96,2.72,2.55,2.72,4.75,0,1.09-.3,2.09-.89,2.98-.6.89-1.4,1.55-2.42,1.97-1.06.44-2.37.66-3.95.66-4.51,0-7-2.07-7.49-6.22Z"/><path class="cls-2" d="M241.5,285.74v-18.15h3.67v18.15h-3.67Z"/><path class="cls-2" d="M263.41,267.58h6.7c1.51,0,2.67.11,3.45.34,2.15.62,3.64,2.16,4.47,4.61.39,1.17.59,2.6.59,4.29,0,3.09-.83,5.45-2.5,7.07-.63.62-1.49,1.11-2.57,1.44-.8.26-1.88.39-3.25.39h-6.9v-18.15ZM267.1,270.67v12h2.72c1.02,0,1.76-.06,2.22-.18,1.21-.3,2.02-1.13,2.43-2.5.25-.81.37-1.92.37-3.32,0-2.43-.47-4.09-1.41-4.97-.44-.42-1-.71-1.69-.87-.52-.11-1.52-.16-3-.16h-1.63Z"/><path class="cls-2" d="M296.51,285.74v-18.15h13.46v3.08h-9.79v3.99h9.11v3.08h-9.11v4.93h10.14v3.07h-13.82Z"/><path class="cls-2" d="M328.24,285.74v-18.15h3.58l7.41,12.12v-12.12h3.41v18.15h-3.69l-7.29-11.84v11.84h-3.41Z"/><path class="cls-2" d="M372.9,279.06l3.56,1.13c-1.07,3.91-3.59,5.86-7.56,5.86-2.6,0-4.65-.9-6.15-2.71-1.41-1.69-2.12-3.86-2.12-6.52,0-2.81.7-5.07,2.11-6.79,1.51-1.84,3.65-2.77,6.4-2.77,2.21,0,4.01.66,5.41,1.97.83.78,1.45,1.89,1.86,3.34l-3.63.87c-.21-.95-.66-1.7-1.34-2.24s-1.51-.82-2.48-.82c-3.01,0-4.52,2.05-4.52,6.15s1.48,6.39,4.45,6.39c2.09,0,3.43-1.29,4.01-3.87Z"/><path class="cls-2" d="M394.37,285.74v-18.15h13.46v3.08h-9.79v3.99h9.11v3.08h-9.11v4.93h10.14v3.07h-13.82Z"/><path class="cls-2" d="M425.13,279.83l3.58-.34c.41,2.31,1.73,3.47,3.95,3.47.91,0,1.7-.18,2.34-.54.8-.45,1.21-1.1,1.21-1.95s-.56-1.49-1.69-1.89c-.41-.15-1.39-.41-2.94-.8-1.96-.49-3.33-1.08-4.12-1.79-1.12-1-1.68-2.22-1.68-3.66,0-.99.28-1.89.85-2.68.54-.77,1.28-1.35,2.2-1.75.99-.42,2.18-.63,3.58-.63,1.99,0,3.59.41,4.79,1.22,1.38.95,2.1,2.37,2.17,4.28l-3.69.15c-.16-.95-.51-1.63-1.06-2.04-.51-.37-1.26-.56-2.26-.56-1.06,0-1.89.21-2.49.64-.38.28-.58.66-.58,1.12,0,.43.18.79.55,1.09.45.38,1.58.81,3.39,1.27,2.03.52,3.33.94,3.92,1.24,1.81.96,2.72,2.55,2.72,4.75,0,1.09-.3,2.09-.89,2.98-.6.89-1.4,1.55-2.42,1.97-1.06.44-2.37.66-3.95.66-4.5,0-7-2.07-7.49-6.22Z"/></svg>
