<?xml version="1.0" encoding="UTF-8" standalone="no"?>
<!-- Created with Inkscape (http://www.inkscape.org/) -->

<svg
   version="1.1"
   id="svg2"
   width="1466.6667"
   height="560"
   viewBox="0 0 1466.6667 560"
   sodipodi:docname="02-BTR Aurelia Dubai-Generic-Horizontal-Black.ai"
   xmlns:inkscape="http://www.inkscape.org/namespaces/inkscape"
   xmlns:sodipodi="http://sodipodi.sourceforge.net/DTD/sodipodi-0.dtd"
   xmlns="http://www.w3.org/2000/svg"
   xmlns:svg="http://www.w3.org/2000/svg">
  <defs
     id="defs6">
    <clipPath
       clipPathUnits="userSpaceOnUse"
       id="clipPath16">
      <path
         d="M 0,420 H 1100 V 0 H 0 Z"
         id="path14" />
    </clipPath>
  </defs>
  <sodipodi:namedview
     id="namedview4"
     pagecolor="#ffffff"
     bordercolor="#000000"
     borderopacity="0.25"
     inkscape:showpageshadow="2"
     inkscape:pageopacity="0.0"
     inkscape:pagecheckerboard="0"
     inkscape:deskcolor="#d1d1d1" />
  <g
     id="g8"
     inkscape:groupmode="layer"
     inkscape:label="02-BTR Aurelia Dubai-Generic-Horizontal-Black"
     transform="matrix(1.3333333,0,0,-1.3333333,0,560)">
    <g
       id="g10">
      <g
         id="g12"
         clip-path="url(#clipPath16)">
        <g
           id="g18"
           transform="translate(255.2228,178.0775)">
          <path
             d="m 0,0 c -5.85,-1.236 -11.619,-2.618 -16.814,-4.096 -0.534,-5.673 -1.099,-20.62 -1.196,-31.262 -0.17,-20.086 0.541,-37.829 3.781,-57.641 3.773,20.806 2.359,38.048 6.602,59.532 C -5.543,-22.898 -1.487,-5.745 0,0 m -69.131,6.262 c 18.268,7.32 32.271,9.025 54.433,13.719 21.444,4.565 33.499,5.883 55.751,7.345 L 40.585,8.16 c 0,0 -7.652,-2.262 -17.033,-3.765 C 20.837,-2.876 12.935,-26.308 9.42,-46.669 5.68,-68.177 5.648,-80.685 5.648,-102.509 c -0.017,-11.077 0.936,-28.36 0.936,-28.36 l -34.104,-11.692 c 0,0 -8.71,44.593 -8.92,67.75 -0.202,20.765 -1.673,55.831 -1.439,63.096 -5.639,-2.279 -8.79,-1.851 -14.212,-3.766 -6.536,-2.311 -12.047,-5.575 -16.103,-7.539 1.358,-58.441 13.267,-120.17 13.267,-120.17 0,0 -19.706,-1.908 -27.56,-1.633 -11.021,0.388 -26.397,3.959 -26.397,3.959 0,0 -1.778,38.411 -0.929,61.996 1.357,39.066 4.258,68.048 5.721,96.531 -4.792,2.811 -16.387,8.354 -16.387,8.354 -5.809,-13.316 -9.041,-19.707 -12.984,-32.933 -6.27,-21.121 -5.874,-33.976 -8.492,-55.857 -3.45,-29.014 -5.64,-74.689 -5.64,-74.689 l -27.188,11.635 c 0,0 2.222,33.887 7.312,63.054 5.81,33.209 10.843,59.468 21.759,96.466 -8.08,4.533 -12.919,6.755 -21.759,9.494 -15.158,4.718 -29.313,4.767 -34.097,5.656 l 0.954,19.876 c 24.53,-4.662 38.306,-7.789 62.44,-14.22 14.011,-3.733 24.894,-6.004 35.689,-10.31 2.804,19.763 6.48,38.354 11.458,63.991 1.268,6.513 2.876,16.774 4.864,27.471 -2.796,6.699 -5.632,10.045 -9.446,16.331 -13.768,22.663 -39.745,55.185 -39.745,55.185 l 28.369,-1.302 c 9.647,-10.301 10.398,-14.147 17.395,-22.906 5.632,-7.045 11.862,-12.943 14.811,-17.791 8.831,24.554 17.986,42.564 17.986,42.564 l 20.805,-2.812 c 0,0 -16.879,-29.273 -23.633,-67.151 -7.353,-41.15 -11.167,-99.802 -9.51,-131.507"
             style="fill:#231f20;fill-opacity:1;fill-rule:nonzero;stroke:none"
             id="path20" />
        </g>
        <g
           id="g22"
           transform="translate(50,188.77)">
          <path
             d="m 0,0 c 0,0 10.972,21.589 25.419,23.94 14.439,2.343 27.851,-7.126 27.851,-7.126 0,0 -1.381,-18.406 -24.563,-24.919 C 12.693,-12.589 0,0 0,0"
             style="fill:#231f20;fill-opacity:1;fill-rule:nonzero;stroke:none"
             id="path24" />
        </g>
        <g
           id="g26"
           transform="translate(124.2768,361.6612)">
          <path
             d="m 0,0 c 13.089,-8.937 19.553,-17.065 25.274,-31.843 5.979,-15.401 2.408,-42.298 2.408,-42.298 0,0 -25.048,13.542 -31.342,28.95 C -10.318,-28.821 -9.219,-15.093 0,0"
             style="fill:#231f20;fill-opacity:1;fill-rule:nonzero;stroke:none"
             id="path28" />
        </g>
        <g
           id="g30"
           transform="translate(101.8914,294.0795)">
          <path
             d="m 0,0 c 14.204,0.929 21.864,0.485 34.202,-12.742 12.346,-13.243 10.076,-48.269 10.076,-48.269 0,0 -24.805,5.114 -37.588,20.596 C -6.108,-24.927 -4.379,-15.352 0,0"
             style="fill:#231f20;fill-opacity:1;fill-rule:nonzero;stroke:none"
             id="path32" />
        </g>
        <g
           id="g34"
           transform="translate(57.9296,323.688)">
          <path
             d="m 0,0 c 9.276,-1.495 14.883,-4.525 21.209,-11.481 7.547,-8.29 9.43,-27.125 9.43,-27.125 0,0 -16.75,4.291 -23.271,12.209 C 0.565,-18.148 -1.528,-10.585 0,0"
             style="fill:#231f20;fill-opacity:1;fill-rule:nonzero;stroke:none"
             id="path36" />
        </g>
        <g
           id="g38"
           transform="translate(71.5132,356.2402)">
          <path
             d="m 0,0 c -3.749,-14.035 -3.434,-23.415 6.73,-36.635 12.984,-16.886 36.416,-17.969 36.416,-17.969 0,0 -2.82,22.939 -11.837,35.018 C 22.308,-7.499 14.067,-3.079 0,0"
             style="fill:#231f20;fill-opacity:1;fill-rule:nonzero;stroke:none"
             id="path40" />
        </g>
        <g
           id="g42"
           transform="translate(52.6038,285.8073)">
          <path
             d="m 0,0 c 11.893,1.332 19.917,-0.712 29.766,-7.53 11.005,-7.628 18.261,-29.096 18.261,-29.096 0,0 -25.872,-0.8 -36.424,9.405 C 3.305,-19.19 0.04,-11.531 0,0"
             style="fill:#231f20;fill-opacity:1;fill-rule:nonzero;stroke:none"
             id="path44" />
        </g>
        <g
           id="g46"
           transform="translate(97.1731,376.4041)">
          <path
             d="m 0,0 c 8.177,-2.715 12.96,-7.773 15.158,-16.111 1.963,-7.418 -3.458,-19.36 -3.458,-19.36 0,0 -11.272,6.521 -14.068,13.639 C -5.511,-13.874 -4.759,-7.118 0,0"
             style="fill:#231f20;fill-opacity:1;fill-rule:nonzero;stroke:none"
             id="path48" />
        </g>
        <g
           id="g50"
           transform="translate(177.6087,386.7724)">
          <path
             d="m 0,0 c 0,0 7.7,-6.496 8.483,-12.265 0.921,-6.869 -7.538,-16.096 -7.538,-16.096 0,0 -9.841,8.185 -9.526,15.158 C -8.266,-7.07 0,0 0,0"
             style="fill:#231f20;fill-opacity:1;fill-rule:nonzero;stroke:none"
             id="path52" />
        </g>
        <g
           id="g54"
           transform="translate(214.54,332.8807)">
          <path
             d="m 0,0 c 0,0 22.276,3.693 30.792,9.098 8.524,5.397 12.354,27.181 12.354,27.181 0,0 -19.691,1.139 -28.724,-6.23 C 5.405,22.696 0,0 0,0"
             style="fill:#231f20;fill-opacity:1;fill-rule:nonzero;stroke:none"
             id="path56" />
        </g>
        <g
           id="g58"
           transform="translate(263.705,334.7707)">
          <path
             d="m 0,0 c 2.618,-18.665 -0.857,-31.795 -12.355,-46.718 -12.451,-16.144 -46.337,-24.206 -46.337,-24.206 0,0 -0.945,34.339 11.699,49.746 C -34.234,-5.64 -20.087,0.734 0,0"
             style="fill:#231f20;fill-opacity:1;fill-rule:nonzero;stroke:none"
             id="path60" />
        </g>
        <g
           id="g62"
           transform="translate(257.732,345.2616)">
          <path
             d="m 0,0 c 0.218,0.218 11.085,-3.022 17.307,-0.372 6.351,2.699 11.11,10.786 11.845,13.17 C 26.777,13.542 18.907,15.739 12.96,13.59 6.076,11.101 0.218,0 0,0"
             style="fill:#231f20;fill-opacity:1;fill-rule:nonzero;stroke:none"
             id="path64" />
        </g>
        <g
           id="g66"
           transform="translate(198.309,200.4511)">
          <path
             d="M 0,0 C 3.919,-0.355 35.381,9.631 49.287,26.469 62.562,42.573 61.6,48.81 61.609,64.332 41.296,68.242 25.031,62.603 11.481,46.968 -0.84,32.707 -1.842,10.375 0,0"
             style="fill:#231f20;fill-opacity:1;fill-rule:nonzero;stroke:none"
             id="path68" />
        </g>
        <g
           id="g70"
           transform="translate(254.6109,211.8652)">
          <path
             d="M 0,0 C -0.016,-0.437 3.014,21.484 11.821,30.945 26.122,46.305 32.505,45.125 46.944,43.413 47.437,29.386 43.243,19.649 32.731,10.35 22.688,1.478 0.428,-0.017 0,0"
             style="fill:#231f20;fill-opacity:1;fill-rule:nonzero;stroke:none"
             id="path72" />
        </g>
        <g
           id="g74"
           transform="translate(268.5891,258.4583)">
          <path
             d="M 0,0 C -0.186,0.169 -6.448,21.136 -0.17,31.85 6.658,43.526 17.606,48.842 30.986,47.008 32.707,35.187 30.841,27.034 24.118,17.145 17.638,7.594 0.04,-0.09 0,0"
             style="fill:#231f20;fill-opacity:1;fill-rule:nonzero;stroke:none"
             id="path76" />
        </g>
        <g
           id="g78"
           transform="translate(500.1943,62.1778)">
          <path
             d="M 0,0 -5.657,13.953 -10.988,0 Z M 16.913,-15.887 H -0.779 v 0.619 c 1.594,0.144 2.707,0.412 3.337,0.809 1.113,0.702 1.67,1.671 1.67,2.909 0,0.737 -0.252,1.722 -0.753,2.959 l -0.459,1.135 -2.583,6.353 h -11.849 l -1.403,-3.713 -0.675,-1.671 c -0.805,-1.975 -1.212,-3.527 -1.212,-4.661 0,-0.665 0.149,-1.284 0.449,-1.856 0.293,-0.578 0.696,-1.042 1.196,-1.403 0.701,-0.485 1.598,-0.768 2.691,-0.861 v -0.619 h -12.06 v 0.619 c 0.948,0.057 1.784,0.289 2.5,0.701 0.717,0.413 1.418,1.078 2.104,1.991 0.573,0.737 1.135,1.686 1.681,2.841 0.547,1.16 1.269,2.898 2.166,5.213 l 9.859,25.395 h 1.537 L 9.127,-7.43 c 0.882,-2.135 1.583,-3.661 2.104,-4.579 0.52,-0.918 1.083,-1.609 1.696,-2.073 0.428,-0.325 0.923,-0.572 1.48,-0.743 0.557,-0.17 1.392,-0.319 2.506,-0.443 z"
             style="fill:#231f20;fill-opacity:1;fill-rule:nonzero;stroke:none"
             id="path80" />
        </g>
        <g
           id="g82"
           transform="translate(537.4493,83.0509)">
          <path
             d="m 0,0 v -0.619 c -1.021,-0.056 -1.856,-0.201 -2.506,-0.433 -0.645,-0.232 -1.212,-0.608 -1.697,-1.129 -0.592,-0.614 -0.979,-1.367 -1.17,-2.264 -0.186,-0.897 -0.284,-2.439 -0.284,-4.63 v -15.243 c 0,-2.48 0.098,-4.269 0.284,-5.373 0.191,-1.103 0.572,-2.124 1.145,-3.057 0.861,-1.418 1.928,-2.444 3.192,-3.084 1.263,-0.634 2.856,-0.954 4.78,-0.954 1.866,0 3.65,0.284 5.347,0.846 1.696,0.567 3.109,1.351 4.238,2.356 0.702,0.629 1.217,1.31 1.552,2.047 0.33,0.738 0.552,1.671 0.66,2.8 0.067,0.738 0.104,2.481 0.104,5.229 v 15.052 c 0,1.851 -0.104,3.212 -0.31,4.094 -0.206,0.876 -0.588,1.603 -1.145,2.181 -0.5,0.521 -1.072,0.897 -1.706,1.129 -0.64,0.232 -1.47,0.377 -2.491,0.433 V 0 H 22.405 V -0.619 C 21.384,-0.675 20.553,-0.82 19.914,-1.052 19.28,-1.284 18.707,-1.66 18.207,-2.181 17.65,-2.759 17.269,-3.486 17.062,-4.378 16.856,-5.265 16.753,-6.626 16.753,-8.456 v -16.991 c 0,-2.516 -0.196,-4.367 -0.583,-5.564 -0.386,-1.196 -1.149,-2.284 -2.299,-3.274 -2.625,-2.258 -6.368,-3.393 -11.231,-3.393 -5.079,0 -8.823,1.073 -11.231,3.207 -1.562,1.362 -2.495,3.161 -2.8,5.384 -0.108,0.794 -0.159,2.217 -0.159,4.285 v 16.346 c 0,1.851 -0.104,3.212 -0.299,4.094 -0.196,0.876 -0.583,1.603 -1.155,2.181 -0.485,0.521 -1.047,0.897 -1.687,1.129 -0.639,0.232 -1.474,0.377 -2.516,0.433 l 0,0.619 z"
             style="fill:#231f20;fill-opacity:1;fill-rule:nonzero;stroke:none"
             id="path84" />
        </g>
        <g
           id="g86"
           transform="translate(576.4523,64.8746)">
          <path
             d="m 0,0 h 1.026 c 2.228,0 3.821,0.124 4.78,0.376 0.959,0.248 1.862,0.769 2.707,1.563 1.882,1.794 2.826,4.022 2.826,6.677 0,1.418 -0.273,2.749 -0.82,3.997 C 9.972,13.86 9.215,14.892 8.245,15.696 7.487,16.31 6.59,16.738 5.548,16.98 4.507,17.222 3.027,17.341 1.109,17.341 H 0 Z m 0,-0.593 v -9.534 c 0,-1.831 0.103,-3.192 0.309,-4.079 0.207,-0.892 0.588,-1.624 1.145,-2.197 0.485,-0.5 1.047,-0.876 1.686,-1.118 0.635,-0.243 1.475,-0.387 2.517,-0.444 v -0.619 H -11.55 v 0.619 c 1.041,0.057 1.882,0.201 2.516,0.444 0.639,0.242 1.201,0.618 1.686,1.118 0.572,0.573 0.959,1.3 1.155,2.182 0.196,0.881 0.299,2.243 0.299,4.094 V 9.72 c 0,1.851 -0.103,3.212 -0.299,4.094 -0.196,0.877 -0.583,1.604 -1.155,2.181 -0.485,0.521 -1.052,0.897 -1.696,1.129 -0.65,0.232 -1.485,0.377 -2.506,0.434 v 0.618 H 1.428 c 2.171,0 3.6,-0.01 4.285,-0.025 2.78,-0.129 4.961,-0.506 6.544,-1.135 1.774,-0.717 3.156,-1.789 4.13,-3.217 0.98,-1.429 1.47,-3.084 1.47,-4.966 0,-2.8 -1.057,-5.048 -3.177,-6.734 C 14.031,1.593 13.319,1.181 12.54,0.861 11.757,0.536 10.71,0.232 9.4,-0.057 c 1.078,-0.448 1.877,-0.912 2.398,-1.397 0.412,-0.382 0.789,-0.851 1.129,-1.418 0.34,-0.562 0.856,-1.563 1.537,-3.001 1.598,-3.285 2.805,-5.688 3.619,-7.204 0.82,-1.516 1.506,-2.614 2.063,-3.3 0.449,-0.557 0.882,-0.943 1.305,-1.155 0.422,-0.216 1,-0.361 1.737,-0.433 v -0.619 h -8.941 c -0.448,0.985 -0.737,1.614 -0.861,1.888 l -1.882,4.279 C 10.37,-9.849 9.23,-7.58 8.08,-5.605 6.93,-3.646 5.883,-2.31 4.93,-1.593 4.445,-1.232 3.924,-0.975 3.367,-0.825 2.81,-0.67 2.13,-0.593 1.32,-0.593 Z"
             style="fill:#231f20;fill-opacity:1;fill-rule:nonzero;stroke:none"
             id="path88" />
        </g>
        <g
           id="g90"
           transform="translate(632.3168,83.0509)">
          <path
             d="M 0,0 0.459,-8.89 -0.16,-8.915 c -0.232,1.51 -0.619,2.758 -1.16,3.743 -0.536,0.99 -1.32,1.862 -2.341,2.614 -0.846,0.63 -1.841,1.073 -2.991,1.331 -1.15,0.263 -2.676,0.392 -4.579,0.392 h -6.167 v -16.16 h 1.619 c 1.635,0 2.862,0.108 3.687,0.324 0.825,0.217 1.501,0.604 2.022,1.161 0.5,0.52 0.876,1.134 1.118,1.84 0.243,0.712 0.444,1.759 0.604,3.141 l 0.619,-0.026 -0.109,-14.438 h -0.618 c -0.16,1.382 -0.398,2.496 -0.712,3.341 -0.315,0.846 -0.748,1.563 -1.305,2.156 -0.541,0.572 -1.242,0.995 -2.103,1.263 -0.862,0.268 -1.955,0.407 -3.285,0.407 h -1.537 v -6.167 c 0,-2.465 0.067,-4.254 0.191,-5.373 0.124,-1.124 0.366,-2.062 0.727,-2.815 0.609,-1.294 1.542,-2.243 2.79,-2.841 1.242,-0.604 2.892,-0.903 4.94,-0.903 2.155,0 3.96,0.274 5.414,0.82 1.454,0.547 2.635,1.398 3.553,2.547 0.644,0.769 1.17,1.651 1.577,2.641 0.403,0.984 0.774,2.284 1.114,3.903 L 3.527,-26.04 3.182,-36.76 h -32.13 v 0.619 c 1.021,0.056 1.851,0.196 2.49,0.433 0.64,0.232 1.207,0.608 1.712,1.129 0.557,0.573 0.939,1.305 1.145,2.197 0.206,0.887 0.309,2.248 0.309,4.079 v 19.847 c 0,1.83 -0.103,3.191 -0.309,4.078 -0.206,0.892 -0.588,1.619 -1.145,2.197 -0.484,0.521 -1.046,0.897 -1.686,1.129 -0.634,0.232 -1.474,0.377 -2.516,0.433 l 0,0.619 z"
             style="fill:#231f20;fill-opacity:1;fill-rule:nonzero;stroke:none"
             id="path92" />
        </g>
        <g
           id="g94"
           transform="translate(640.4897,46.2909)">
          <path
             d="m 0,0 v 0.645 c 1.815,0 3.212,0.515 4.202,1.536 0.557,0.573 0.939,1.305 1.145,2.197 0.206,0.887 0.31,2.248 0.31,4.078 v 19.847 c 0,1.903 -0.114,3.306 -0.341,4.213 -0.222,0.908 -0.639,1.65 -1.248,2.223 C 3.563,35.208 3.001,35.548 2.382,35.765 1.763,35.976 0.969,36.105 0,36.141 V 36.76 H 17.207 V 36.141 C 16.222,36.085 15.412,35.95 14.783,35.734 14.154,35.522 13.597,35.182 13.113,34.713 12.504,34.12 12.092,33.377 11.875,32.48 11.659,31.578 11.55,30.191 11.55,28.303 V 12.767 c 0,-2.392 0.067,-4.166 0.191,-5.337 0.124,-1.165 0.366,-2.114 0.727,-2.851 0.629,-1.294 1.563,-2.243 2.8,-2.841 1.238,-0.604 2.883,-0.903 4.93,-0.903 2.134,0 3.934,0.284 5.398,0.846 1.465,0.567 2.661,1.444 3.594,2.63 0.629,0.804 1.145,1.722 1.552,2.743 0.403,1.026 0.774,2.372 1.114,4.043 L 32.506,11.04 32.155,0 Z"
             style="fill:#231f20;fill-opacity:1;fill-rule:nonzero;stroke:none"
             id="path96" />
        </g>
        <g
           id="g98"
           transform="translate(694.0905,83.0509)">
          <path
             d="M 0,0 V -0.619 C -1.021,-0.675 -1.851,-0.82 -2.491,-1.052 -3.13,-1.284 -3.697,-1.66 -4.202,-2.181 -4.899,-2.898 -5.332,-3.898 -5.492,-5.172 -5.6,-6.121 -5.657,-7.219 -5.657,-8.456 v -19.847 c 0,-1.491 0.073,-2.666 0.217,-3.527 0.144,-0.862 0.376,-1.553 0.701,-2.073 0.464,-0.722 1.068,-1.253 1.805,-1.604 0.737,-0.351 1.712,-0.562 2.934,-0.634 v -0.619 h -17.207 v 0.619 c 1.042,0.056 1.882,0.201 2.516,0.443 0.64,0.243 1.202,0.619 1.687,1.119 0.572,0.573 0.959,1.3 1.155,2.181 0.196,0.882 0.299,2.243 0.299,4.095 v 19.847 c 0,1.851 -0.103,3.212 -0.299,4.094 -0.196,0.876 -0.583,1.603 -1.155,2.181 -0.485,0.521 -1.052,0.897 -1.697,1.129 -0.65,0.232 -1.485,0.377 -2.506,0.433 V 0 Z"
             style="fill:#231f20;fill-opacity:1;fill-rule:nonzero;stroke:none"
             id="path100" />
        </g>
        <g
           id="g102"
           transform="translate(720.0634,62.1778)">
          <path
             d="M 0,0 -5.657,13.953 -10.988,0 Z M 16.913,-15.887 H -0.779 v 0.619 c 1.594,0.144 2.707,0.412 3.337,0.809 1.113,0.702 1.67,1.671 1.67,2.909 0,0.737 -0.252,1.722 -0.753,2.959 l -0.459,1.135 -2.583,6.353 h -11.849 l -1.403,-3.713 -0.675,-1.671 c -0.805,-1.975 -1.212,-3.527 -1.212,-4.661 0,-0.665 0.149,-1.284 0.449,-1.856 0.293,-0.578 0.696,-1.042 1.196,-1.403 0.701,-0.485 1.598,-0.768 2.691,-0.861 v -0.619 h -12.06 v 0.619 c 0.948,0.057 1.784,0.289 2.5,0.701 0.717,0.413 1.419,1.078 2.104,1.991 0.573,0.737 1.135,1.686 1.681,2.841 0.547,1.16 1.269,2.898 2.166,5.213 l 9.859,25.395 h 1.537 L 9.127,-7.43 c 0.882,-2.135 1.583,-3.661 2.104,-4.579 0.52,-0.918 1.082,-1.609 1.696,-2.073 0.428,-0.325 0.923,-0.572 1.48,-0.743 0.557,-0.17 1.392,-0.319 2.506,-0.443 z"
             style="fill:#231f20;fill-opacity:1;fill-rule:nonzero;stroke:none"
             id="path104" />
        </g>
        <g
           id="g106"
           transform="translate(768.5851,82.2156)">
          <path
             d="m 0,0 v -26.767 c 0,-1.763 0.103,-3.099 0.299,-4.012 0.196,-0.917 0.567,-1.701 1.104,-2.346 1.149,-1.397 3.016,-2.098 5.599,-2.098 2.213,0 4.1,0.361 5.672,1.088 1.568,0.727 2.976,1.907 4.213,3.542 1.222,1.578 2.15,3.388 2.79,5.425 0.634,2.042 0.954,4.207 0.954,6.507 0,2.547 -0.387,4.971 -1.16,7.271 -0.769,2.294 -1.872,4.305 -3.311,6.033 -1.99,2.387 -4.372,3.965 -7.136,4.738 C 7.518,-0.206 5.595,0 3.259,0 Z m -11.55,-35.306 c 1.041,0.057 1.877,0.196 2.506,0.433 0.624,0.232 1.191,0.609 1.696,1.13 0.557,0.572 0.939,1.304 1.145,2.196 0.206,0.887 0.309,2.248 0.309,4.079 v 19.847 c 0,1.975 -0.124,3.419 -0.366,4.336 -0.242,0.913 -0.711,1.671 -1.413,2.264 -0.881,0.732 -2.171,1.145 -3.877,1.238 V 0.835 H 3.259 c 3.29,0 5.378,-0.036 6.275,-0.108 3.79,-0.289 7.003,-1.366 9.643,-3.233 2.511,-1.774 4.47,-4.105 5.868,-6.987 1.402,-2.882 2.103,-6.017 2.103,-9.41 0,-2.481 -0.402,-4.816 -1.201,-7.018 -0.799,-2.197 -1.908,-4.027 -3.326,-5.481 -1.99,-2.048 -4.476,-3.347 -7.456,-3.904 -2.228,-0.412 -4.496,-0.619 -6.817,-0.619 H -11.55 Z"
             style="fill:#231f20;fill-opacity:1;fill-rule:nonzero;stroke:none"
             id="path108" />
        </g>
        <g
           id="g110"
           transform="translate(819.1952,83.0509)">
          <path
             d="m 0,0 v -0.619 c -1.021,-0.056 -1.856,-0.201 -2.506,-0.433 -0.645,-0.232 -1.212,-0.608 -1.696,-1.129 -0.593,-0.614 -0.98,-1.367 -1.171,-2.264 -0.186,-0.897 -0.284,-2.439 -0.284,-4.63 v -15.243 c 0,-2.48 0.098,-4.269 0.284,-5.373 0.191,-1.103 0.572,-2.124 1.145,-3.057 0.861,-1.418 1.928,-2.444 3.192,-3.084 1.263,-0.634 2.856,-0.954 4.78,-0.954 1.866,0 3.65,0.284 5.347,0.846 1.696,0.567 3.109,1.351 4.238,2.356 0.702,0.629 1.217,1.31 1.552,2.047 0.33,0.738 0.552,1.671 0.66,2.8 0.067,0.738 0.104,2.481 0.104,5.229 v 15.052 c 0,1.851 -0.104,3.212 -0.31,4.094 -0.206,0.876 -0.588,1.603 -1.145,2.181 -0.5,0.521 -1.072,0.897 -1.706,1.129 -0.64,0.232 -1.47,0.377 -2.491,0.433 V 0 H 22.405 V -0.619 C 21.384,-0.675 20.553,-0.82 19.914,-1.052 19.28,-1.284 18.707,-1.66 18.207,-2.181 17.65,-2.759 17.269,-3.486 17.063,-4.378 c -0.207,-0.887 -0.31,-2.248 -0.31,-4.078 v -16.991 c 0,-2.516 -0.196,-4.367 -0.583,-5.564 -0.386,-1.196 -1.149,-2.284 -2.299,-3.274 -2.625,-2.258 -6.368,-3.393 -11.231,-3.393 -5.079,0 -8.822,1.073 -11.231,3.207 -1.562,1.362 -2.495,3.161 -2.8,5.384 -0.108,0.794 -0.159,2.217 -0.159,4.285 v 16.346 c 0,1.851 -0.103,3.212 -0.299,4.094 -0.196,0.876 -0.583,1.603 -1.155,2.181 -0.485,0.521 -1.047,0.897 -1.687,1.129 -0.639,0.232 -1.474,0.377 -2.516,0.433 l 0,0.619 z"
             style="fill:#231f20;fill-opacity:1;fill-rule:nonzero;stroke:none"
             id="path112" />
        </g>
        <g
           id="g114"
           transform="translate(858.2034,65.3851)">
          <path
             d="m 0,0 v -11.097 c 0,-1.345 0.098,-2.433 0.284,-3.258 0.19,-0.825 0.5,-1.527 0.928,-2.099 0.918,-1.202 2.49,-1.805 4.713,-1.805 2.893,0 5.177,0.789 6.858,2.367 1.676,1.583 2.516,3.738 2.516,6.466 0,1.562 -0.263,3.011 -0.784,4.347 -0.52,1.341 -1.217,2.367 -2.098,3.083 C 10.803,-0.665 8.271,0 4.821,0 Z M 0,16.83 V 0.835 h 2.181 c 1.026,0 2.083,0.073 3.182,0.217 0.948,0.139 1.717,0.309 2.299,0.51 0.583,0.196 1.119,0.464 1.604,0.805 0.918,0.686 1.619,1.557 2.114,2.63 0.495,1.067 0.743,2.248 0.743,3.537 0,1.366 -0.258,2.666 -0.769,3.893 -0.51,1.232 -1.191,2.186 -2.036,2.867 -0.733,0.593 -1.573,1 -2.517,1.212 -0.943,0.216 -2.372,0.324 -4.295,0.324 z m -11.55,-35.924 v 0.619 c 1.041,0.056 1.882,0.201 2.516,0.443 0.639,0.242 1.201,0.619 1.686,1.119 0.572,0.572 0.959,1.299 1.155,2.181 0.196,0.882 0.299,2.243 0.299,4.094 V 9.209 c 0,1.851 -0.103,3.213 -0.299,4.095 -0.196,0.876 -0.583,1.603 -1.155,2.181 -0.485,0.52 -1.052,0.897 -1.696,1.129 -0.65,0.232 -1.485,0.376 -2.506,0.433 v 0.619 H 6.141 c 1.795,0 2.97,-0.021 3.527,-0.057 2.047,-0.16 3.744,-0.644 5.09,-1.454 1.17,-0.717 2.073,-1.66 2.707,-2.826 0.639,-1.165 0.959,-2.475 0.959,-3.929 0,-2.356 -0.727,-4.285 -2.181,-5.791 C 15.722,3.053 15.129,2.589 14.464,2.222 13.799,1.851 12.839,1.444 11.581,0.995 c 1.723,-0.289 3.063,-0.603 4.012,-0.943 0.954,-0.341 1.815,-0.815 2.589,-1.424 1.144,-0.938 2.041,-2.098 2.676,-3.49 0.639,-1.393 0.959,-2.893 0.959,-4.512 0,-1.63 -0.33,-3.125 -0.985,-4.481 -0.655,-1.356 -1.568,-2.45 -2.733,-3.275 -1.057,-0.737 -2.32,-1.247 -3.785,-1.531 -1.464,-0.289 -3.522,-0.433 -6.177,-0.433 z"
             style="fill:#231f20;fill-opacity:1;fill-rule:nonzero;stroke:none"
             id="path116" />
        </g>
        <g
           id="g118"
           transform="translate(907.0912,62.1778)">
          <path
             d="M 0,0 -5.657,13.953 -10.988,0 Z M 16.913,-15.887 H -0.779 v 0.619 c 1.594,0.144 2.708,0.412 3.337,0.809 1.113,0.702 1.67,1.671 1.67,2.909 0,0.737 -0.252,1.722 -0.753,2.959 l -0.459,1.135 -2.583,6.353 h -11.849 l -1.403,-3.713 -0.675,-1.671 c -0.805,-1.975 -1.212,-3.527 -1.212,-4.661 0,-0.665 0.149,-1.284 0.449,-1.856 0.293,-0.578 0.696,-1.042 1.196,-1.403 0.701,-0.485 1.598,-0.768 2.691,-0.861 v -0.619 h -12.06 v 0.619 c 0.948,0.057 1.784,0.289 2.5,0.701 0.717,0.413 1.419,1.078 2.104,1.991 0.573,0.737 1.135,1.686 1.681,2.841 0.547,1.16 1.269,2.898 2.166,5.213 l 9.859,25.395 h 1.537 L 9.127,-7.43 c 0.882,-2.135 1.583,-3.661 2.104,-4.579 0.52,-0.918 1.082,-1.609 1.696,-2.073 0.428,-0.325 0.923,-0.572 1.48,-0.743 0.557,-0.17 1.392,-0.319 2.506,-0.443 z"
             style="fill:#231f20;fill-opacity:1;fill-rule:nonzero;stroke:none"
             id="path120" />
        </g>
        <g
           id="g122"
           transform="translate(944.7227,83.0509)">
          <path
             d="M 0,0 V -0.619 C -1.021,-0.675 -1.851,-0.82 -2.491,-1.052 -3.13,-1.284 -3.697,-1.66 -4.203,-2.181 -4.899,-2.898 -5.332,-3.898 -5.492,-5.172 -5.6,-6.121 -5.657,-7.219 -5.657,-8.456 v -19.847 c 0,-1.491 0.073,-2.666 0.217,-3.527 0.144,-0.862 0.376,-1.553 0.701,-2.073 0.464,-0.722 1.068,-1.253 1.805,-1.604 0.737,-0.351 1.712,-0.562 2.934,-0.634 v -0.619 h -17.207 v 0.619 c 1.042,0.056 1.882,0.201 2.516,0.443 0.64,0.243 1.202,0.619 1.687,1.119 0.572,0.573 0.959,1.3 1.155,2.181 0.195,0.882 0.299,2.243 0.299,4.095 v 19.847 c 0,1.851 -0.104,3.212 -0.299,4.094 -0.196,0.876 -0.583,1.603 -1.155,2.181 -0.485,0.521 -1.052,0.897 -1.697,1.129 -0.65,0.232 -1.485,0.377 -2.506,0.433 V 0 Z"
             style="fill:#231f20;fill-opacity:1;fill-rule:nonzero;stroke:none"
             id="path124" />
        </g>
        <g
           id="g126"
           transform="translate(405.0154,188.4542)">
          <path
             d="m 0,0 h 2.957 c 4.04,0 6.504,-0.865 8.823,-2.958 3.806,-3.433 8.597,-11.651 13.865,-23.302 4.307,-9.817 4.549,-10.431 6.035,-13.743 h 19.861 v 1.357 c -6.019,0.476 -7.733,2.691 -19.4,26.857 -4.29,9.211 -5.623,10.682 -11.271,13.001 4.896,1.115 7.611,2.084 10.181,3.684 5.526,3.563 8.597,9.324 8.597,16.071 0,8.225 -4.307,14.729 -11.797,18.042 -5.389,2.335 -9.938,2.819 -24.66,2.819 h -28.949 v -1.349 c 5.041,-0.242 7.845,-1.47 10.067,-4.29 1.955,-2.456 2.569,-5.64 2.569,-13.121 v -44.31 c 0,-7.474 -0.614,-10.658 -2.569,-13.106 -2.222,-2.827 -5.026,-4.064 -10.067,-4.298 v -1.357 h 38.403 v 1.357 c -5.034,0.234 -7.854,1.471 -10.06,4.298 C 0.63,-31.9 0,-28.587 0,-21.242 Z m 0,1.349 v 38.637 h 2.448 c 7.385,0 11.425,-0.735 14.382,-2.577 5.01,-3.191 8.347,-9.817 8.347,-16.798 0,-5.769 -1.98,-10.682 -5.915,-14.608 C 15.465,2.205 12.386,1.349 2.327,1.349 Z"
             style="fill:#231f20;fill-opacity:1;fill-rule:nonzero;stroke:none"
             id="path128" />
        </g>
        <g
           id="g130"
           transform="translate(516.0415,203.2957)">
          <path
             d="m 0,0 h -45.134 v -1.229 c 7.854,-0.986 8.815,-2.949 8.815,-16.571 v -19.255 c 0,-13.614 -0.961,-15.586 -8.815,-16.563 v -1.228 H 4.775 l 0.509,16.321 H 4.056 c -2.448,-11.296 -6.609,-14.608 -18.276,-14.608 -6.391,0 -9.697,1.478 -11.676,5.033 -1.082,2.336 -1.454,4.905 -1.454,12.403 v 8.815 h 2.82 c 7.369,0 9.938,-2.569 10.794,-10.536 h 1.229 l 0.258,21.71 h -1.236 c -0.986,-7.853 -2.836,-9.445 -10.795,-9.445 h -3.07 v 23.432 h 10.552 c 6.004,0 9.082,-0.736 11.773,-2.941 2.577,-2.215 3.942,-4.671 4.532,-8.969 h 1.229 z"
             style="fill:#231f20;fill-opacity:1;fill-rule:nonzero;stroke:none"
             id="path132" />
        </g>
        <g
           id="g134"
           transform="translate(540.8018,148.4528)">
          <path
             d="m 0,0 h 1.219 c 0.494,1.35 1.229,1.963 2.457,1.963 0.493,0 1.099,-0.128 1.471,-0.25 6.011,-2.698 8.831,-3.426 13.501,-3.426 10.673,0 18.284,7.111 18.284,17.178 0,7.344 -4.169,12.387 -13.509,16.685 -8.694,3.789 -8.694,3.789 -11.021,5.519 -2.464,1.963 -3.934,4.783 -3.934,7.724 0,5.276 4.298,9.332 10.043,9.332 6.754,0 10.568,-4.323 14.01,-15.958 h 1.212 L 33.49,55.088 h -1.212 c -0.388,-1.478 -0.856,-2.076 -1.737,-2.076 -0.735,0 -1.099,0.113 -4.161,1.333 -3.684,1.591 -5.647,2.085 -8.362,2.085 -8.937,0 -16.055,-7.24 -16.055,-16.071 0,-6.868 2.949,-10.181 13.38,-15.214 5.511,-2.578 7.716,-3.919 9.429,-5.64 2.101,-2.085 3.313,-5.397 3.313,-8.589 C 28.085,4.533 23.423,0 16.935,0 9.445,0 4.412,5.518 1.349,17.057 H 0.121 Z"
             style="fill:#231f20;fill-opacity:1;fill-rule:nonzero;stroke:none"
             id="path136" />
        </g>
        <g
           id="g138"
           transform="translate(606.7935,166.2385)">
          <path
             d="m 0,0 c 0,-13.606 -0.978,-15.578 -8.831,-16.564 v -1.22 h 26.364 v 1.22 c -7.959,1.471 -8.694,2.958 -8.588,16.079 v 20.24 c -0.106,13.121 0.629,14.592 8.588,16.071 v 1.228 H -8.831 V 35.826 C -0.978,34.84 0,32.876 0,19.262 Z"
             style="fill:#231f20;fill-opacity:1;fill-rule:nonzero;stroke:none"
             id="path140" />
        </g>
        <g
           id="g142"
           transform="translate(651.3196,166.2385)">
          <path
             d="m 0,0 c 0,-13.606 -0.978,-15.578 -8.831,-16.564 v -1.22 h 24.158 c 12.282,0 15.449,0.242 19.998,1.834 9.696,3.32 15.465,12.031 15.465,23.553 0,14.357 -8.71,25.646 -21.969,28.586 -3.676,0.752 -5.252,0.865 -14.471,0.865 H -8.831 V 35.826 C -0.978,34.84 0,32.876 0,19.262 Z m 8.945,35.341 h 5.405 c 8.217,0 13.259,-1.721 17.792,-6.012 5.527,-5.033 8.588,-12.887 8.588,-21.354 0,-6.125 -1.608,-11.53 -4.67,-16.071 -4.04,-5.64 -9.082,-8.217 -16.547,-8.217 -7.862,0 -10.568,3.054 -10.568,12.273 z"
             style="fill:#231f20;fill-opacity:1;fill-rule:nonzero;stroke:none"
             id="path144" />
        </g>
        <g
           id="g146"
           transform="translate(767.3837,203.2957)">
          <path
             d="m 0,0 h -45.134 v -1.229 c 7.838,-0.986 8.815,-2.949 8.815,-16.571 v -19.255 c 0,-13.614 -0.977,-15.586 -8.815,-16.563 v -1.228 H 4.775 l 0.509,16.321 H 4.04 c -2.448,-11.296 -6.625,-14.608 -18.268,-14.608 -6.384,0 -9.688,1.478 -11.651,5.033 -1.116,2.336 -1.487,4.905 -1.487,12.403 v 8.815 h 2.836 c 7.352,0 9.938,-2.569 10.794,-10.536 h 1.212 l 0.243,21.71 h -1.204 c -0.986,-7.853 -2.836,-9.445 -10.795,-9.445 h -3.086 v 23.432 h 10.552 c 6.019,0 9.082,-0.736 11.788,-2.941 2.578,-2.215 3.911,-4.671 4.533,-8.969 h 1.228 z"
             style="fill:#231f20;fill-opacity:1;fill-rule:nonzero;stroke:none"
             id="path148" />
        </g>
        <g
           id="g150"
           transform="translate(838.9979,162.3173)">
          <path
             d="m 0,0 -33.612,40.981 h -16.2 v -1.237 c 7.861,-0.985 8.839,-2.94 8.839,-16.564 V 3.919 c 0,-13.607 -0.978,-15.579 -8.839,-16.556 v -1.228 h 19.513 v 1.228 c -7.983,1.471 -8.719,2.949 -8.589,16.071 V 32.998 L 0,-13.865 H 2.084 V 23.18 c 0,13.624 0.995,15.579 8.831,16.564 v 1.237 H -8.589 V 39.744 C -0.598,38.274 0.137,36.804 0,23.681 Z"
             style="fill:#231f20;fill-opacity:1;fill-rule:nonzero;stroke:none"
             id="path152" />
        </g>
        <g
           id="g154"
           transform="translate(919.2477,203.5448)">
          <path
             d="m 0,0 h -1.228 c -0.752,-1.592 -1.236,-2.085 -2.206,-2.085 -0.485,0 -1.115,0.113 -1.729,0.363 -8.089,2.691 -9.688,3.063 -14.221,3.063 -17.816,0 -29.83,-12.144 -29.83,-30.049 0,-17.065 11.166,-27.981 28.602,-27.981 13.122,0 20.361,5.899 21.831,17.921 L 0,-38.533 c -1.98,-10.552 -7.49,-15.206 -17.792,-15.206 -13.243,0 -21.347,9.809 -21.347,26.009 0,15.691 8.589,27.366 20.24,27.366 4.533,0 7.975,-1.487 11.288,-4.913 2.698,-2.819 3.692,-4.662 6.124,-11.053 l 0.751,-1.955 h 1.228 z"
             style="fill:#231f20;fill-opacity:1;fill-rule:nonzero;stroke:none"
             id="path156" />
        </g>
        <g
           id="g158"
           transform="translate(984.506,203.2957)">
          <path
             d="m 0,0 h -45.158 v -1.229 c 7.845,-0.986 8.839,-2.949 8.839,-16.571 v -19.255 c 0,-13.614 -0.994,-15.586 -8.839,-16.563 v -1.228 H 4.775 l 0.493,16.321 H 4.04 c -2.448,-11.296 -6.61,-14.608 -18.285,-14.608 -6.383,0 -9.688,1.478 -11.651,5.033 -1.099,2.336 -1.487,4.905 -1.487,12.403 v 8.815 h 2.836 c 7.353,0 9.938,-2.569 10.795,-10.536 h 1.228 l 0.243,21.71 h -1.221 c -0.986,-7.853 -2.82,-9.445 -10.786,-9.445 h -3.095 v 23.432 h 10.569 c 6.003,0 9.065,-0.736 11.772,-2.941 2.593,-2.215 3.919,-4.671 4.541,-8.969 h 1.236 z"
             style="fill:#231f20;fill-opacity:1;fill-rule:nonzero;stroke:none"
             id="path160" />
        </g>
        <g
           id="g162"
           transform="translate(1009.2461,148.4528)">
          <path
             d="m 0,0 h 1.245 c 0.484,1.35 1.203,1.963 2.447,1.963 0.493,0 1.099,-0.128 1.471,-0.25 6.02,-2.698 8.815,-3.426 13.493,-3.426 10.666,0 18.277,7.111 18.277,17.178 0,7.344 -4.161,12.387 -13.502,16.685 -8.701,3.789 -8.701,3.789 -11.044,5.519 -2.449,1.963 -3.919,4.783 -3.919,7.724 0,5.276 4.29,9.332 10.059,9.332 6.754,0 10.552,-4.323 13.994,-15.958 h 1.212 l -0.242,16.321 h -1.212 c -0.363,-1.478 -0.857,-2.076 -1.729,-2.076 -0.735,0 -1.099,0.113 -4.161,1.333 -3.693,1.591 -5.656,2.085 -8.355,2.085 -8.952,0 -16.071,-7.24 -16.071,-16.071 0,-6.868 2.95,-10.181 13.381,-15.214 5.518,-2.578 7.716,-3.919 9.445,-5.64 2.085,-2.085 3.297,-5.397 3.297,-8.589 C 28.086,4.533 23.431,0 16.952,0 9.446,0 4.428,5.518 1.365,17.057 H 0.138 Z"
             style="fill:#231f20;fill-opacity:1;fill-rule:nonzero;stroke:none"
             id="path164" />
        </g>
        <g
           id="g166"
           transform="translate(381.8484,373.4258)">
          <path
             d="m 0,0 v -1.349 c 5.026,-0.251 7.854,-1.495 10.06,-4.299 1.963,-2.448 2.569,-5.632 2.569,-13.129 v -44.294 c 0,-7.482 -0.606,-10.666 -2.569,-13.129 C 7.854,-79.013 5.026,-80.249 0,-80.491 v -1.341 h 43.914 c 10.318,0 15.465,0.727 19.893,2.94 6.488,3.427 10.431,10.303 10.431,18.64 0,7.006 -2.837,13.389 -7.628,17.437 -3.538,3.07 -6.973,4.282 -15.085,5.632 4.913,1.72 6.997,2.828 9.324,4.791 3.693,3.183 5.898,8.338 5.898,13.978 0,6.262 -2.698,11.538 -7.611,14.713 C 54.588,-0.735 50.79,0 39.51,0 Z m 25.758,-1.842 h 5.527 c 7.603,0 10.682,-0.501 13.857,-2.448 4.541,-2.707 7.619,-9.211 7.619,-16.079 0,-5.648 -2.092,-10.439 -6.011,-13.502 -3.063,-2.327 -8.71,-3.668 -16.079,-3.668 h -4.913 z m 0,-37.547 h 5.035 c 12.159,0 14.47,-0.25 19.019,-2.206 6.262,-2.699 9.939,-9.68 9.939,-18.778 0,-12.136 -7.983,-19.625 -21,-19.625 -9.429,0 -12.993,4.29 -12.993,15.941 z"
             style="fill:#231f20;fill-opacity:1;fill-rule:nonzero;stroke:none"
             id="path168" />
        </g>
        <g
           id="g170"
           transform="translate(521.3555,291.5949)">
          <path
             d="m 0,0 v 1.212 c -6.375,0.621 -7.611,1.85 -11.53,11.546 l -18.285,42.079 h -2.448 L -47.727,17.039 C -52.26,4.896 -54.967,1.462 -60.251,1.212 V 0 h 18.301 v 1.212 c -4.065,0.25 -6.391,2.472 -6.391,6.011 0,1.979 0.614,4.056 2.819,9.203 l 1.956,5.397 h 18.527 l 4.064,-9.316 c 1.463,-3.183 1.834,-4.541 1.834,-6.02 0,-3.191 -2.327,-4.904 -7.474,-5.275 l 0,-1.212 z m -25.766,23.908 h -16.806 l 8.475,20.619 z"
             style="fill:#231f20;fill-opacity:1;fill-rule:nonzero;stroke:none"
             id="path172" />
        </g>
        <g
           id="g174"
           transform="translate(573.5829,305.4416)">
          <path
             d="M 0,0 -33.628,40.989 H -49.812 V 39.76 c 7.846,-0.986 8.823,-2.941 8.823,-16.556 V 3.926 c 0,-13.606 -0.977,-15.577 -8.823,-16.555 v -1.22 h 19.496 v 1.22 c -7.974,1.47 -8.701,2.949 -8.588,16.063 v 29.58 L 0,-13.849 h 2.068 v 37.053 c 0,13.615 0.994,15.57 8.848,16.556 v 1.229 H -8.589 V 39.76 C -0.63,38.298 0.121,36.819 0,23.689 Z"
             style="fill:#231f20;fill-opacity:1;fill-rule:nonzero;stroke:none"
             id="path176" />
        </g>
        <g
           id="g178"
           transform="translate(644.4905,346.4328)">
          <path
             d="m 0,0 h -18.648 v -1.229 c 4.307,-0.129 6.141,-1.72 6.141,-5.162 0,-1.964 -0.615,-3.669 -2.465,-6.133 l -9.938,-14.221 -11.279,16.685 c -1.35,1.835 -2.102,3.669 -2.102,4.905 0,2.82 1.48,3.676 6.384,3.926 V 0 h -26.381 v -1.229 c 4.177,-0.129 6.141,-1.228 8.848,-5.276 0.598,-0.985 1.212,-1.963 1.834,-2.811 l 11.045,-15.465 c 2.206,-3.199 3.797,-6.997 3.797,-9.567 v -2.715 c 0,-13.606 -0.977,-15.578 -8.831,-16.563 v -1.212 h 26.381 v 1.212 c -6.876,1.107 -8.702,3.442 -8.581,11.546 v 2.085 2.698 4.904 c 0,3.184 0.493,4.776 2.432,7.483 l 9.938,13.873 C -5.769,-2.836 -4.42,-1.6 0,-1.229 Z"
             style="fill:#231f20;fill-opacity:1;fill-rule:nonzero;stroke:none"
             id="path180" />
        </g>
        <g
           id="g182"
           transform="translate(703.2423,291.5949)">
          <path
             d="m 0,0 v 1.212 c -6.367,0.621 -7.595,1.85 -11.53,11.546 l -18.277,42.079 h -2.456 L -47.728,17.039 C -52.26,4.896 -54.967,1.462 -60.235,1.212 V 0 h 18.285 v 1.212 c -4.056,0.25 -6.384,2.472 -6.384,6.011 0,1.979 0.606,4.056 2.812,9.203 l 1.955,5.397 h 18.535 l 4.041,-9.316 c 1.486,-3.183 1.85,-4.541 1.85,-6.02 0,-3.191 -2.327,-4.904 -7.466,-5.275 l 0,-1.212 z m -25.758,23.908 h -16.806 l 8.467,20.619 z"
             style="fill:#231f20;fill-opacity:1;fill-rule:nonzero;stroke:none"
             id="path184" />
        </g>
        <g
           id="g186"
           transform="translate(755.4697,305.4416)">
          <path
             d="M 0,0 -33.62,40.989 H -49.812 V 39.76 c 7.846,-0.986 8.823,-2.941 8.823,-16.556 V 3.926 c 0,-13.606 -0.977,-15.577 -8.823,-16.555 v -1.22 h 19.513 v 1.22 c -7.992,1.47 -8.727,2.949 -8.606,16.063 v 29.58 L 0,-13.849 h 2.084 v 37.053 c 0,13.615 0.978,15.57 8.84,16.556 v 1.229 H -8.589 V 39.76 C -0.623,38.298 0.129,36.819 0,23.689 Z"
             style="fill:#231f20;fill-opacity:1;fill-rule:nonzero;stroke:none"
             id="path188" />
        </g>
        <g
           id="g190"
           transform="translate(835.2139,310.3576)">
          <path
             d="m 0,0 c 0,-7.49 -0.63,-10.673 -2.585,-13.129 -2.206,-2.821 -5.026,-4.049 -10.043,-4.3 v -1.333 h 38.386 v 1.333 c -5.025,0.251 -7.845,1.479 -10.05,4.3 -1.956,2.456 -2.586,5.76 -2.586,13.129 v 61.229 c 23.69,0.113 30.687,-4.177 33.992,-20.378 h 1.349 l -0.986,22.22 h -81.105 l -1.099,-22.22 h 1.365 c 3.556,16.702 9.43,20.248 33.362,20.378 z"
             style="fill:#231f20;fill-opacity:1;fill-rule:nonzero;stroke:none"
             id="path192" />
        </g>
        <g
           id="g194"
           transform="translate(887.106,346.4328)">
          <path
             d="M 0,0 V -1.229 C 7.853,-2.214 8.839,-4.178 8.839,-17.784 V -37.063 C 8.839,-50.669 7.853,-52.641 0,-53.626 v -1.212 h 26.38 v 1.212 c -7.975,1.47 -8.71,2.957 -8.588,16.071 v 9.34 h 2.585 c 2.578,0 4.169,-0.493 5.64,-1.85 2.206,-2.206 5.284,-7.611 8.589,-15.57 l 2.698,-6.262 1.221,-2.941 h 13.63 v 1.212 c -3.571,0 -5.527,2.326 -10.309,12.395 -3.321,6.883 -4.299,8.838 -4.913,9.937 -1.228,1.964 -2.327,2.942 -4.783,4.049 9.073,1.729 13.743,6.261 13.743,13.258 0,5.398 -2.957,9.809 -8.225,12.015 C 33.854,-0.364 30.55,0 20.507,0 Z m 17.792,-26.874 v 25.152 h 2.206 c 5.163,0 7.975,-0.492 10.059,-1.583 3.571,-2.214 5.777,-6.512 5.777,-11.053 0,-3.677 -1.365,-7.006 -4.169,-9.446 -2.586,-2.585 -4.792,-3.07 -11.667,-3.07 z"
             style="fill:#231f20;fill-opacity:1;fill-rule:nonzero;stroke:none"
             id="path196" />
        </g>
        <g
           id="g198"
           transform="translate(987.3388,346.4328)">
          <path
             d="m 0,0 h -45.15 v -1.229 c 7.837,-0.985 8.831,-2.949 8.831,-16.555 v -19.279 c 0,-13.606 -0.994,-15.578 -8.831,-16.563 v -1.212 H 4.775 l 0.493,16.313 H 4.04 c -2.449,-11.287 -6.626,-14.608 -18.285,-14.608 -6.383,0 -9.688,1.479 -11.651,5.034 -1.099,2.326 -1.487,4.904 -1.487,12.402 v 8.823 h 2.836 c 7.353,0 9.938,-2.569 10.795,-10.544 h 1.228 l 0.242,21.71 h -1.212 c -0.994,-7.853 -2.843,-9.445 -10.811,-9.445 h -3.078 v 23.431 h 10.552 c 6.02,0 9.082,-0.735 11.789,-2.94 2.594,-2.214 3.918,-4.654 4.54,-8.961 h 1.237 z"
             style="fill:#231f20;fill-opacity:1;fill-rule:nonzero;stroke:none"
             id="path200" />
        </g>
        <g
           id="g202"
           transform="translate(1042.0155,346.4328)">
          <path
             d="m 0,0 h -45.15 v -1.229 c 7.854,-0.985 8.831,-2.949 8.831,-16.555 v -19.279 c 0,-13.606 -0.977,-15.578 -8.831,-16.563 v -1.212 H 4.776 l 0.508,16.313 H 4.04 c -2.448,-11.287 -6.625,-14.608 -18.261,-14.608 -6.391,0 -9.695,1.479 -11.675,5.034 -1.099,2.326 -1.462,4.904 -1.462,12.402 v 8.823 h 2.828 c 7.352,0 9.938,-2.569 10.779,-10.544 h 1.227 l 0.243,21.71 h -1.22 c -0.97,-7.853 -2.82,-9.445 -10.779,-9.445 h -3.078 v 23.431 h 10.544 c 6.019,0 9.081,-0.735 11.788,-2.94 2.562,-2.214 3.911,-4.654 4.533,-8.961 h 1.228 z"
             style="fill:#231f20;fill-opacity:1;fill-rule:nonzero;stroke:none"
             id="path204" />
        </g>
        <g
           id="g206"
           transform="translate(379.5441,251.8857)">
          <path
             d="M 0,0 H 670.456 V 5.55 H 0"
             style="fill:#231f20;fill-opacity:1;fill-rule:nonzero;stroke:none"
             id="path208" />
        </g>
      </g>
    </g>
  </g>
</svg>
