<svg version="1.2" xmlns="http://www.w3.org/2000/svg" viewBox="0 0 530 154" width="530" height="154"><defs><clipPath clipPathUnits="userSpaceOnUse" id="cp1"><path d="m-454-640h1440v1440h-1440z"/></clipPath></defs><style>.a{fill:#283f4a}</style><g clip-path="url(#cp1)"><path class="a" d="m196.1 128.1q1.5 1.2 2.1 2.9 0.7 1.7 0.7 3.5h-2.3c0-5-1.2-7.7-7.4-7.8q-0.4 0-0.9 0h-2.9v7.8h-2.2v-8.4l0.1-11.7h5.1c4.4 0 7.2 1.3 8.6 3.2q1.1 1.5 1.1 3.2c0 2.8-2 4.9-6.2 5.6q2.6 0.5 4.2 1.7zm-10.7-2h3c5.5 0 7.5-2.1 7.5-5.2 0-3.1-2-5.8-7.5-5.8h-3z"/><path class="a" d="m215.6 115.1h-11.1l0.1 9h8.7v0.6h-8.7v9.2h11v0.6h-13.2v-0.1-0.5-9.5-9.9h13.2z"/><path class="a" d="m228.7 116.3c0 0-0.3-0.4-1.1-0.9-0.7-0.4-1.8-0.8-3.2-0.8-2.9 0-4.4 2.3-4.4 3.8 0 1.3 1.1 2.3 2.7 3.2q1.1 0.7 2.5 1.4c1.7 0.9 3.4 1.9 4.7 3 1.4 1 2.3 2.3 2.3 3.9 0 2.5-2.4 4.9-8.3 4.9-4.7 0-6.3-1.5-6.7-2.1l-0.2-0.3h2.3l0.1 0.2c0.1 0.3 0.4 0.7 1.1 1 0.7 0.4 1.7 0.7 3.4 0.7 4.1 0 5.9-2.2 5.9-3.9 0-2.8-3.2-4.7-6.4-6.4-2.9-1.6-5.8-3.2-5.8-5.5q0-1.3 1-2.3 1.1-1 2.6-1.6 1.6-0.6 3.2-0.6c2.4 0 3.9 0.5 4.8 1.1q0.7 0.5 1 0.8 0.2 0.2 0.2 0.3l0.1 0.1z"/><path class="a" d="m235.7 114.5h2.1l0.1 20h-2.2z"/><path class="a" d="m260 124.2c0 2.6-0.9 5.2-2.9 7.1-1.9 2-4.9 3.2-9 3.2h-6v-20h0.8v-0.1h5.1c8.2 0 12 4.2 12 9.8zm-6.9 8.3q2.2-1.3 3.5-3.5 1.3-2.2 1.3-4.9 0-2.7-1.3-4.7-1.3-2.1-3.5-3.2-2.3-1.1-5-1.1h-3.8v18.7h3.8q2.7 0 5-1.3z"/><path class="a" d="m276.8 115.1h-11.1v9h8.7v0.6h-8.7v9.2h11.1v0.6h-13.2v-0.1l-0.1-0.5h0.1l-0.1-9.5v-9.9h13.3z"/><path class="a" d="m294.6 114.4h0.7v20.1h-0.7l-13.6-16.9v16.9h-0.7v-20.1h0.7l13.6 16.8z"/><path class="a" d="m316.5 132.3c-1.9 1.4-4.2 2.5-6.8 2.5-3 0-5.7-1.1-7.7-3.1-1.9-1.9-3.1-4.5-3.1-7.3 0-2.8 1.2-5.3 3.1-7.3 2-1.9 4.7-3.1 7.7-3.1 2.6 0 4.9 1.2 6.8 2.5v1.9c-1.4-2-3.7-3.6-6.8-3.6-2.8 0-5 1.3-6.4 3.1q-1.2 1.4-1.7 3.1-0.6 1.7-0.6 3.4 0 1.7 0.5 3.4 0.6 1.7 1.7 3.1c1.5 1.9 3.6 3.1 6.5 3.1 3 0 5.3-1.7 6.8-3.6z"/><path class="a" d="m333.3 115.1h-11.1v9h8.7v0.6h-8.7v9.2h11.1v0.6h-13.2v-0.1l-0.1-0.5h0.1l-0.1-9.5v-9.9h13.3z"/><path class="a" d="m346.4 116.3c0 0-0.4-0.4-1.1-0.9-0.8-0.4-1.8-0.8-3.3-0.8-2.9 0-4.3 2.3-4.3 3.8 0 1.3 1 2.3 2.6 3.2q1.2 0.7 2.6 1.4c1.7 0.9 3.3 1.9 4.7 3 1.3 1 2.2 2.3 2.2 3.9 0 2.5-2.4 4.9-8.3 4.9-4.7 0-6.2-1.5-6.7-2.1l-0.1-0.3h2.3l0.1 0.2c0.1 0.3 0.4 0.7 1 1 0.7 0.4 1.8 0.7 3.4 0.7 4.1 0 6-2.2 6-3.9 0-2.8-3.3-4.7-6.4-6.4-3-1.6-5.8-3.2-5.8-5.5q0-1.3 1-2.3 1-1 2.6-1.6 1.5-0.6 3.1-0.6c2.4 0 4 0.5 4.9 1.1q0.7 0.5 1 0.8 0.1 0.2 0.2 0.3v0.1z"/><path class="a" d="m70.5 86.2c-6.2 4.6-14.2 8.6-22.8 8.6-10.1 0-19.2-4-25.9-10.6-6.7-6.5-10.8-15.2-10.8-24.5 0-9.4 4.1-18.1 10.8-24.6 6.7-6.5 15.8-10.5 25.9-10.5 8.6 0 16.6 3.9 22.8 8.5v6.1c-4.8-6.4-12.4-12-22.8-12-9.4 0-16.8 4.3-21.8 10.6q-3.8 4.8-5.7 10.5c-1.3 3.8-2 7.6-2 11.4q0 5.6 1.9 11.3 1.8 5.8 5.6 10.5c4.9 6.3 12.2 10.5 22 10.5 10.1 0 17.9-5.7 22.8-12.3z"/><path class="a" d="m127.1 28.2h-37.4l0.1 30.4h29.4v2.1h-29.4v30.7h37.3v2.1h-44.6v-0.2-1.9-31.9-33.4h44.6z"/><path class="a" d="m146.3 91.4h37.3v2.1h-44.5v-0.2l-0.1-1.9h0.1l-0.1-65.3h7.2z"/><path class="a" d="m240.1 28.2h-37.3v30.4h29.5v2.1h-29.5v30.7h37.3v2.1h-44.5v-0.2-1.9-31.9-33.4h44.5z"/><path class="a" d="m345.4 28.2h-27.7v65.3h-7.2v-65.3c-9.2-0.1-17.8-0.1-25.7-0.1h-15.4c-6.3 0-10.6 2.7-12.8 6.3-1.1 1.8-1.7 3.6-1.7 5.4 0 4.1 3.6 7.5 9 10.7 2.6 1.6 5.5 3.2 8.6 4.8 11.1 6 23.4 12.4 23.4 23.3 0 5.4-3.7 10.2-11.8 12.9-4.1 1.4-9.5 2.1-16.1 2.1-15.8 0-21.3-4.2-22.5-5.9q-0.2-0.3-0.3-0.3l-0.3-0.4h7.8l0.2 0.3c0.4 1.2 3.5 4.4 15 4.4 9.3 0 15.1-2.5 18-6q2.1-2.7 2.1-5.5c0-9.6-11-15.9-21.7-21.7-9.9-5.4-19.4-10.8-19.4-18.6 0-8.4 11.8-13.9 22.7-13.9h42 23.7c6.8 0.1 10.1 0.1 10.1 0.1z"/><path class="a" d="m392 93.5l-8.3-20.2c-3.8-0.2-7-0.7-9.5-1.5q-3.8-1-7-2.4c-2.1-0.9-4.4-1.6-6.8-2.3-2.5-0.8-5.5-1.2-9.1-1.4l-11 27.8h-4l27.2-67.5h8.3l27.1 67.5zm-39.9-30q6.1 0.4 10 1.5c2.7 0.7 5 1.5 7.2 2.4 3.6 1.5 7.6 2.9 13.3 3.4l-16.9-41.3z"/><path class="a" d="m506.8 73.3c-3.8-0.2-7-0.7-9.5-1.5q-3.8-1-7-2.4c-2.1-0.9-4.4-1.6-6.8-2.3-2.4-0.8-5.5-1.2-9.1-1.4l-10.9 27.5v0.3h-7.6c0-16.6-4.1-25.9-25-26.1h-0.1c-0.9 0-1.9 0.1-2.9 0.1h-9.8v26h-7.2v-28.2-39.3h17.3c14.8 0 24.4 4.3 29.2 10.8 2.3 3.3 3.5 6.9 3.5 10.8 0 9.4-6.8 16.4-20.8 18.9 6.8 1.2 12 3.6 15.6 7q5.3 5.2 6.9 12.1l24-59.6h8.3l27.1 67.5h-6.9zm-88.7-8h10c18.8 0 25.5-7.1 25.5-17.5 0-10.5-6.7-19.5-25.3-19.5h-10.2zm70.8-35.7l-13.6 33.9c4 0.3 7.3 0.8 10 1.5q3.9 1.1 7.1 2.4c3.7 1.5 7.6 2.9 13.4 3.5z"/></g></svg>