<?xml version="1.0" encoding="UTF-8"?>
<svg version="1.1" viewBox="0 0 2048 2048" width="1280" height="1280" xmlns="http://www.w3.org/2000/svg">
<path fill="#ffffff" transform="translate(1018,58)" d="m0 0h10l16 3 19 8 15 9 15 12 9 7 15 12 11 9 13 11 11 9 15 13 13 11 17 14 13 11 11 9 17 14 22 18 15 13 16 13 13 11 10 8 13 11 10 8 13 11 11 9 11 10 14 11 17 14 13 11 11 9 42 36 13 10 8 5 8 1h380l39 2 16 2 17 5 16 7 15 9 13 10 12 11v2h2l14 19 8 14 11 23 6 13 1 4v1335l-2 1-2-1-3 9-9 20-9 15-13 16-18 18-17 12-17 9-14 5-21 4-32 3-31 1h-1698l-23-1-17-2-19-4-16-6-16-9-11-8-14-12-10-10-13-18-12-22-8-15-3-2v-1345h2l2-6 14-29 12-19 9-11 8-9 8-7 14-10 17-10 18-7 15-3 25-2 44-1h185l181-1 9-3 12-9 13-11 11-9 11-10 11-9 10-9 11-9 11-10 14-11 13-11 11-9 14-12 13-11 11-9 15-13 34-28 11-9 14-12 11-9 13-11 14-12 17-14 12-10 11-9 15-13 11-9 15-13 10-8 12-10 18-13 10-7 14-8 13-6 11-3zm-2 62-7 3-9 7-4 6-2 5-1 8 2 9 7 12 8 7 10 3 8-1 10-4 8-7 6-13 1-7-3-11-6-8-8-6-6-3zm91 61-8 15-7 9-10 11-15 11-16 7-13 3-8 1h-14l-15-2-12-4-15-8-13-11-11-12-11-15-2-2-7 3-10 9-9 8-10 8-11 10-11 9-14 12-12 10-11 9-10 9-11 9-13 11-8 6-13 11-10 8-14 12-13 11-10 9-14 11-9 8-11 8-10 9-14 11-12 10-9 7-5 5-1 2h57l75 1h398l204-1v-3l-7-7-14-11-11-10-11-9-12-11-10-8-9-8-10-8-13-11-11-9-14-12-11-9-14-12-11-9-13-11-10-8-13-11-14-11-14-12-14-11-15-13-11-9-13-11-5-4zm-902 298-57 1-21 2-12 3-16 9-10 9-7 7-7 10-8 16-4 13-2 14-1 16-1 116v1122l1 24 4 25 7 16 11 15 4 5h2v2l14 11 11 6 22 5 14 1 45 1h1446l249-1 19-1 12-2 17-6 12-7 11-9 8-9 8-13 6-17 2-12 2-34v-1249l-2-18-4-16-7-14-10-13-7-7-13-9-14-6-12-3-18-2-22-1z"/>
<path fill="#ffffff" transform="translate(195,538)" d="m0 0h1688l22 1 9 2 6 4 6 12 1 11 1 867-1 407-1 13-4 6-7 3-13 2-38 1-1603 1h-113l-17-2-5-4-4-7-3-17-1-16v-559l1-11 4-7 6-5 7-3 5-1h18l10 3 8 5 2 6 1 34v126l-1 399 35-1 93-1h1549l9-1v-1007l1-200-15 1h-1672l1 3v505l-1 38-2 12-4 6-4 3-11 3-7 1h-11l-11-3-5-5-5-15-1-8-1-25v-48l1-361 1-137 3-16 5-8 4-3 9-2 13-1z"/>
<path fill="#ffffff" transform="translate(1378,1233)" d="m0 0h13l10 5 7 9 11 21 27 63 15 36 8 18 9 21 17 41 10 24 10 23 11 26 5 9v2l2-2-1-34v-162l1-56 1-17 3-12 7-8 8-5 3-1h8l13 4 10 6 5 6 2 6 1 18v373l-1 40-2 9-6 9-8 5-9 2h-13l-7-3-6-5-12-23-11-23-16-36-8-20-30-70-10-23-15-34-11-26-15-30-2-2 2 38v216l-2 20-4 11-5 6-11 3h-18l-11-4-6-7-3-11-2-21v-292l1-114 2-11 4-6 8-7z"/>
<path fill="#ffffff" transform="translate(1286,693)" d="m0 0h13l9 4 5 5 7 9 8 16 16 36 14 32 14 33 13 31 15 35 12 29 13 32 9 19 8 15v-193l1-76 2-10 4-6 6-5 11-4h10l13 3 9 5 3 5 2 10 1 25v138l-1 257-2 16-3 8-7 6-13 4-6 1h-8l-9-6-8-11-8-15-14-31-10-24-16-38-11-26-13-30-15-36-11-24-8-18-8-19-7-12-4-3 1 9 1 41v102l-1 116-2 8-4 7-6 5-9 3-14 1-12-5-7-6-5-9-1-6-1-18v-74l1-318 1-16 4-13 6-7z"/>
<path fill="#ffffff" transform="translate(869,692)" d="m0 0h10l10 5 5 5 7 10 11 22 11 26 24 56 10 23 8 13 2-2 9-24 15-36 20-45 18-38 7-9 8-5h11l15 6 8 6 4 7 1 4v424l-1 14-3 7-5 5-11 4-4 1h-15l-9-3-8-9-3-11-1-10-1-29v-219l-2-9-3-1-3 9-11 28-14 28-7 10-4 5-4 3-5 1-12-2-8-4-8-7-7-10-8-16-8-18-13-25-5-4 2 9 2 35v116l-1 110-2 9-4 6-5 5-9 3-6 1h-12l-11-4-6-5-4-15-1-8-1-80v-335l4-14 6-9 14-9z"/>
<path fill="#ffffff" transform="translate(855,1235)" d="m0 0h40l17 4 16 6 16 10 13 12 7 7 11 15 11 21 5 18 2 16 1 14v199l-1 33-2 25-3 16-5 13-12 19-9 11-5 6-14 11-14 9-15 6-18 4-7 1h-34l-17-3-15-5-14-7-13-10-14-14-7-10-8-13-7-15-5-17-2-11-1-12v-236l1-16 3-18 7-19 7-13 8-12 15-16 14-11 16-9 13-5 14-3zm6 59-11 4-11 7-8 7-11 16-4 9-1 9-1 22-1 137v89l2 13 4 12 7 11 12 12 15 7 16 4h15l15-6 11-7 13-13 4-7 3-13 2-24 1-231-4-19-7-14-9-10-8-7-12-6-8-2z"/>
<path fill="#ffffff" transform="translate(1167,1234)" d="m0 0h16l18 2 15 4 17 8 14 10 13 12 11 13 8 13 8 17 4 13 2 22v234l-1 22-3 20-5 17-9 17-11 14-8 9h-2v2l-12 9-13 8-15 6-18 4-23 2-21-1-21-5-16-7-14-9-10-9-9-9-11-16-10-21-5-16-3-20-1-16v-229l3-23 4-15 7-16 11-18 10-11 6-7 13-10 15-9 14-6 19-4zm-3 60-11 3-13 7-11 10-9 13-4 9-1 6-1 18-1 133v99l3 21 5 12 9 10 10 8 16 7 13 3h14l16-6 13-9 9-10 8-15 2-8 1-12 1-240-2-14-4-11-7-11-11-12-11-7-13-4z"/>
<path fill="#ffffff" transform="translate(646,694)" d="m0 0h33l16 3 16 5 17 9 13 10 7 6 7 8 10 14 10 19 5 16 3 24 1 24v122l-1 84-2 34-3 17-5 14-10 17-9 12-10 10-9 8-12 8-16 7-22 6-16 2h-9l-24-3-18-5-19-10-14-10-13-13-12-17-9-19-5-17-2-12-1-13-1-55v-118l1-72 3-21 4-15 11-22 7-10 9-11 8-8 15-11 17-9 13-5zm9 60-13 4-14 7-6 5-10 14-6 12-2 15-1 37v208l3 17 4 10 9 11 7 6 16 8 13 4 4 1h13l12-4 15-8 11-11 7-10 3-9 2-20v-249l-4-13-7-11-9-10-11-8-12-5-5-1z"/>
<path fill="#ffffff" transform="translate(1668,694)" d="m0 0h29l17 3 18 6 15 8 11 8 10 9 8 9 10 15 8 16 6 16 3 17v20l-3 8-5 6-12 5-8 2h-11l-7-2-5-4-5-11-5-19-5-14-5-10-8-11-8-7-14-7-8-2h-18l-14 4-14 7-4 4h-2v2h-2l-2 4-7 10-4 12-2 19-1 115v122l2 15 5 14 6 9 8 7 14 7 11 4 10 2h12l16-6 10-6 8-7 9-14 4-11 2-12 1-17v-41l-1-30-2-4-28-2-17-4-5-5-4-8-2-10 1-10 6-12 7-6 9-2 14-1h43l16 1 12 3 6 4 5 10 1 4 1 64v34l-1 34-3 23-5 16-8 17-12 16-5 6-8 7-9 8-13 8-14 6-20 5-15 2h-21l-14-2-15-4-16-7-14-9-10-9-9-9-10-14-8-15-6-15-4-18-2-16v-242l3-23 7-21 7-14 8-12 12-13 9-9 13-9 19-10 15-5z"/>
<path fill="#ffffff" transform="translate(555,1235)" d="m0 0h35l21 4 15 6 13 7 12 9 13 13 10 14 8 14 6 15 4 14 2 11v16l-6 12-9 8-8 4-5 2h-9l-10-5-7-8-9-29-6-15-7-12-5-6-10-7-8-4-11-3h-23l-11 4-11 7-10 9-8 14-4 8-2 10v16l4 13 10 16 12 12 8 7 13 11 8 7 10 9 8 7 14 12 11 10 15 12v2l4 2 16 15 10 10 9 11 7 10 8 14 5 11 5 15 2 11v26l-4 20-6 15-8 14-12 17-11 12-12 9-21 11-13 4-17 3-12 1h-11l-21-2-19-5-16-8-9-6-12-11-9-10-12-18-8-16-6-19-3-16v-11l4-10 6-8 10-6 7-2 8-1 9 2 6 4 6 8 3 10 6 23 8 16 7 9 8 7 20 8 10 2h14l18-8 10-8 5-5 6-7 5-11 3-11 1-14-3-13-8-16-7-9-9-9-8-7-10-9-13-11-10-9-8-7-14-12-10-9-11-9-12-11-8-7-15-15-12-16-8-13-7-16-5-18-2-15v-10l3-19 6-18 8-17 10-15 14-15 13-10 19-10 15-5z"/>
<path fill="#ffffff" transform="translate(348,694)" d="m0 0h30l13 2 18 5 19 10 11 8 5 4 7 8 9 11 10 16 7 16 5 19 1 5v22l-3 9-6 7-15 7-10 1-9-3-7-6-5-10-11-33-7-14-9-10-10-7-12-5-5-1h-19l-11 3-14 7-9 7-6 9-7 14-3 13-1 50v194l3 18 5 12 9 12 7 6 15 8 15 4h13l15-5 11-6 10-9 8-10 7-26 4-16 7-11 5-3 5-1h10l14 3 11 6 4 6 1 4v26l-4 19-4 11-10 17-9 13-5 6h-2l-2 4-10 9-14 9-13 6-21 6-22 3-19-1-20-4-16-6-15-8-14-11-10-10-10-14-10-18-5-13-4-19-2-23v-230l2-24 5-17 9-19 8-12 9-11 10-10 13-10 18-10 16-6z"/>
<path fill="#ffffff" transform="translate(1173,694)" d="m0 0 12 1 8 4 6 7 3 9 1 5 1 23v331l-1 70-3 14-4 6-6 5-7 2h-19l-10-4-6-5-4-10-2-16v-313l1-102 4-16 6-6 13-4z"/>
<path fill="#ffffff" transform="translate(2047,1883)" d="m0 0h1v8l-2-1z"/>
<path fill="#ffffff" transform="translate(2045,1879)" d="m0 0"/>
<path fill="#ffffff" transform="translate(2047,533)" d="m0 0"/>
<path fill="#ffffff" transform="translate(2047,517)" d="m0 0"/>
</svg>
