<?xml version="1.0" encoding="UTF-8"?><svg id="Layer_1" xmlns="http://www.w3.org/2000/svg" viewBox="0 0 845.8 609.88"><defs><style>.cls-1{fill:#231f20;stroke-width:0px;}</style></defs><path class="cls-1" d="M603.91,121.99c-15.84-8.13-34.78-12.26-56.3-12.26h-91.01v207.8h91.01c21.14,0,39.94-4.26,55.86-12.65,15.83-8.34,28.24-20.46,36.89-36.01,8.69-15.62,13.09-34.3,13.09-55.51s-4.36-40.39-12.96-55.92c-8.55-15.45-20.86-27.38-36.58-35.45ZM594.67,263.48c-11.35,12.17-27.18,18.33-47.05,18.33h-50.87v-136.35h50.87c19.86,0,35.69,6.07,47.04,18.05,11.31,11.93,17.04,28.62,17.04,49.59s-5.73,38.27-17.03,50.38Z"/><polygon class="cls-1" points="46.46 189.95 43.34 189.95 43.34 186.81 43.34 109.74 3.2 109.74 3.2 317.53 43.34 317.53 43.34 232.33 43.34 229.19 46.46 229.19 141.67 229.19 144.8 229.19 144.8 232.33 144.8 317.53 185.21 317.53 185.21 109.74 144.8 109.74 144.8 186.81 144.8 189.95 141.67 189.95 46.46 189.95"/><polygon class="cls-1" points="321.03 201.44 318.43 197.48 260.83 109.74 216.83 109.74 300.45 236.01 300.97 236.8 300.97 237.75 300.97 317.53 341.38 317.53 341.38 237.75 341.38 236.81 341.9 236.02 425.26 109.74 381.52 109.74 323.64 197.48 321.03 201.44"/><polygon class="cls-1" points="842 278.29 725.37 278.29 722.24 278.29 722.24 275.15 722.24 234.77 722.24 231.63 725.37 231.63 842 231.63 842 194.55 725.37 194.55 722.24 194.55 722.24 191.41 722.24 152.12 722.24 148.98 725.37 148.98 842 148.98 842 109.73 682.1 109.73 682.1 317.53 842 317.53 842 278.29"/><path class="cls-1" d="M5.14,412.08v-41.74h19.02c7.87,0,13.3,4.71,13.3,11.51,0,4.95-3.34,9.12-8.41,10.73,2.21.6,3.76,2.03,4.53,4.11l5.78,15.38h-5.37l-5.37-14.49c-.66-1.79-2.09-2.74-4.05-2.74h-14.43v17.23h-5.01ZM10.15,390.38h14.25c5.19,0,7.99-3.58,7.99-8.05,0-4.89-3.46-7.39-7.99-7.39h-14.25v15.44Z"/><path class="cls-1" d="M98.21,412.08v-41.74h28.5v4.59h-23.55v13.18h21.17v4.47h-21.17v14.91h24.09v4.59h-29.04Z"/><path class="cls-1" d="M184.96,399.44h5.25c.6,5.37,5.67,8.77,13,8.77,6.38,0,9.72-2.62,9.72-6.98s-3.7-5.84-7.69-7.1l-7.21-2.27c-3.34-1.07-11.75-2.86-11.75-11.03,0-6.74,5.54-11.15,14.19-11.15,9.54,0,15.44,4.83,16.1,13.71h-5.19c-.42-5.9-4.53-9.18-11.15-9.18-5.25,0-8.94,2.38-8.94,6.38,0,4.59,4.77,5.55,8.35,6.68l6.74,2.09c5.31,1.67,11.69,3.76,11.69,11.63,0,7.33-5.6,11.75-14.85,11.75-10.49,0-17.71-5.43-18.25-13.3Z"/><path class="cls-1" d="M277.44,412.08v-41.74h5.01v41.74h-5.01Z"/><path class="cls-1" d="M344.39,412.08v-41.74h14.73c11.99,0,20.33,8.47,20.33,20.63s-8.35,21.11-20.33,21.11h-14.73ZM349.4,407.49h10.02c8.65,0,14.73-6.8,14.73-16.52,0-9-6.08-16.04-14.73-16.04h-10.02v32.56Z"/><path class="cls-1" d="M439.49,412.08v-41.74h28.5v4.59h-23.55v13.18h21.17v4.47h-21.17v14.91h24.09v4.59h-29.04Z"/><path class="cls-1" d="M528.33,412.08v-41.74h5.72l23.61,34.58v-34.58h5.01v41.74h-5.72l-23.61-34.58v34.58h-5.01Z"/><path class="cls-1" d="M622.71,391.09c0-12.4,7.57-21.41,20.39-21.41,10.61,0,17.89,6.2,19.68,16.7h-5.19c-1.55-7.63-6.92-12.1-14.49-12.1-9.36,0-15.15,6.5-15.15,16.82s5.78,17.05,15.15,17.05c7.81,0,12.88-4.23,14.49-12.1h5.19c-1.85,10.85-8.77,16.7-19.68,16.7-12.82,0-20.39-9-20.39-21.64Z"/><path class="cls-1" d="M722.76,412.08v-41.74h28.5v4.59h-23.55v13.18h21.17v4.47h-21.17v14.91h24.09v4.59h-29.04Z"/><path class="cls-1" d="M809.51,399.44h5.25c.6,5.37,5.66,8.77,13,8.77,6.38,0,9.72-2.62,9.72-6.98s-3.7-5.84-7.69-7.1l-7.22-2.27c-3.34-1.07-11.75-2.86-11.75-11.03,0-6.74,5.55-11.15,14.19-11.15,9.54,0,15.44,4.83,16.1,13.71h-5.19c-.42-5.9-4.53-9.18-11.15-9.18-5.25,0-8.94,2.38-8.94,6.38,0,4.59,4.77,5.55,8.35,6.68l6.74,2.09c5.31,1.67,11.69,3.76,11.69,11.63,0,7.33-5.6,11.75-14.85,11.75-10.49,0-17.71-5.43-18.25-13.3Z"/><path class="cls-1" d="M5.14,499.49v-41.74h14.73c11.99,0,20.33,8.47,20.33,20.63s-8.35,21.11-20.33,21.11H5.14ZM10.15,494.9h10.02c8.65,0,14.73-6.8,14.73-16.52,0-9-6.08-16.04-14.73-16.04h-10.02v32.56Z"/><path class="cls-1" d="M77.82,485.48v-27.73h5.01v27.61c0,6.62,5.25,10.14,11.63,10.14s11.63-3.52,11.63-10.14v-27.61h5.01v27.73c0,7.93-5.9,14.73-16.64,14.67-10.79,0-16.64-6.74-16.64-14.67Z"/><path class="cls-1" d="M150.68,499.49v-41.74h19.14c7.27,0,12.34,4.29,12.34,10.49,0,4.47-3.16,8.17-8.05,9.72,5.43,1.07,9,5.01,9,10.14,0,6.74-5.25,11.39-12.82,11.39h-19.62ZM155.63,476h13.89c4.47,0,7.57-2.98,7.57-7.21,0-3.82-2.8-6.44-6.8-6.44h-14.67v13.65ZM155.63,494.9h15.21c4.17,0,7.1-2.98,7.1-7.33,0-4.65-3.64-7.1-8.11-7.1h-14.19v14.43Z"/><path class="cls-1" d="M217.64,499.49l17.17-41.74h5.07l17.23,41.74h-5.19l-4.89-11.93h-19.32l-4.89,11.93h-5.19ZM229.62,483.03h15.5l-7.75-18.9-7.75,18.9Z"/><path class="cls-1" d="M293.65,499.49v-41.74h5.01v41.74h-5.01Z"/><path class="cls-1" d="M562.73,499.49v-41.74h5.01v17.95h25.64v-17.95h5.01v41.74h-5.01v-19.2h-25.64v19.2h-5.01Z"/><path class="cls-1" d="M638.33,499.49v-41.74h5.01v41.74h-5.01Z"/><path class="cls-1" d="M683.23,499.49v-41.74h5.01v37.15h22.36v4.59h-27.37Z"/><path class="cls-1" d="M747.86,499.49v-41.74h5.01v37.15h22.36v4.59h-27.37Z"/><path class="cls-1" d="M809.33,486.85h5.25c.6,5.37,5.67,8.77,13,8.77,6.38,0,9.72-2.62,9.72-6.98s-3.7-5.84-7.69-7.1l-7.21-2.27c-3.34-1.07-11.75-2.86-11.75-11.03,0-6.74,5.54-11.15,14.19-11.15,9.54,0,15.44,4.83,16.1,13.71h-5.19c-.42-5.9-4.53-9.18-11.15-9.18-5.25,0-8.94,2.38-8.94,6.38,0,4.59,4.77,5.55,8.35,6.68l6.74,2.09c5.31,1.67,11.69,3.76,11.69,11.63,0,7.33-5.6,11.75-14.85,11.75-10.49,0-17.71-5.43-18.25-13.3Z"/></svg>