<?xml version="1.0" encoding="UTF-8"?><svg id="Layer_1" xmlns="http://www.w3.org/2000/svg" viewBox="0 0 841.89 278"><defs><style>.cls-1{fill:#231f20;stroke-width:0px;}</style></defs><path class="cls-1" d="M512.69,232.92c-2.57-1.3-5.61-1.96-9.12-1.96s-6.52.66-9.1,1.96c-2.57,1.3-4.59,3.13-5.99,5.53-1.43,2.37-2.12,5.2-2.12,8.46s.71,6.09,2.12,8.46,3.39,4.23,5.96,5.53,5.61,1.96,9.1,1.96,6.55-.66,9.12-1.96c2.57-1.3,4.56-3.16,5.96-5.56,1.43-2.4,2.12-5.2,2.12-8.44s-.71-6.09-2.12-8.46-3.39-4.23-5.96-5.53h.03ZM512.25,255.37c-2.09,2.04-4.97,3.06-8.69,3.06s-6.65-1.02-8.74-3.03-3.13-4.84-3.13-8.49,1.04-6.45,3.13-8.49c2.09-2.01,4.99-3.03,8.72-3.03s6.65,1.02,8.72,3.03c2.06,2.04,3.11,4.84,3.11,8.49s-1.04,6.42-3.13,8.46h.03Z"/><path class="cls-1" d="M458.07,250.22h9.4v6.24c-2.57,1.33-5.76,1.99-9.56,1.99s-6.86-.99-8.97-3.01c-2.12-1.99-3.19-4.84-3.19-8.51s.99-6.42,2.98-8.51c1.99-2.06,4.82-3.11,8.51-3.11,2.45,0,4.41.43,5.94,1.33,1.5.87,2.62,2.22,3.34,4l5.1-.76c-.92-2.8-2.57-4.99-4.97-6.57-2.42-1.58-5.5-2.37-9.28-2.37-3.36,0-6.32.64-8.87,1.94s-4.51,3.13-5.94,5.53-2.12,5.28-2.12,8.61.71,6.12,2.12,8.49,3.41,4.18,6.01,5.43,5.71,1.89,9.3,1.89c2.78,0,5.43-.36,7.98-1.1,2.55-.74,4.69-1.76,6.45-3.11v-12.59h-14.19v4.15l-.05.05Z"/><rect class="cls-1" x="419.93" y="231.72" width="5.15" height="30.35"/><polygon class="cls-1" points="374.49 245.38 364.83 231.72 358.84 231.72 371.81 249.54 371.81 262.07 376.93 262.07 376.93 249.54 389.91 231.72 384.17 231.72 374.49 245.38"/><path class="cls-1" d="M342.35,246.02c3.29-1.1,4.92-3.26,4.92-6.5,0-5.17-4.03-7.77-12.1-7.77h-13.99v30.35h14.58c4.15,0,7.31-.74,9.48-2.24s3.24-3.7,3.24-6.55c0-3.49-2.04-5.91-6.12-7.26v-.03ZM326.09,235.8h8.79c2.52,0,4.36.33,5.5.97s1.73,1.66,1.73,3.08c0,1.53-.54,2.65-1.63,3.36-1.1.71-2.8,1.07-5.17,1.07h-9.23v-8.49ZM341.41,256.87c-1.22.74-3.21,1.12-5.94,1.12h-9.35v-9.79h9.43c2.6,0,4.54.41,5.81,1.22s1.89,2.09,1.89,3.77-.61,2.88-1.83,3.64v.03Z"/><polygon class="cls-1" points="239.68 21.56 151.81 21.56 147.17 21.58 147.17 153.31 231.68 153.31 238.15 144.72 166.87 144.72 166.9 81.9 230.71 81.9 237.18 73.8 166.9 73.8 166.87 29.69 231.68 29.69 239.68 21.56"/><path class="cls-1" d="M70.16,21.15H18.46v132.16h20.29v-32.16h31.42c30.1,0,57.72-22.04,57.72-49.26v-1.48c0-27.22-27.62-49.29-57.72-49.29v.03ZM107.78,71.91h0c0,22.58-14.02,40.88-37.61,40.88h-31.42V29.48h31.42c23.6,0,37.61,18.3,37.61,40.88v1.55Z"/><path class="cls-1" d="M508.76,96.02h25.43v33.49c-2.37,6.7-11.82,14.68-23.16,16.56-28.31,4.74-53.85-23.65-57.24-56.19-3.03-29,7.98-57.11,36.29-61.85,18.58-3.11,36.85,5.61,48.88,21.13l9.38-7.36c-11.75-14.04-28.8-22.94-47.81-22.94-35.35,0-67.02,26.2-67.02,71.02,0,37.61,31.68,65.37,67.02,65.37,14.58,0,26.58-5.5,33.64-14.02v11.37h20.11v-64.68h-49.31l3.77,8.1h.03Z"/><path class="cls-1" d="M778.41,80.45c-22.17-8.03-36.19-11.39-39.19-24.44-1.63-7.11,2.06-27.27,30.4-27.27,17.28,0,29.76,9.61,37.67,21.79l11.77-4.41c-10.27-15.9-27.42-24.26-49.82-24.26-33.28,0-47.32,21.33-47.32,34.79,0,24.52,24.69,32.34,45.06,39.7,23.04,8.33,38.96,13.43,38.86,28.01-.1,14.76-13.84,24.36-29.74,24.36-26.4,0-36.77-12.23-39.91-26.25l-12.72,2.55c5.17,21.08,23.62,31.73,49.23,31.73s50.74-9.15,50.74-34.33c0-22.35-24.03-34.38-45.06-41.97h.03Z"/><path class="cls-1" d="M366.08,110.5c11.95,0,23.34-4.84,31.85-12.67l.2,9.33h14.3V24.49h-9.68l-5.02,9.58c-8.49-7.72-19.8-12.49-31.65-12.49-24.26,0-47.35,19.93-47.35,44.44s23.09,44.44,47.35,44.44v.03ZM363.17,29.56c15.8-2.06,28.52,7.95,33.23,23.57.79,2.6,1.38,5.33,1.71,8.18.48,4.33.36,8.61-.31,12.67-2.37,14.83-11.93,26.83-26.4,28.72-18.42,2.4-33.59-11.77-35.86-31.93-2.27-20.18,9.17-38.81,27.62-41.21h0Z"/><path class="cls-1" d="M639.52,18.78c-35.35,0-67.05,30.61-67.05,68.19s31.7,68.19,67.05,68.19,67.43-30.61,67.43-68.22-32.11-68.17-67.43-68.17h0ZM649.99,145.99c-28.31,4.74-51.25-17.89-57.03-50.43-5.78-32.54,7.77-62.87,36.08-67.58s52.04,16.69,57.82,49.23c5.78,32.54-8.56,64.04-36.87,68.78h0Z"/><path class="cls-1" d="M364.98,146.76c-11.24,0-20.49-1.96-29.43-3.87-8.66-1.83-17.63-3.75-27.98-3.75-8.56,0-17.84,1.22-26.63,2.96V20.56h-20.26l-.05,135.42c10.5-3.21,35.27-7.31,46.94-6.83,9.28.38,17.35,1.71,25.87,3.54,9.45,2.01,19.24,4.1,31.55,4.1,18.35,0,35.47-6.75,47.48-13.56v-8.56c-25.05,12.77-47.48,12.08-47.48,12.08h0Z"/></svg>