<?xml version="1.0" encoding="UTF-8"?><svg id="Layer_1" xmlns="http://www.w3.org/2000/svg" viewBox="0 0 785.69 612.14"><defs><style>.cls-1{fill:#231f20;stroke-width:0px;}</style></defs><path class="cls-1" d="M654.66,289.23c.34-.07.55-.34.75-.6.16-.22.29-.4.28-.68-.01-.25-.12-.5-.26-.7-.33-.44-.85-.58-1.3-.3-.04.02-.08.05-.12.08-.02.02-.04.04-.06.06-.46.5-.69,1.28-.18,1.83.22.24.56.38.89.31"/><path class="cls-1" d="M62.43,393.79c13.31-2.29,22.25-12.48,22.25-32.86,0-23.09-12.06-38.27-40.35-38.27H10.85v131.03h25.38v-49.92h5.41c11.23,0,13.94,7.07,14.77,20.59.83,16.43,1.25,23.71,3.12,29.33h25.59c-3.12-6.45-2.91-13.73-3.95-30.37-.83-16.22-4.79-26.41-18.72-29.54M40.8,383.39h-4.57v-39.94h4.57c13.73,0,18.51,7.07,18.51,19.97,0,14.56-4.78,19.97-18.51,19.97"/><path class="cls-1" d="M219.24,380.48l-11.85-7.49c-6.66-4.16-10.61-8.53-10.61-17.26s3.54-14.14,10.82-14.14c8.32,0,12.06,6.24,12.06,18.1v7.7h22.67v-7.49c0-25.17-12.06-38.89-34.73-38.89-21.01,0-34.53,14.56-34.53,36.4s11.23,30.78,23.92,38.69l10.82,6.86c7.9,5.2,12.9,8.53,12.9,17.89,0,8.74-3.95,13.94-11.86,13.94-8.74,0-13.31-7.07-13.31-18.3v-7.9h-22.88v7.49c0,26.21,14.14,39.31,36.19,39.31s35.78-13.1,35.78-36.61c0-20.18-10.19-29.33-25.38-38.27"/><rect class="cls-1" x="253.45" y="322.65" width="25.79" height="131.03"/><path class="cls-1" d="M327.14,322.65h-35.57v131.03h35.57c27.87,0,39.94-18.93,39.94-54.7v-21.63c0-35.78-12.06-54.7-39.94-54.7M340.87,406.68c0,18.3-4.57,26.62-16.85,26.62h-6.65v-90.26h6.65c12.27,0,16.85,8.32,16.85,26.62v37.02Z"/><polygon class="cls-1" points="509.25 391.71 508.42 391.71 480.55 322.65 456.84 322.65 456.84 453.69 480.76 453.69 480.76 377.36 481.59 377.36 513.62 453.69 533.17 453.69 533.17 322.65 509.25 322.65 509.25 391.71"/><path class="cls-1" d="M580.09,320.99c-28.29,0-39.1,20.59-39.1,57.82v18.72c0,37.23,10.82,57.82,39.1,57.82s36.19-20.8,36.19-52.21v-5.41h-25.17v11.86c0,15.18-1.66,24.75-11.65,24.75s-11.86-9.57-11.86-24.75v-42.85c0-15.18,2.08-24.75,11.86-24.75s11.65,9.57,11.65,24.75v11.86h25.17v-5.41c0-31.41-8.94-52.21-36.19-52.21"/><path class="cls-1" d="M751.54,380.48l-11.85-7.49c-6.66-4.16-10.61-8.53-10.61-17.26s3.54-14.14,10.82-14.14c8.32,0,12.06,6.24,12.06,18.1v7.7h22.67v-7.49c0-25.17-12.06-38.89-34.73-38.89-21.01,0-34.53,14.56-34.53,36.4s11.23,30.78,23.92,38.69l10.82,6.86c7.9,5.2,12.9,8.53,12.9,17.89,0,8.74-3.95,13.94-11.86,13.94-8.74,0-13.31-7.07-13.31-18.3v-7.9h-22.88v7.49c0,26.21,14.14,39.31,36.19,39.31s35.78-13.1,35.78-36.61c0-20.18-10.19-29.33-25.38-38.27"/><path class="cls-1" d="M128.07,320.91c-28.32,0-39.15,20.62-39.15,57.89v18.74c0,37.27,10.83,57.89,39.15,57.89s36.23-18.49,36.23-49.93v-5.06h-25.19v9.18c0,15.2-1.67,24.78-11.66,24.78s-11.87-9.58-11.87-24.78v-16.48h48.73v-18.32h0c-.14-31.05-9.15-53.91-36.23-53.91M139.11,374.82h-23.53v-8.1c0-15.2,2.08-24.78,11.87-24.78s11.66,9.58,11.66,24.78v8.1Z"/><path class="cls-1" d="M413.06,320.91c-28.32,0-39.15,20.62-39.15,57.89v18.74c0,37.27,10.83,57.89,39.15,57.89s36.24-18.49,36.24-49.93v-5.06h-25.2v9.18c0,15.2-1.67,24.78-11.66,24.78s-11.87-9.58-11.87-24.78v-16.48h48.73v-18.32h0c-.13-31.05-9.15-53.91-36.23-53.91M424.1,374.82h-23.53v-8.1c0-15.2,2.08-24.78,11.87-24.78s11.66,9.58,11.66,24.78v8.1Z"/><path class="cls-1" d="M663.37,320.91c-.38,0-.75,0-1.12.01-.1-1.95-.17-3.94.03-5.88,6.9,1.27,16.11.13,20.59-5.22,2.09.33,4.2.49,6.28.44.48-.01.48-.7,0-.69-2.05.06-4.13-.1-6.19-.44-.09-.04-.19-.06-.29-.05-3.46-.59-6.86-1.66-10-3.07-5.29-2.37-10.6-6.18-11.93-12.14,0-.02,0-.05-.01-.07,0-.03-.01-.06-.03-.09-.93-3.33-.24-6.62-2.25-9.64-1.26-1.9-2.87-2.26-5.01-1.46-2.57.96-3.05,2.59-4.01,4.9-.7,1.69-2.72,2.49-4.19,3.45-.26.17-.24.57.09.64,1.13.26,2.26.51,3.39.77.72.16,1.43.32,2.15.49.04,0,.06.01.09.01,0,.03-.01.07-.01.12-.03,1.7-.03,3.39-.02,5.09-.46,6.83,1.26,13.97,8.6,16.26.64.2,1.33.38,2.03.53,0,.03-.02.05-.03.08-.22,1.97-.14,3.98-.04,5.96,0,0,0,0,0,0-26.92.9-37.27,21.42-37.27,57.86v18.74c0,37.27,10.83,57.89,39.15,57.89s36.24-18.49,36.24-49.93v-5.06h-25.2v9.18c0,15.2-1.67,24.78-11.66,24.78s-11.87-9.58-11.87-24.78v-16.48h48.73v-18.32h0c-.13-31.05-9.15-53.91-36.23-53.91M655.17,285.8c.46.2.9.53,1.18.96.31.47.29.88.21,1.41-.1.65-.13,1.38-.63,1.87-.46.45-1.15.53-1.75.35-1.54-.47-1.92-2.28-1.51-3.67h0s.01-.05.02-.07c0-.03.02-.05.04-.08.44-1,1.47-1.2,2.44-.77M651.61,300.72l8.09-5.94c-.83,3.66.14,8.73,1.55,11.91,2.26,5.09,8.81,6.13,13.6,4.79.47-.13.25-.79-.2-.67-5.37,1.5-11.59-.24-13.26-6-.79-2.74-1.57-6.45-1.03-9.49,1.73,5.25,6.55,8.8,11.43,11.08,3.2,1.49,6.69,2.64,10.25,3.29-4.95,5.58-15.61,6-22.11,4.07-6.17-1.83-8.19-7.32-8.32-13.04M674.41,374.82h-23.53v-8.1c0-15.2,2.08-24.78,11.87-24.78s11.66,9.58,11.66,24.78v8.1Z"/><path class="cls-1" d="M95.18,211.4c22.3-3.83,37.28-20.9,37.28-55.05,0-38.67-20.21-64.1-67.59-64.1H8.78v219.49h42.5v-83.61h9.06c18.81,0,23.34,11.84,24.73,34.49,1.4,27.53,2.09,39.72,5.23,49.13h42.85c-5.23-10.8-4.88-22.99-6.62-50.86-1.39-27.18-8.01-44.25-31.36-49.48M58.95,193.98h-7.67v-66.89h7.67c23,0,31.01,11.84,31.01,33.44,0,24.39-8.01,33.45-31.01,33.45"/><rect class="cls-1" x="146.04" y="92.25" width="43.2" height="219.49"/><path class="cls-1" d="M261.37,314.53c36.23,0,59.92-21.95,59.92-61.32,0-33.8-17.07-49.12-42.5-64.11l-19.86-12.54c-11.15-6.97-17.77-14.29-17.77-28.92s5.92-23.69,18.12-23.69c13.94,0,20.21,10.45,20.21,30.31v12.89h37.97v-12.54c0-42.16-20.21-65.15-58.18-65.15-35.19,0-57.83,24.39-57.83,60.97s18.81,51.56,40.07,64.8l18.12,11.5c13.24,8.71,21.6,14.28,21.6,29.96,0,14.63-6.62,23.34-19.86,23.34-14.63,0-22.3-11.84-22.3-30.66v-13.24h-38.32v12.54c0,43.9,23.69,65.85,60.62,65.85"/><path class="cls-1" d="M392.45,89.46c-47.39,0-65.5,34.49-65.5,96.86v31.35c0,62.36,18.11,96.86,65.5,96.86s60.62-30.93,60.62-83.54v-8.47h-42.16v15.36c0,25.43-2.79,41.46-19.51,41.46s-19.86-16.03-19.86-41.46v-27.57h81.53v-30.65h-.01c-.22-51.95-15.31-90.2-60.61-90.2M410.92,179.66h-39.37v-13.55c0-25.43,3.48-41.46,19.86-41.46s19.51,16.03,19.51,41.46v13.55Z"/><path class="cls-1" d="M10.34,508.04v-34.91h14.42c7.21,0,11.32,3.6,11.32,9.63,0,4.22-2.48,8.11-6.93,8.84,4.95.62,8.45,4.34,8.45,9.57,0,7.04-4.73,11.38-13.01,11.38h-14.25v-4.51ZM23.29,489.39c4.34,0,6.7-2.19,6.7-5.74s-2.31-5.8-6.53-5.8h-7.21v11.54h7.04ZM23.79,507.58c4.84,0,7.77-2.42,7.77-6.7s-3.04-6.76-7.94-6.76h-7.38v13.46h7.55Z"/><path class="cls-1" d="M59.24,517.5l3.83-8.05-8.78-19.37q-1.13-2.59-2.19-4.96h6.36q1.07,2.65,2.08,5.01l5.8,12.84,5.46-12.61q1.24-2.98,2.14-5.24h6.25l-2.31,5.24-14.59,32.33h-6.48l2.42-5.18Z"/><path class="cls-1" d="M119.42,507.81v-7.04c3.38,4.62,7.88,7.1,13.18,7.1,4.51,0,7.38-2.31,7.38-5.75,0-2.59-1.52-4.51-4.84-5.85l-7.1-2.99c-5.29-2.19-7.55-5.58-7.55-10.08,0-6.53,5.24-10.93,12.45-10.93,4.95,0,8.84,1.47,11.82,4.06v6.65c-2.76-3.33-7.32-5.3-11.71-5.3-3.83,0-6.36,2.03-6.36,5.13,0,2.19,1.24,3.88,4.62,5.29l7.1,2.87c5.18,2.08,7.77,5.74,7.77,10.64,0,7.15-5.52,11.77-13.85,11.77-5.52,0-9.8-1.86-12.89-5.58Z"/><path class="cls-1" d="M165.56,481.12c0-5.01,4.67-8.84,10.81-8.84,6.59,0,11.21,3.66,11.21,8.9,0,3.88-2.87,7.26-8.34,10.3l8.67,9.12c1.07-2.42,1.52-5.58,1.58-9.35h5.01c0,5.18-1.07,9.91-2.99,13.18l7.66,8.11h-7.6l-3.55-3.72c-2.99,2.93-6.93,4.56-12.27,4.56-7.38,0-13.35-4.73-13.35-10.76,0-5.07,2.31-8.05,8.9-11.43l-.45-.51c-3.72-3.89-5.29-6.31-5.29-9.57ZM176.6,508.48c3.66,0,6.42-1.18,8.11-3.15l-10.48-11.1c-3.88,2.25-5.68,4.45-5.68,7.66,0,3.71,3.43,6.59,8.05,6.59ZM175.92,487.93l.45.45c4.28-2.65,5.69-4.45,5.69-7.15,0-2.87-2.08-4.79-5.46-4.79-2.87,0-4.96,1.52-4.96,4.45,0,1.97.84,3.38,4.28,7.04Z"/><path class="cls-1" d="M213.17,507.81v-7.04c3.38,4.62,7.88,7.1,13.18,7.1,4.51,0,7.38-2.31,7.38-5.75,0-2.59-1.52-4.51-4.84-5.85l-7.1-2.99c-5.29-2.19-7.55-5.58-7.55-10.08,0-6.53,5.24-10.93,12.45-10.93,4.95,0,8.84,1.47,11.82,4.06v6.65c-2.76-3.33-7.32-5.3-11.71-5.3-3.83,0-6.36,2.03-6.36,5.13,0,2.19,1.24,3.88,4.61,5.29l7.1,2.87c5.18,2.08,7.77,5.74,7.77,10.64,0,7.15-5.52,11.77-13.85,11.77-5.52,0-9.8-1.86-12.89-5.58Z"/><path class="cls-1" d="M283.99,508.04v-34.91h13.52c11.09,0,20.1,6.98,20.1,19.71s-9.01,19.71-20.1,19.71h-13.52v-4.51ZM297.33,507.25c7.32,0,14.13-4.67,14.13-14.42s-6.81-14.42-14.13-14.42h-7.43v28.83h7.43Z"/><path class="cls-1" d="M334.02,498.97c0-8.62,4.9-14.7,13.35-14.7s13.35,5.41,13.24,15.2h-20.72c.34,5.86,4.84,8.45,10.7,8.45,4.11,0,7.88-1.52,9.57-4.22,0,5.97-4.34,9.68-11.77,9.68-8.56,0-14.36-5.29-14.36-14.42ZM354.63,495.54c0-3.77-2.42-7.21-7.26-7.21-4.39,0-7.1,2.87-7.43,7.21h14.7Z"/><path class="cls-1" d="M382.07,490.58l5.8,15.15,5.85-15.32q1.13-2.93,1.97-5.29h6.19l-2.31,5.75-8.73,21.68h-5.97l-8.73-21.62q-1.3-3.16-2.31-5.8h6.19l2.03,5.46Z"/><path class="cls-1" d="M415.54,498.97c0-8.62,4.9-14.7,13.35-14.7s13.35,5.41,13.24,15.2h-20.72c.34,5.86,4.84,8.45,10.7,8.45,4.11,0,7.88-1.52,9.57-4.22,0,5.97-4.34,9.68-11.77,9.68-8.56,0-14.36-5.29-14.36-14.42ZM436.16,495.54c0-3.77-2.42-7.21-7.26-7.21-4.39,0-7.1,2.87-7.43,7.21h14.7Z"/><path class="cls-1" d="M459.6,508.43v-37h5.69v41.11h-5.69v-4.11Z"/><path class="cls-1" d="M483.15,498.74c0-8.67,6.25-14.47,14.53-14.47s14.53,5.8,14.53,14.47-6.25,14.64-14.53,14.64-14.53-5.92-14.53-14.64ZM497.68,508.09c5.07,0,8.67-3.83,8.67-9.35s-3.55-9.12-8.67-9.12-8.67,3.72-8.67,9.12,3.55,9.35,8.67,9.35Z"/><path class="cls-1" d="M530.09,485.12h5.69v3.49c1.85-2.82,5.29-4.34,9.01-4.34,7.6,0,13.23,5.63,13.23,14.53s-5.63,14.59-13.23,14.59c-3.77,0-7.21-1.47-9.01-4.28v13.57h-5.69v-37.56ZM543.55,508.09c5.07,0,8.56-3.83,8.56-9.29s-3.49-9.18-8.56-9.18c-3.43,0-6.36,1.75-7.77,5.24v7.94c1.41,3.43,4.28,5.29,7.77,5.29Z"/><path class="cls-1" d="M575.89,508.43v-23.31h5.69v3.1c1.8-2.48,4.56-3.94,8.05-3.94,4,0,6.98,1.69,8.61,4.45,1.69-2.42,4.62-4.45,8.95-4.45,6.76,0,10.7,4.22,10.7,10.48v17.79h-5.63v-16.16c0-4.11-2.37-6.65-6.2-6.65-3.15,0-5.18,1.69-6.36,4.56v18.25h-5.63v-16.16c0-4.11-2.31-6.65-6.14-6.65-2.98,0-4.9,1.46-6.36,4.22v18.59h-5.69v-4.11Z"/><path class="cls-1" d="M635.33,498.97c0-8.62,4.9-14.7,13.35-14.7s13.35,5.41,13.24,15.2h-20.72c.34,5.86,4.84,8.45,10.7,8.45,4.11,0,7.88-1.52,9.57-4.22,0,5.97-4.34,9.68-11.77,9.68-8.56,0-14.36-5.29-14.36-14.42ZM655.94,495.54c0-3.77-2.42-7.21-7.26-7.21-4.39,0-7.1,2.87-7.43,7.21h14.7Z"/><path class="cls-1" d="M698.48,508.43v-11.94c0-4.23-2.42-6.76-6.48-6.76-3.43,0-5.63,1.52-6.93,4.62v18.19h-5.69v-27.43h5.69v3.55c1.69-2.76,4.56-4.39,8.61-4.39,6.59,0,10.42,4.22,10.42,10.48v17.79h-5.63v-4.11Z"/><path class="cls-1" d="M724.69,504.55v-14.3h-5.74l11.37-12.39v7.26h11.38v5.13h-11.38v12.39c0,3.49,2.08,5.29,5.41,5.29,2.76,0,5.01-1.18,6.36-3.38,0,5.68-3.43,8.84-8.84,8.84s-8.56-3.38-8.56-8.84Z"/><path class="cls-1" d="M756.52,509.61v-6.08c2.31,3.09,6.19,5.12,9.68,5.12,2.7,0,4.11-1.24,4.11-3.21,0-1.75-.79-2.7-2.7-3.49l-5.07-2.2c-3.66-1.58-5.46-3.94-5.46-7.49,0-4.62,4-8,9.63-8,3.26,0,6.02.9,8.22,2.65v5.75c-1.69-2.08-5.18-3.77-8.05-3.77-2.42,0-3.94,1.18-3.94,2.93s.96,2.59,2.93,3.38l5.12,2.25c3.43,1.46,5.18,3.88,5.18,7.49,0,5.01-4.11,8.45-9.91,8.45-4.05,0-7.26-1.24-9.74-3.77Z"/></svg>