<?xml version="1.0" encoding="UTF-8"?><svg id="Layer_1" xmlns="http://www.w3.org/2000/svg" viewBox="0 0 907.07 433.58"><defs><style>.cls-1{fill:#354040;stroke-width:0px;}</style></defs><path class="cls-1" d="M390.44,215.84c-2.93-4.2-6.93-7.94-11.71-11.03-13.67-8.7-33.69-11.43-59.39-7.99-.66,0-1.26.05-1.57.3-39.14,5.51-51.6,28.93-55.64,42.44l-.05.51c-1.51,7.84.37,14.82,5.46,20.79,11.02,13.05,27.87,14.11,42.77,14.11,7.81,0,32.66-.91,56.44-12.75,0,0,.05,0,.09-.05.19-.05.32-.15.51-.25.14-.05.29-.1.47-.2.31-.2.64-.35.96-.51.1,0,.19-.05.23-.1,1.55-.86,3.06-1.72,4.6-2.63,0,0,.45-.3.63-.4.63-.41,1.3-.86,1.97-1.32.39-.3.84-.61,1.28-.96.76-.51,1.55-1.11,2.33-1.77.7-.56,1.39-1.16,2.13-1.77,1.68-1.47,3.34-3.04,4.85-4.81,2.34-2.43,4.44-5.06,5.92-7.49.04-.05.06-.2.11-.2,1.11-2.73,1.98-5.61,2.25-8.7.29-4.65-.81-9.66-4.64-15.23M347.45,234.35c1.77,2.58,5.15,5.57,7.85,7.69-8.68,6.27-24.51,12.24-39.81,12.24-3.16,0-12.96,0-16.31-3.79-1.47-1.67-1.88-3.59-2.05-5.11-1.16-13.25,20.4-30.05,46.16-30.05,9.74,0,16.43,2.68,17.53,4.25.51.71.84,1.57.88,2.23-14.06,4.2-18.57,6.27-14.24,12.54M651.58,213.31c-4.64-7.19-14.05-12.04-19.2-12.04l-3.63.76c-24.08,7.38-56.44,23.32-80.84,39.4l-3.11-19.52c-.06-2.18-1.58-5.36-4.18-8.6-5.43-6.68-14.1-12.04-19.3-12.04l-3.47.76c-20.59,6.37-54.12,21.09-81.25,39.1l-4.5-29.24c-.73-4.65-4.46-7.89-6.1-9.16-2.24-1.67-6.92-4.25-11.62-1.97l-2.1,1.06-.31,11.99c.03-.05.02-.1.07-.1l-.43,12.54-1.19,36.83c.68,4.2,2.76,7.54,6.08,10.02,2.12,1.62,4.14,2.33,6.28,2.33,1.73,0,3.51-.51,5.21-1.67,35.41-21.35,61.25-34.19,86.08-43,.75-.2,1.33-.3,1.69-.45.22.66.5,1.52.68,2.68l5.25,30.1c.24,2.88,2.34,6.27,5.73,8.8,1.97,1.47,6.92,4.55,11.69,1.87,35.43-21.45,61.06-34.3,85.83-43,.75-.2,1.33-.3,1.69-.45.32.66.5,1.52.69,2.68l.14,30.1c.29,2.88,2.41,6.17,5.51,8.6,4.09,3.09,8.35,3.79,11.91,2.07l11.67-6.08c.84-.43,1.24-1.33,1.07-2.38,0,0-2.25-46.14-6.02-51.99M874.47,231.82c-3.67-4.1-9.17-7.44-12.33-5.97l-35.56,16.44-.9-23.12v-1.67s-.06-1.27-.06-1.27l-.24-.41c-.47-1.52-1.13-2.93-2.3-4.6-3.83-5.57-10.37-9.97-14.8-9.97l-30.65,13.86c-10.08-7.38-23.09-15.38-46.85-16.54-.83-.05-1.7-.1-2.52-.1h-.05c-22.55.25-38.85,17.55-38.85,17.55l-1.87,2.02c-13.6,16.09-2.86,44.01-1.02,46.69,2.26,3.24,4.7,5.61,7.51,7.28,4.71,2.73,9.61,2.73,15.44.15l86.39-39.86,1.36,30.4c.36,4.6,2.82,7.59,4.86,9.26,3.53,2.93,7.56,3.44,11.61,1.57l63.11-31.21.65-.05c2.96-1.67.78-6.48-2.92-10.47M718.37,242.29c-3.9,1.57-5.92,1.92-7.09,1.92,0,0,.04-.05-.03-.15-3.63-9,3.58-25.85,30.26-25.85,10.51,0,16.95,1.52,21.5,3.24-5.5,3.19-18.98,10.17-44.64,20.84M647.33,272.47l31.36-12.51s-21.66,1.73-22.98-6.56c-1.31-8.29-10.61-4.14-10.61-4.14l2.23,23.22Z"/><path class="cls-1" d="M443.25,310.01c0,5.4-36.5,8.84-45.7,9.64-224.73,18.95-299.82-72.72-299.82-72.72-19.18,30.42-28.23,48.8-31.75,59.58-2.27,6.7-2.95,20.66-8.51,24.29-6.58,4.31-13.96,3.52-16.57,3.52-11.8,0-12.26-3.18-12.6-8.74-.23-3.4,3.63-13.17,11.35-28.83,7.94-16.12,35.24-64.31,40.23-71.91,0,0-11.4-25.47,12.55-35,4.54-1.82,18.27-6.92,18.27-6.92,9.42-15.09,22.81-35.41,33.82-52.44,9.42-14.75,22.81-34.96,22.81-34.96,3.86-2.27,9.19-2.95,12.71-2.84,5.9.23,7.26,2.84,7.26,4.99v.34c-.23.91-.45,1.82-.79,2.84-.34.8-.68,1.7-1.02,2.61-2.27,5.45-5.22,11.35-9.08,17.36-3.4,5.9-8.85,14.53-16.46,25.65-7.26,10.78-14.07,21.11-20.32,30.65,19.75-5.33,37.68-10.21,53.57-14.98v-.11c1.02-.23,2.16-.57,3.29-.91,0,0,.11-.11.23,0,3.29-1.02,6.58-2.04,9.65-2.95.23-.11.45-.23.68-.23,13.85-3.4,26.79-7.83,38.36-12.94,35.64-15.89,58-38.48,53.23-60.04-1.7-7.6-6.58-14.07-13.96-19.18-17.71-12.6-49.94-17.59-85.92-12.14-51.64,5.75-82.63,18.73-100.22,35.07-1.48,1.36-2.95,2.84-4.2,4.31-1.47,1.59-3.72,3.13-6.02,2.5-7.93-2.19-20.54-17.14-20.54-17.14-1.81-1.7-2.95-4.2-2.95-7.04,0-3.29,1.7-6.24,4.2-7.94.57-.45,1.25-.91,1.93-1.13.45-.34.91-.68,1.36-.91,1.7-1.02,3.4-2.04,5.22-3.06.91-.57,1.82-1.02,2.84-1.59,2.61-1.47,5.45-2.84,8.29-4.2.45-.23.79-.45,1.25-.57,3.41-1.7,7.04-3.18,10.67-4.77.34-.11.57-.23.91-.34,7.95-3.18,16.46-6.13,25.31-8.74,7.38-2.04,49.83-12.25,72.86-14.41,102.01-9.59,147.21,7.83,156.29,48.46,3.52,15.44-2.04,31.78-14.41,47.44-20.88,26.56-61.74,50.96-112.25,64.81-3.18.91-6.36,1.7-9.53,2.5-2.16.45-4.2,1.02-6.36,1.47-6.24,1.59-12.82,2.95-19.64,4.43-10.1,2.16-20.77,4.2-31.89,6.13-.8.11-1.7.23-2.5.46-19.75,3.29-34.5,10.55-34.5,22.81,0,7.72,10.78,16.34,16.23,20.88.91.8,1.7,1.48,2.72,2.04,37.34,26.9,91.93,63.79,282.16,59.25,9.53-.23,17.25-1.24,17.25,5.66"/><path class="cls-1" d="M191.63,387.91l-6.75-9.48c-.76.09-1.52.13-2.36.13h-7.92v9.36h-3.12v-29.5h11.04c7.5,0,12.05,3.8,12.05,10.12,0,4.63-2.45,7.88-6.75,9.27l7.21,10.11h-3.41ZM191.46,368.53c0-4.72-3.12-7.42-9.02-7.42h-7.83v14.79h7.83c5.9,0,9.02-2.74,9.02-7.37"/><polygon class="cls-1" points="231.95 385.22 231.95 387.91 211.09 387.91 211.09 358.42 231.32 358.42 231.32 361.11 214.21 361.11 214.21 371.61 229.47 371.61 229.47 374.26 214.21 374.26 214.21 385.22 231.95 385.22"/><path class="cls-1" d="M245.6,384.33l1.22-2.4c2.11,2.07,5.86,3.58,9.73,3.58,5.52,0,7.93-2.32,7.93-5.23,0-8.09-18.16-3.12-18.16-14.03,0-4.34,3.37-8.09,10.87-8.09,3.33,0,6.78.97,9.14,2.62l-1.05,2.49c-2.53-1.64-5.48-2.45-8.09-2.45-5.4,0-7.8,2.4-7.8,5.35,0,8.09,18.16,3.2,18.16,13.95,0,4.34-3.45,8.05-11,8.05-4.42,0-8.76-1.56-10.95-3.84"/><rect class="cls-1" x="283.49" y="358.42" width="3.12" height="29.5"/><path class="cls-1" d="M305.36,358.42h12.01c9.44,0,15.8,6.07,15.8,14.75s-6.36,14.75-15.8,14.75h-12.01v-29.5ZM317.2,385.22c7.84,0,12.89-4.97,12.89-12.05s-5.06-12.05-12.89-12.05h-8.72v24.11h8.72Z"/><polygon class="cls-1" points="370.17 385.22 370.17 387.91 349.31 387.91 349.31 358.42 369.53 358.42 369.53 361.11 352.43 361.11 352.43 371.61 367.68 371.61 367.68 374.26 352.43 374.26 352.43 385.22 370.17 385.22"/><polygon class="cls-1" points="411.29 358.41 411.29 387.91 408.72 387.91 389.76 363.98 389.76 387.91 386.64 387.91 386.64 358.41 389.21 358.41 408.22 382.35 408.22 358.41 411.29 358.41"/><path class="cls-1" d="M427.43,373.16c0-8.64,6.57-15,15.47-15,4.3,0,8.17,1.43,10.79,4.3l-1.98,1.98c-2.4-2.44-5.35-3.5-8.73-3.5-7.12,0-12.47,5.23-12.47,12.22s5.35,12.22,12.47,12.22c3.37,0,6.32-1.05,8.73-3.54l1.98,1.98c-2.62,2.87-6.49,4.34-10.83,4.34-8.85,0-15.42-6.36-15.42-15"/><polygon class="cls-1" points="490.34 385.22 490.34 387.91 469.48 387.91 469.48 358.42 489.71 358.42 489.71 361.11 472.6 361.11 472.6 371.61 487.86 371.61 487.86 374.26 472.6 374.26 472.6 385.22 490.34 385.22"/><path class="cls-1" d="M503.99,384.33l1.22-2.4c2.11,2.07,5.86,3.58,9.73,3.58,5.52,0,7.93-2.32,7.93-5.23,0-8.09-18.16-3.12-18.16-14.03,0-4.34,3.37-8.09,10.87-8.09,3.33,0,6.78.97,9.14,2.62l-1.05,2.49c-2.53-1.64-5.48-2.45-8.09-2.45-5.4,0-7.8,2.4-7.8,5.35,0,8.09,18.16,3.2,18.16,13.95,0,4.34-3.45,8.05-11,8.05-4.42,0-8.76-1.56-10.95-3.84"/><path class="cls-1" d="M637.78,383.95l1.85-2.11c1.6,2.36,3.75,3.62,6.36,3.62,3.62,0,5.48-2.15,5.48-6.49v-17.87h-10.79v-2.7h13.86v20.44c0,6.24-2.95,9.31-8.6,9.31-3.33,0-6.36-1.52-8.18-4.21"/><path class="cls-1" d="M734.79,368.53c0,6.28-4.55,10.07-12.05,10.07h-7.92v9.31h-3.12v-29.5h11.04c7.5,0,12.05,3.8,12.05,10.12M731.67,368.53c0-4.72-3.12-7.42-9.02-7.42h-7.83v14.75h7.83c5.9,0,9.02-2.7,9.02-7.33"/><path class="cls-1" d="M692.78,387.91l-6.75-9.48c-.76.09-1.52.13-2.36.13h-7.92v9.36h-3.12v-29.5h11.04c7.5,0,12.05,3.8,12.05,10.12,0,4.63-2.45,7.88-6.74,9.27l7.21,10.11h-3.41ZM692.61,368.53c0-4.72-3.12-7.42-9.02-7.42h-7.83v14.79h7.83c5.9,0,9.02-2.74,9.02-7.37"/><path class="cls-1" d="M624.14,367.63c-.19-.05-.37-.05-.6-.05-3.5,0-13.6,3.96-17.2,8.85.41-1.66,2.49-7.1,2.49-10.65,0-1.84-.55-3.18-2.12-3.23-3.83,0-11.94,13.32-15.68,13.97h-.09c-.42,0-.55-.37-.65-1.01-.05-.37-.09-.69-.09-1.11,0-3.27,1.66-7.24,2.44-10.33l.05-.28c0-.97-1.38-1.84-2.44-1.84-.6,0-1.06.23-1.15.87-.41,1.61-1.11,3.64-1.71,5.76-.14.51-.28,1.01-.41,1.52-.41,1.71-.74,3.37-.74,4.84,0,.65.05,1.25.23,1.8.14,1.24,1.06,1.89,2.44,1.89.51,0,1.01-.05,1.57-.23,3.73-.97,13.92-14.25,15.4-14.25h.09s.09.14.09.41c0,1.8-1.8,9.18-2.03,9.96-.41,1.61-1.24,4.38-1.75,6.18-3.23,4.43-7.29,11.07-9.41,15.95-1.57,3.5-2.77,6.82-3.46,9.4-.19.6-.55,2.07-.55,3.5,0,1.29.32,2.49,1.52,2.86.09.05.14.05.28.05,2.44,0,6.32-10.47,6.87-11.9,1.98-5.21,5.95-15.49,7.65-21.39,3.37-4.52,9.77-9.59,18.95-9.91.37-.37.65-.78.65-1.11,0-.23-.19-.46-.65-.55M596.61,399.62c-2.21,5.81-4.79,10.42-5.63,11.16v-.09c0-.69.28-1.98.74-3.69.69-2.54,1.85-5.76,3.37-9.31,1.29-3.04,3.87-8.71,5.67-11.76-1.24,3.97-2.86,10.24-4.15,13.69M588.04,368.5h-.05c-.23.05-.41.05-.6.09-3.13.51-5.76,1.25-8.48,2.54.14-.74.23-1.57.23-2.31,0-2.86-1.15-5.44-4.8-5.81h-.09c-5.76,0-9.45,7.05-11.53,12.63.41-2.4,1.06-5.86,2.07-10.65l.37-.37c3.92-4.33,8.62-10.97,11.85-17.2,2.12-3.97,3.46-7.65,3.46-10.05,0-.78-.09-1.38-.42-1.84-.18-.32-.41-.51-.6-.65-.23-.09-.41-.14-.69-.14-.78,0-1.8.46-2.58,1.25-6.13,6.13-11.53,19.87-13.32,28.08-1.89,8.39-2.17,12.91-2.17,15.03,0,1.2.09,1.61.09,1.61.09.41.32.55.6.55s.55-.18.74-.51c.05-.05,3.96-15.95,11.85-15.95h.09c2.12,0,2.77,2.81,2.77,5.21,0,.92-.09,1.75-.23,2.31-3.83,1.8-12.36,9.54-12.36,14.66,0,.51.09.97.28,1.43.46.74,1.15,1.11,1.94,1.11,2.26,0,5.44-2.58,7.84-5.81,2.44-3.32,3.83-7.42,4.52-11.48,2.63-1.34,5.16-1.66,8.16-2.12.41-.05.88-.14,1.29-.19.28-.05.46-.32.46-.65,0-.37-.23-.78-.69-.78M577.39,336.69c.55-.65,1.06-.97,1.38-.97l.23.05c.09.18.14.37.14.65,0,2.4-3.78,9.18-4.33,10.28-2.91,5.67-5.07,8.58-8.76,13.32,1.57-6.46,6.46-18.49,11.34-23.33M571.95,383.67c-1.89,2.72-4.1,5.12-5.67,5.12-.46,0-.88-.18-1.15-.6-.23-.28-.37-.6-.37-.97,0-3.64,9.04-12.82,11.8-13.83-1.11,4.19-2.07,6.68-4.61,10.28"/></svg>