<?xml version="1.0" encoding="UTF-8"?><svg id="Layer_1" xmlns="http://www.w3.org/2000/svg" viewBox="0 0 761.44 202.93"><defs><style>.cls-1{fill:#231f20;stroke-width:0px;}</style></defs><path class="cls-1" d="M256.68,79.19c.29,6.23-1.2,12.14-4.46,17.73-3.26,5.59-7.86,9.78-13.81,12.57-2.29,1-5.09,1.77-8.38,2.31-3.3.54-5.88.86-7.74.97-1.86.11-5.1.11-9.73,0-4.62-.11-7.29-.16-8.01-.16v15.9c.14,5.37,1.72,9.07,4.73,11.07h-18.05c1.94-1.36,3.21-2.99,3.82-4.89.61-1.9.91-4.31.91-7.25v-15.8c-1.93-.14-4.84-.36-8.7-.65-7.45-.57-13-.97-16.66-1.18l6.45,18.7c.93,2.58,1.97,4.66,3.12,6.23,1.43,2.08,3.22,3.69,5.37,4.83h-18.05c1.5-1.36,2.22-3.15,2.15-5.37-.07-1.58-.61-3.8-1.61-6.66l-6.12-17.95c-4.01-.07-7.68.04-11.01.32-3.33.29-6.66.81-9.99,1.56-3.33.75-6.27,1.76-8.81,3.01-2.54,1.25-4.86,2.92-6.93,5s-3.73,4.48-4.94,7.2l-.22.86c-.86,2.36-1.07,4.51-.64,6.45.5,2.51,1.9,4.37,4.19,5.59h-18.05c1.65-.36,3.13-.97,4.46-1.83,1.32-.86,2.38-1.68,3.17-2.47.79-.79,1.61-1.97,2.47-3.54.86-1.58,1.41-2.69,1.67-3.33.25-.65.7-1.79,1.34-3.44,2.15-6.3,5.94-17.43,11.39-33.37,5.44-15.94,9.63-28.24,12.57-36.91-.14-.29-.29-.54-.43-.75-1.5-2.22-3.44-4.01-5.8-5.37,1.29,0,2.81-.04,4.57-.11,1.76-.07,2.94-.12,3.55-.16.61-.03,1.41.05,2.42.27,1,.21,1.67.5,1.99.86s.79,1.02,1.4,1.99c.61.97,1.13,2.04,1.56,3.23.43,1.18.97,2.85,1.61,5,3.87,11.39,9.1,26.69,15.69,45.89-3.08-.14-5.95-.22-8.6-.22-6.3-18.41-11.43-33.27-15.37-44.59-.43-1.36-.86-2.51-1.29-3.44-2.65,7.74-6.38,18.68-11.18,32.83-4.8,14.15-8.02,23.62-9.67,28.42,1.58-1.72,3.33-3.21,5.27-4.46,1.94-1.25,4.17-2.29,6.72-3.12,2.54-.82,4.94-1.5,7.2-2.04s5.05-.89,8.38-1.07c3.33-.18,6.18-.32,8.54-.43,2.36-.11,5.52-.05,9.46.16,3.94.22,7,.39,9.19.54,2.18.14,5.39.39,9.62.75,7.74.57,13.47.97,17.19,1.18,4.3.14,8.17.27,11.61.38s6.89-.39,10.37-1.5c3.47-1.11,6.75-2.92,9.83-5.43,3.65-3.01,6.41-6.7,8.27-11.07,1.86-4.37,2.69-8.85,2.47-13.43-.14-3.58-.98-7.05-2.52-10.42-1.54-3.37-3.6-6.38-6.18-9.03-2.58-2.65-5.82-4.76-9.73-6.34-3.91-1.58-8.15-2.36-12.73-2.36h-11.39v45.88c0,1.58-.22,3.12-.65,4.62s-1.33,2.9-2.69,4.19c-1.36,1.29-3.12,1.93-5.27,1.93v-46.74c0-2.94-.31-5.36-.91-7.25-.61-1.9-1.88-3.53-3.82-4.89h32.02c3.94,0,7.68.56,11.23,1.67,3.55,1.11,6.63,2.65,9.24,4.62,2.61,1.97,4.89,4.25,6.82,6.82,1.94,2.58,3.42,5.36,4.46,8.33,1.04,2.97,1.59,6.04,1.67,9.19Z"/><path class="cls-1" d="M332.77,79.19c.22,4.16-.41,8.22-1.88,12.2-1.47,3.98-3.58,7.54-6.34,10.69-2.76,3.15-6.34,5.7-10.75,7.63-4.41,1.94-9.22,2.9-14.45,2.9h-18.7v15.9c.14,5.37,1.72,9.07,4.73,11.07h-18.05c1.94-1.36,3.21-2.99,3.81-4.89.61-1.9.91-4.31.91-7.25V60.71c0-1.94-.09-3.51-.27-4.73-.18-1.22-.63-2.53-1.34-3.92-.72-1.4-1.76-2.56-3.12-3.49h32.02c4.94,0,9.53.86,13.75,2.58,4.23,1.72,7.72,4.03,10.48,6.93,2.76,2.9,4.94,6.16,6.56,9.78,1.61,3.62,2.49,7.4,2.63,11.34ZM292.04,110.35c4.87,0,9.37-.91,13.49-2.74,4.12-1.83,7.47-4.23,10.05-7.2,2.58-2.97,4.55-6.32,5.91-10.05,1.36-3.72,1.94-7.52,1.72-11.39-.15-3.58-.99-7.05-2.53-10.42-1.54-3.37-3.6-6.38-6.18-9.03-2.58-2.65-5.82-4.76-9.73-6.34-3.9-1.58-8.15-2.36-12.73-2.36h-11.39v59.53h11.39Z"/><path class="cls-1" d="M407.56,128.51c.14,5.37,1.72,9.07,4.73,11.07h-18.05c1.36-.93,2.4-2.1,3.12-3.49s1.16-2.7,1.34-3.92c.18-1.22.27-2.79.27-4.73v-43.52c-.93,2.08-2.4,3.83-4.41,5.27-2.01,1.43-4.23,2.58-6.66,3.44-2.43.86-5.03,1.67-7.79,2.42s-5.45,1.61-8.06,2.58c-2.61.97-5.01,2.17-7.2,3.6-2.19,1.43-3.99,3.4-5.43,5.91-1.44,2.51-2.33,5.48-2.69,8.92v12.46c.14,5.37,1.72,9.07,4.73,11.07h-18.05c1.94-1.36,3.21-2.99,3.81-4.89.61-1.9.91-4.31.91-7.25V60.71c0-2.94-.3-5.36-.91-7.25-.61-1.9-1.88-3.53-3.81-4.89h18.05c-3.01,2.01-4.58,5.69-4.73,11.07v46.96c2.15-3.51,5.16-6.38,9.03-8.6,1.79-1,3.81-1.92,6.07-2.74,2.26-.82,4.76-1.63,7.52-2.42s4.78-1.43,6.07-1.94c2.08-.72,3.85-1.52,5.32-2.42s2.87-2.08,4.19-3.55c1.32-1.47,2.33-3.35,3.01-5.64.68-2.29,1.02-5.01,1.02-8.17v-10.42c0-1.94-.09-3.51-.27-4.73-.18-1.22-.63-2.53-1.34-3.92-.72-1.4-1.76-2.56-3.12-3.49h18.05c-3.01,2.01-4.59,5.69-4.73,11.07v68.88Z"/><path class="cls-1" d="M437.65,128.51c.14,5.37,1.72,9.07,4.73,11.07h-18.05c1.93-1.36,3.21-2.99,3.81-4.89.61-1.9.91-4.31.91-7.25v-50.29c0-2.87-.3-5.27-.91-7.2-.61-1.93-1.88-3.58-3.81-4.94h18.05c-3.01,2.08-4.59,5.77-4.73,11.07v52.44Z"/><path class="cls-1" d="M524.69,139.58c.21,0,.32.03.32.11-.07.14-.14.25-.21.32-10.53,1.93-18.59,1.29-24.18-1.94-2.65-1.5-5.23-3.74-7.74-6.72-2.51-2.97-5-6.12-7.47-9.46-2.47-3.33-4.71-5.82-6.72-7.47-3.3-2.86-4.48-5.23-3.55-7.09,1.07-2.15,4.05-2.76,8.92-1.83,4.15.72,7.97.45,11.44-.81,3.47-1.25,6.29-3.19,8.43-5.8,2.15-2.61,3.78-5.64,4.89-9.08,1.11-3.44,1.56-7.06,1.34-10.85-.15-3.58-.99-7.05-2.53-10.42-1.54-3.37-3.6-6.38-6.18-9.03-2.58-2.65-5.82-4.76-9.73-6.34-3.9-1.58-8.15-2.36-12.73-2.36h-11.39v77.69c.14,5.37,1.72,9.07,4.73,11.07h-18.05c1.94-1.36,3.21-2.99,3.81-4.89.61-1.9.91-4.31.91-7.25V60.71c0-2.94-.3-5.36-.91-7.25-.61-1.9-1.88-3.53-3.81-4.89h32.02c4.94,0,9.53.86,13.75,2.58,4.23,1.72,7.72,4.03,10.48,6.93,2.76,2.9,4.94,6.16,6.56,9.78,1.61,3.62,2.49,7.4,2.63,11.34.22,4.87-.54,9.33-2.26,13.38-1.72,4.05-4.21,7.33-7.47,9.83-3.26,2.51-7.13,4.25-11.6,5.21-4.48.97-9.4.81-14.78-.48-2.72-.43-4.66-.45-5.8-.05-1.15.39-1.34,1.15-.59,2.26.75,1.11,2.31,2.24,4.67,3.38,1.07.5,2.08,1.01,3.01,1.5.93.5,1.76.95,2.47,1.34.72.39,1.49.88,2.31,1.45.82.57,1.45,1,1.88,1.29.43.29,1.06.81,1.88,1.56s1.4,1.25,1.72,1.5c.32.25.95.86,1.88,1.83.93.97,1.54,1.59,1.83,1.88.29.29,1,1.06,2.15,2.31,1.15,1.25,1.9,2.1,2.26,2.52,1.08,1.15,2.04,2.12,2.9,2.9.86.79,1.86,1.65,3.01,2.58,1.15.93,2.22,1.63,3.23,2.1,1,.47,2.2.97,3.6,1.5,1.4.54,2.74.79,4.03.75s2.83-.09,4.62-.16Z"/><path class="cls-1" d="M577.02,50.71h-39.87c0,8.45-.04,17.3-.11,26.54,0,2.58.14,4.73.43,6.45.29,1.72.86,3.33,1.72,4.83.86,1.5,2.11,2.63,3.76,3.38,1.65.75,3.8,1.17,6.45,1.24h14.94c2.87,0,5.52-.65,7.95-1.93,2.43-1.29,3.98-3.33,4.62-6.13v17.95c-1.22-2.72-2.94-4.67-5.16-5.86-2.22-1.18-4.51-1.77-6.88-1.77h-15.9c-1.29,0-2.47.16-3.55.48-1.07.32-2.01.74-2.79,1.23-.79.5-1.49,1.18-2.1,2.04s-1.11,1.68-1.5,2.47c-.39.79-.72,1.79-.97,3.01-.25,1.22-.45,2.26-.59,3.12-.14.86-.25,1.97-.32,3.33-.07,1.36-.11,2.4-.11,3.12s.02,1.72.05,3.01c.03,1.29.05,2.12.05,2.47,0,4.87,1.72,9.05,5.16,12.52,3.44,3.48,7.59,5.21,12.46,5.21h22.24c2.87,0,5.53-.66,8.01-1.99,2.47-1.32,4.03-3.38,4.67-6.18v10.32h-40.51c-5.66,0-10.51-2.02-14.56-6.07-4.05-4.05-6.07-8.9-6.07-14.56,0-.79-.02-2-.05-3.65-.04-1.65-.05-2.85-.05-3.6s.04-1.81.11-3.17c.07-1.36.18-2.4.32-3.12.14-.71.36-1.61.65-2.69.29-1.08.66-1.92,1.13-2.53.47-.61,1.04-1.29,1.72-2.04.68-.75,1.47-1.34,2.36-1.77.89-.43,1.93-.84,3.12-1.23,1.18-.39,2.52-.66,4.03-.81-1.58-.22-2.97-.5-4.19-.86-1.22-.36-2.3-.77-3.23-1.24-.93-.47-1.74-1.13-2.42-1.99-.68-.86-1.25-1.67-1.72-2.42-.47-.75-.83-1.81-1.08-3.17-.25-1.36-.45-2.56-.59-3.6-.15-1.04-.23-2.47-.27-4.3-.04-1.83-.04-3.4,0-4.73.04-1.32.07-3.15.11-5.48.04-2.33.05-4.28.05-5.86,0-2.94-.3-5.36-.91-7.25-.61-1.9-1.88-3.53-3.81-4.89h65.87v10.31c-.65-2.79-2.2-4.85-4.67-6.18-2.47-1.32-5.14-1.99-8.01-1.99Z"/><path class="cls-1" d="M660.7,141.94c4.76-3.65,8.49-8.31,11.17-13.98,2.68-5.67,4.08-11.48,4.18-17.4.1-5.93-.66-11.6-2.28-17.02-1.62-5.42-4.33-10.08-8.13-13.98-3.8-3.9-8.28-6.41-13.45-7.52l24.47-39.06h-47.5c-.46,0-1.37.03-2.74.08-1.37.05-2.33.15-2.89.3-.56.15-1.42.33-2.58.53-1.17.2-2.05.48-2.66.84-.61.36-1.34.76-2.2,1.22-.86.46-1.62.99-2.28,1.6-.66.61-1.29,1.32-1.9,2.13v-18.85h76.15l-29.03,45.9c5.07,1.12,9.63,3.19,13.68,6.23,4.05,3.04,7.35,6.59,9.88,10.64,2.53,4.05,4.41,8.51,5.62,13.38,1.22,4.86,1.65,9.73,1.29,14.59-.36,4.86-1.57,9.6-3.65,14.21-2.08,4.61-4.92,8.72-8.51,12.31-3.6,3.6-8.31,6.54-14.14,8.82-5.83,2.28-12.39,3.52-19.68,3.72-5.07.2-9.93-.28-14.59-1.44-4.66-1.16-8.99-3.01-13-5.55-4-2.53-7.27-5.62-9.8-9.27-2.13-3.04-3.34-6.43-3.65-10.18-.3-3.75.28-7.04,1.75-9.88,1.47-2.84,3.47-4.56,6-5.17.4,6.59,1.9,12.52,4.48,17.78,2.58,5.27,5.75,9.4,9.5,12.39,3.75,2.99,7.8,5.2,12.16,6.61,4.36,1.42,8.69,1.77,13,1.06,4.31-.71,8.08-2.38,11.32-5.02Z"/><path class="cls-1" d="M678.73,88.81c-2.74-.1-5.09-1.04-7.07-2.81-1.98-1.77-3.07-4.05-3.27-6.84-.2-2.79.96-5.95,3.5-9.5,3.44-4.66,7.85-8.48,13.22-11.48,5.37-2.99,11.02-4.84,16.95-5.55,5.93-.71,11.78-.51,17.55.61,5.78,1.12,11.19,3.5,16.26,7.14,5.07,3.65,9.02,8.26,11.86,13.83,2.03,3.85,3.42,7.8,4.18,11.86.76,4.05.76,8.28,0,12.69-.76,4.41-2.43,8.54-5.02,12.39-2.58,3.85-6.21,7.45-10.87,10.79-4.66,3.34-9.48,6.16-14.44,8.44-4.97,2.28-10.18,4.81-15.66,7.6-5.47,2.79-10.41,5.52-14.82,8.21-4.41,2.69-8.26,6.08-11.55,10.18-3.29,4.1-5.4,8.64-6.31,13.6h54.72c1.01,0,2.63-.08,4.86-.23,2.23-.15,3.98-.38,5.24-.68,1.27-.3,2.84-.76,4.71-1.37,1.87-.61,3.37-1.32,4.48-2.13,1.11-.81,2.18-1.9,3.19-3.27,1.01-1.37,1.72-2.91,2.13-4.64v24.47h-86.49c.3-7.7,1.52-14.52,3.65-20.44,2.13-5.93,4.86-10.77,8.21-14.52,3.34-3.75,7.04-7.07,11.1-9.96,4.05-2.89,8.36-5.52,12.92-7.9,4.56-2.38,8.89-4.74,12.99-7.07,4.1-2.33,8.13-5.24,12.08-8.74,3.95-3.5,7.09-7.42,9.42-11.78,3.04-5.57,4.26-11.6,3.65-18.09-.51-5.47-1.88-10.21-4.1-14.21-2.23-4-4.97-7.04-8.21-9.12-3.24-2.08-6.81-3.47-10.72-4.18-3.9-.71-7.75-.68-11.55.08-3.8.76-7.48,2.2-11.02,4.33-3.55,2.13-6.49,4.77-8.82,7.9-4.16,5.68-6.49,12.46-6.99,20.37Z"/><polygon class="cls-1" points="442.21 48.97 433.35 60.37 424.48 48.97 428.49 45.62 438.21 45.62 442.21 48.97"/><path class="cls-1" d="M50.26,143.24c-2.75.06-5.88.05-8.98-.39-4.64-.67-9.15-1.76-13.44-3.73-3.39-1.56-6.59-3.39-9.45-5.82-3.39-2.88-6.13-6.29-7.71-10.44-2.14-5.58-2.44-11.34-.76-17.14.93-3.22,2.31-6.23,3.91-9.16,1.47-2.7,3.14-5.27,5.24-7.5,2.64-2.81,5.47-5.43,9.03-7.08.93-.43,1.89-.78,2.93-.78.26,0,.57-.09.73.23.16.32-.04.57-.21.81-.61.83-1.4,1.48-2.19,2.12-4.66,3.84-8.07,8.58-10.45,14.11-1.51,3.5-2.51,7.15-2.95,10.91-.51,4.36-.52,8.74,1.03,12.95.99,2.7,2.44,5.12,4.41,7.26,1.91,2.07,3.98,3.91,6.44,5.25,3.26,1.78,6.74,2.98,10.36,3.81,5.76,1.32,11.62,1.68,17.49,1.38,4.87-.24,9.67-1.1,14.34-2.56,5.22-1.64,10.16-3.87,14.73-6.88,3.07-2.03,5.87-4.35,8.3-7.16,2.26-2.62,4.14-5.44,5.49-8.6,1.3-3.04,2.14-6.21,1.99-9.57-.13-3.05-1.17-5.78-2.82-8.32-2.21-3.42-5.38-5.68-8.9-7.57-4.36-2.35-8.94-4.19-13.44-6.21-4.22-1.89-8.52-3.64-12.42-6.14-3.27-2.1-6.27-4.53-8.06-8.16-2.25-4.56-2.22-9.05.2-13.53,1.79-3.3,4.25-5.99,7.24-8.25,1.7-1.29,3.44-2.52,5.35-3.46,4.27-2.1,8.73-3.64,13.45-4.38,4.67-.73,9.36-1.05,14.07-.98,3.41.05,6.8.39,10.09,1.27,3.54.95,6.9,2.36,9.48,5.15,2.07,2.24,3.06,4.85,2.95,7.91-.18,5.05-3.1,8.13-7.33,10.21-1.62.8-3.33,1.44-5.12,1.78-.33.06-.67.07-1.01.08-.42.01-.76-.13-.92-.55-.16-.43-.14-.84.19-1.2.54-.61,1.28-.74,2.02-.86,1.03-.17,2.03-.46,3.01-.81,2.31-.82,3.65-2.46,4.35-4.76,1.05-3.41-.12-6.25-2.24-8.8-3.12-3.76-7.35-5.44-12.05-5.98-5.57-.64-11.02.18-16.38,1.71-3.46.99-6.92,2-10.09,3.79-2.59,1.47-4.82,3.36-6.8,5.57-.94,1.06-1.75,2.2-2.33,3.49-1.58,3.47-1.08,6.76.99,9.86,1.94,2.9,4.62,5.01,7.63,6.7,4.14,2.31,8.47,4.21,12.78,6.19,4.09,1.88,8.18,3.79,12.08,6.05,2.92,1.69,5.7,3.57,8.12,5.99,2.41,2.4,3.89,5.28,4.84,8.45,1.22,4.06.76,8.06-.89,11.95-1.68,3.96-4.12,7.42-6.93,10.66-3.86,4.43-8.38,8.05-13.29,11.22-6.31,4.09-13.23,6.69-20.53,8.35-4.37.99-10.51,1.73-17.58,1.58Z"/></svg>