<?xml version="1.0" encoding="UTF-8"?><svg id="Layer_1" xmlns="http://www.w3.org/2000/svg" viewBox="0 0 1010.8 714.22"><defs><style>.cls-1{fill:#1d1d1b;stroke-width:0px;}</style></defs><path class="cls-1" d="M132.09,163.52c-58.78-19.95-74.88-34.15-74.88-66.11s22.92-51.18,58.39-51.18c41.64,0,86.37,26.03,100.6,77.39h4.38V51.69c-27.24-18.65-64.21-29.34-101.59-29.34-33.16,0-61.11,9.29-80.84,26.86-19.26,17.16-29.45,41.02-29.45,68.99,0,57.77,37.23,81.58,101.53,103.18,59.24,20.09,77.3,35.43,77.3,65.62,0,36.52-24.63,57.47-67.58,57.47s-93.91-28.81-110.09-85.61h-4.47l3.77,77.76c19.72,15.65,58.11,32.21,107.41,32.21,33.94,0,64.47-8.86,86-24.94,23.48-17.54,35.88-43.06,35.88-73.82,0-59.45-39-84.09-106.37-106.56M657.7,258.87h-5.19c-14.39,54.23-58.14,81.74-97.43,81.74h-23.2c-30.04,0-46.31-5.45-46.31-34.25V83.38c0-28.31,14.03-50.24,45.43-51.82v-4.38h-150.49v4.38c32.37,1.58,45.92,23.27,45.92,51.82v223.94c0,29.36-14.18,51.22-45.92,52.3v4.38h260.14l17.04-105.14ZM899.04,163.52c-58.78-19.95-74.88-34.15-74.88-66.11s22.92-51.18,58.39-51.18c41.64,0,86.37,26.03,100.59,77.39h4.37V51.69c-27.23-18.65-64.21-29.34-101.58-29.34-33.16,0-61.11,9.29-80.84,26.86-19.26,17.16-29.45,41.02-29.45,68.99,0,57.77,37.23,81.58,101.53,103.18,59.23,20.09,77.29,35.43,77.29,65.62,0,36.52-24.63,57.47-67.58,57.47s-93.91-28.81-110.09-85.62h-4.48l3.77,77.76c19.72,15.65,58.12,32.21,107.42,32.21,33.93,0,64.47-8.86,86-24.94,23.48-17.54,35.88-43.06,35.88-73.82,0-59.45-39-84.09-106.37-106.56"/><path class="cls-1" d="M22.49,548.81c2.26-.82,3.87-2.57,4.85-5.24.97-2.67,1.46-6.78,1.46-12.32v-65.14c0-5.44-.49-9.44-1.46-12.01-.98-2.57-2.59-4.26-4.85-5.08-2.26-.82-5.65-1.23-10.16-1.23v-2.77h47.9c12.52,0,22.1,2.39,28.72,7.16,6.62,4.77,9.93,11.27,9.93,19.48,0,6.78-2.59,12.5-7.78,17.17-5.19,4.67-12.14,7.78-20.87,9.32l18.48,24.64c5.64,7.5,10.16,13.12,13.55,16.86,3.39,3.75,6.52,6.42,9.39,8.01,2.87,1.59,6.01,2.39,9.4,2.39v2.77h-26.64l-39.73-53.59h-11.86v31.26c0,5.85.49,10.14,1.46,12.86.97,2.72,2.57,4.52,4.77,5.39,2.21.87,5.57,1.31,10.09,1.31v2.77H12.33v-2.77c4.52,0,7.9-.41,10.16-1.23M56.84,495.99c7.9,0,14.4-2.05,19.48-6.16,5.08-4.1,7.62-10.06,7.62-17.86,0-7.18-2.08-12.91-6.24-17.17-4.16-4.26-10.19-6.39-18.1-6.39h-2c-4.21,0-7.34.31-9.4.92-2.06.62-3.47,1.72-4.23,3.31-.77,1.59-1.16,4.08-1.16,7.47v35.73l14.01.15Z"/><path class="cls-1" d="M203.29,556.36c0-1.44-.51-2.39-1.54-2.85-1.03-.46-2.72-.69-5.08-.69h-68.84v-2.77c4.52,0,7.91-.41,10.16-1.23,2.26-.82,3.87-2.54,4.85-5.16.97-2.62,1.46-6.7,1.46-12.24v-64.99c0-5.54-.49-9.62-1.46-12.24-.98-2.62-2.6-4.34-4.85-5.16-2.26-.82-5.65-1.23-10.16-1.23v-2.77h65.61c2.26,0,3.9-.26,4.93-.77,1.03-.51,1.54-1.44,1.54-2.77,0-.92-.1-1.69-.31-2.31l2.77-.77,8.78,32.65-2.93.92c-2.46-6.36-4.8-11.14-7.01-14.32-2.21-3.18-5.11-5.52-8.7-7.01-3.6-1.49-8.52-2.23-14.78-2.23h-4.16c-4.62,0-7.96.28-10.01.85-2.05.57-3.44,1.67-4.16,3.31-.72,1.64-1.08,4.37-1.08,8.16v34.19h10.32c4.93,0,8.6-.59,11.01-1.77,2.41-1.18,4-2.93,4.78-5.24.77-2.31,1.15-5.67,1.15-10.09h2.93v37.42h-2.93c0-4.52-.41-7.93-1.23-10.24-.82-2.31-2.41-4-4.78-5.08-2.36-1.08-5.96-1.62-10.78-1.62h-10.47v38.81c0,3.7.36,6.39,1.08,8.09.72,1.69,2.08,2.82,4.08,3.39,2,.57,5.21.85,9.62.85h8.47c6.37,0,11.4-.79,15.09-2.39,3.7-1.59,6.7-4.21,9.01-7.85,2.31-3.64,4.59-9.01,6.85-16.09l2.93.92-9.7,35.42-2.77-.77c.2-.62.31-1.39.31-2.31"/><path class="cls-1" d="M229.93,517.86l3.39-.77c5.44,23.1,16.94,34.65,34.5,34.65,5.54,0,10.37-1,14.48-3,4.11-2,7.21-4.67,9.32-8.01,2.1-3.34,3.16-6.95,3.16-10.86,0-4.52-1.18-8.32-3.54-11.4-2.36-3.08-5.62-5.7-9.78-7.85-4.16-2.16-9.88-4.57-17.17-7.24-7.29-2.67-13.32-5.31-18.1-7.93-4.77-2.62-8.6-5.9-11.47-9.86-2.88-3.95-4.31-8.75-4.31-14.4s1.59-10.37,4.77-14.78c3.18-4.41,7.44-7.88,12.78-10.4,5.34-2.51,11.09-3.77,17.25-3.77s11.91.92,17.86,2.77c.41.1,1.26.33,2.54.69,1.28.36,2.39.54,3.31.54,1.23,0,2.21-.59,2.93-1.77.72-1.18,1.03-2.7.92-4.54l2.93-.46,8.01,35.11-3.23.62c-2.77-9.24-7.16-16.45-13.17-21.64-6.01-5.18-13.17-7.78-21.48-7.78-7.29,0-12.86,1.77-16.71,5.31-3.85,3.54-5.78,7.98-5.78,13.32,0,5.75,2.18,10.53,6.54,14.32,4.36,3.8,11.73,7.39,22.1,10.78,12.22,4,21.18,8.73,26.87,14.17,5.7,5.44,8.55,12.07,8.55,19.87,0,6.16-1.75,11.68-5.24,16.56-3.49,4.88-8.24,8.68-14.25,11.4-6,2.72-12.7,4.08-20.1,4.08-4.52,0-8.34-.41-11.47-1.23-3.13-.82-6.39-1.95-9.78-3.39-2.98-1.23-5.14-1.85-6.47-1.85-2.88,0-4.42,1.95-4.62,5.85l-2.93.31-2.62-37.42Z"/><path class="cls-1" d="M326.64,548.81c2.26-.82,3.87-2.54,4.85-5.16.97-2.62,1.46-6.7,1.46-12.24v-64.99c0-5.54-.49-9.62-1.46-12.24-.98-2.62-2.6-4.34-4.85-5.16-2.26-.82-5.65-1.23-10.16-1.23v-2.77h46.82v2.77c-4.31,0-7.6.41-9.86,1.23-2.26.82-3.9,2.54-4.93,5.16-1.03,2.62-1.54,6.7-1.54,12.24v64.83c0,5.54.49,9.65,1.46,12.32.97,2.67,2.56,4.42,4.77,5.24,2.21.82,5.57,1.23,10.09,1.23v2.77h-46.82v-2.77c4.52,0,7.9-.41,10.16-1.23"/><path class="cls-1" d="M388.24,548.81c2.16-.82,3.72-2.57,4.7-5.24.98-2.67,1.46-6.83,1.46-12.47v-64.83c0-5.54-.49-9.6-1.46-12.17-.98-2.57-2.54-4.26-4.7-5.08-2.16-.82-5.44-1.23-9.86-1.23v-2.77h46.35c13.14,0,24.49,2.08,34.03,6.24,9.55,4.16,16.84,10.16,21.87,18.02,5.03,7.85,7.55,17.17,7.55,27.95,0,11.81-2.46,21.87-7.39,30.18-4.93,8.32-11.99,14.63-21.17,18.94-9.19,4.31-20.05,6.47-32.57,6.47h-48.66v-2.77c4.41,0,7.7-.41,9.86-1.23M410.03,544.11c1.08,2.1,2.77,3.52,5.08,4.24,2.31.72,5.52,1.08,9.62,1.08h5.54c8.52,0,15.99-2.1,22.41-6.31,6.42-4.21,11.34-10.21,14.78-18.02,3.44-7.8,5.16-16.89,5.16-27.26s-1.87-18.79-5.62-26.18c-3.75-7.39-9.24-13.11-16.48-17.17-7.24-4.05-15.94-6.08-26.1-6.08-5.85,0-9.99.8-12.4,2.39-2.41,1.59-3.62,4.8-3.62,9.62v74.54c0,4,.54,7.06,1.62,9.16"/><path class="cls-1" d="M568.11,556.36c0-1.44-.52-2.39-1.54-2.85-1.03-.46-2.72-.69-5.08-.69h-68.84v-2.77c4.52,0,7.9-.41,10.16-1.23,2.26-.82,3.87-2.54,4.85-5.16.97-2.62,1.46-6.7,1.46-12.24v-64.99c0-5.54-.49-9.62-1.46-12.24-.98-2.62-2.6-4.34-4.85-5.16-2.26-.82-5.65-1.23-10.16-1.23v-2.77h65.61c2.26,0,3.9-.26,4.93-.77,1.03-.51,1.54-1.44,1.54-2.77,0-.92-.1-1.69-.31-2.31l2.77-.77,8.78,32.65-2.92.92c-2.47-6.36-4.8-11.14-7.01-14.32-2.21-3.18-5.11-5.52-8.7-7.01-3.6-1.49-8.52-2.23-14.78-2.23h-4.16c-4.62,0-7.96.28-10.01.85-2.05.57-3.44,1.67-4.16,3.31-.72,1.64-1.08,4.37-1.08,8.16v34.19h10.32c4.93,0,8.6-.59,11.01-1.77,2.41-1.18,4-2.93,4.77-5.24.77-2.31,1.15-5.67,1.15-10.09h2.93v37.42h-2.93c0-4.52-.41-7.93-1.23-10.24-.82-2.31-2.41-4-4.78-5.08-2.36-1.08-5.96-1.62-10.78-1.62h-10.47v38.81c0,3.7.36,6.39,1.08,8.09.72,1.69,2.08,2.82,4.08,3.39,2,.57,5.21.85,9.62.85h8.47c6.36,0,11.4-.79,15.09-2.39,3.7-1.59,6.7-4.21,9.01-7.85,2.31-3.64,4.59-9.01,6.85-16.09l2.93.92-9.7,35.42-2.77-.77c.2-.62.31-1.39.31-2.31"/><path class="cls-1" d="M601.46,545.88c2.62-2.77,3.93-7.39,3.93-13.86v-71.46c0-4.82-1.21-8.16-3.62-10.01-2.41-1.85-6.44-2.77-12.09-2.77v-2.77h27.1l70.99,84.24v-63.29c0-6.78-1.59-11.5-4.77-14.17-3.18-2.67-8.21-4-15.09-4v-2.77h38.04v2.77c-5.03,0-8.7,1.34-11.01,4-2.31,2.67-3.47,7.34-3.47,14.01v88.09h-1.69l-80.54-94.86v73c0,6.68,1.46,11.35,4.39,14.01,2.93,2.67,7.83,4,14.71,4v2.77h-38.5v-2.77c5.13,0,9.01-1.39,11.63-4.16"/><path class="cls-1" d="M739.75,548.65c-8.27-4.62-14.89-11.19-19.86-19.71-4.98-8.52-7.47-18.38-7.47-29.57s2.62-20.99,7.86-29.72c5.24-8.73,12.17-15.48,20.79-20.25,8.62-4.77,17.91-7.16,27.87-7.16,5.24,0,10.98.67,17.25,2,3.49.62,5.75.92,6.77.92,3.7,0,5.54-1.23,5.54-3.7,0-.92-.1-1.69-.31-2.31l2.77-.62,9.09,34.96-2.93.92c-3.39-9.75-8.42-16.99-15.09-21.71-6.68-4.72-14.43-7.08-23.25-7.08-7.91,0-14.91,2.26-21.02,6.78-6.11,4.52-10.86,10.78-14.24,18.79-3.39,8.01-5.08,17.04-5.08,27.1s2.05,19.28,6.16,27.03c4.1,7.75,9.55,13.68,16.32,17.79,6.78,4.11,14.06,6.16,21.87,6.16s14.81-1.85,21.64-5.54c6.83-3.7,12.24-9.29,16.25-16.79l2.47,1.69c-4.93,8.93-11.45,15.66-19.56,20.17-8.11,4.52-17.04,6.78-26.8,6.78s-18.76-2.31-27.03-6.93"/><path class="cls-1" d="M897.21,556.36c0-1.44-.52-2.39-1.54-2.85-1.03-.46-2.72-.69-5.08-.69h-68.84v-2.77c4.52,0,7.91-.41,10.16-1.23,2.26-.82,3.87-2.54,4.85-5.16.97-2.62,1.46-6.7,1.46-12.24v-64.99c0-5.54-.49-9.62-1.46-12.24-.98-2.62-2.59-4.34-4.85-5.16-2.26-.82-5.65-1.23-10.16-1.23v-2.77h65.61c2.26,0,3.9-.26,4.93-.77,1.03-.51,1.54-1.44,1.54-2.77,0-.92-.1-1.69-.31-2.31l2.77-.77,8.78,32.65-2.92.92c-2.47-6.36-4.8-11.14-7.01-14.32-2.21-3.18-5.11-5.52-8.7-7.01-3.6-1.49-8.52-2.23-14.78-2.23h-4.16c-4.62,0-7.96.28-10.01.85-2.05.57-3.44,1.67-4.16,3.31-.72,1.64-1.08,4.37-1.08,8.16v34.19h10.32c4.93,0,8.6-.59,11.01-1.77,2.41-1.18,4-2.93,4.77-5.24.77-2.31,1.15-5.67,1.15-10.09h2.93v37.42h-2.93c0-4.52-.41-7.93-1.23-10.24-.82-2.31-2.41-4-4.78-5.08-2.36-1.08-5.96-1.62-10.78-1.62h-10.47v38.81c0,3.7.36,6.39,1.08,8.09.72,1.69,2.08,2.82,4.08,3.39,2,.57,5.21.85,9.62.85h8.47c6.36,0,11.4-.79,15.09-2.39,3.7-1.59,6.7-4.21,9.01-7.85,2.31-3.64,4.59-9.01,6.85-16.09l2.93.92-9.7,35.42-2.77-.77c.2-.62.31-1.39.31-2.31"/><path class="cls-1" d="M923.85,517.86l3.39-.77c5.44,23.1,16.94,34.65,34.5,34.65,5.54,0,10.37-1,14.47-3,4.11-2,7.21-4.67,9.32-8.01,2.1-3.34,3.16-6.95,3.16-10.86,0-4.52-1.18-8.32-3.54-11.4-2.36-3.08-5.62-5.7-9.78-7.85-4.16-2.16-9.88-4.57-17.17-7.24-7.29-2.67-13.32-5.31-18.1-7.93-4.77-2.62-8.6-5.9-11.47-9.86-2.88-3.95-4.31-8.75-4.31-14.4s1.59-10.37,4.77-14.78c3.18-4.41,7.44-7.88,12.78-10.4,5.34-2.51,11.09-3.77,17.25-3.77s11.91.92,17.86,2.77c.41.1,1.26.33,2.54.69,1.28.36,2.39.54,3.31.54,1.23,0,2.21-.59,2.93-1.77.72-1.18,1.03-2.7.92-4.54l2.93-.46,8.01,35.11-3.24.62c-2.77-9.24-7.16-16.45-13.17-21.64-6.01-5.18-13.17-7.78-21.48-7.78-7.29,0-12.86,1.77-16.71,5.31-3.85,3.54-5.78,7.98-5.78,13.32,0,5.75,2.18,10.53,6.54,14.32,4.36,3.8,11.73,7.39,22.1,10.78,12.22,4,21.18,8.73,26.87,14.17,5.7,5.44,8.55,12.07,8.55,19.87,0,6.16-1.75,11.68-5.24,16.56-3.49,4.88-8.24,8.68-14.25,11.4-6.01,2.72-12.71,4.08-20.1,4.08-4.52,0-8.34-.41-11.47-1.23-3.13-.82-6.39-1.95-9.78-3.39-2.98-1.23-5.14-1.85-6.47-1.85-2.88,0-4.41,1.95-4.62,5.85l-2.93.31-2.62-37.42Z"/><path class="cls-1" d="M53.2,667.39c1.36-.78,2.05-2.08,2.05-3.9,0-1.56-.55-3.74-1.66-6.53l-3.71-9.66h-26.73l-3.32,8.58c-.91,2.41-1.37,4.39-1.37,5.95,0,4.49,3.38,6.73,10.15,6.73v1.76H5.5v-1.76c2.86,0,5.15-1.04,6.88-3.12,1.72-2.08,3.56-5.59,5.51-10.53l17.46-45.26-2.15-5.56.1-.68c3.12-1.49,5.49-3.22,7.12-5.17h.68l22.44,58.43c1.23,3.25,2.32,5.69,3.27,7.32.94,1.63,1.98,2.8,3.12,3.51,1.14.72,2.62,1.07,4.44,1.07v1.76h-27.6v-1.76c2.93,0,5.07-.39,6.44-1.17M49.1,645.15l-12.58-32.58-12.58,32.58h25.17Z"/><path class="cls-1" d="M93.73,667.78c1.4-.52,2.39-1.56,2.98-3.12.58-1.56.88-4.03.88-7.41v-46.04c0-2.67-.49-4.54-1.46-5.61-.98-1.07-2.67-1.61-5.07-1.61h-3.12c-2.73,0-5.06.68-6.97,2.05s-3.59,3.3-5.02,5.8-3.09,6-4.97,10.48l-1.66-.58,5.46-23.51,1.56.39c-.13.65-.2,1.11-.2,1.37,0,.85.33,1.4.98,1.66.65.26,1.76.39,3.32.39h43.41c1.5,0,2.57-.11,3.22-.34.65-.23.97-.76.97-1.61,0-.59-.06-1.07-.19-1.46l1.56-.39,5.56,23.51-1.66.58c-1.95-4.55-3.63-8.06-5.02-10.53-1.4-2.47-3.04-4.39-4.93-5.75-1.89-1.37-4.19-2.05-6.93-2.05h-3.12c-2.47,0-4.21.54-5.22,1.61-1.01,1.07-1.51,2.94-1.51,5.61v46.04c0,3.38.29,5.85.88,7.41.58,1.56,1.57,2.6,2.97,3.12,1.4.52,3.56.78,6.49.78v1.76h-29.65v-1.76c2.93,0,5.09-.26,6.49-.78"/><path class="cls-1" d="M172.49,667.78c1.43-.52,2.45-1.62,3.07-3.32.62-1.69.93-4.32.93-7.9v-40.87c0-3.58-.31-6.19-.93-7.85-.62-1.66-1.63-2.75-3.02-3.27-1.4-.52-3.56-.78-6.49-.78v-1.76h28.29c8.13,0,14.47,1.72,19.02,5.17,4.55,3.45,6.83,8.29,6.83,14.53,0,4.29-1.19,7.97-3.56,11.02-2.37,3.06-5.58,5.38-9.61,6.97-4.03,1.59-8.49,2.39-13.36,2.39-2.8,0-5.56-.23-8.29-.68v14.83c0,3.71.32,6.4.97,8.09.65,1.69,1.77,2.81,3.36,3.36,1.59.55,4.08.83,7.46.83v1.75h-31.12v-1.75c2.86,0,5.01-.26,6.44-.78M193.27,639.98c3.06,0,5.92-.75,8.58-2.24,2.67-1.49,4.81-3.62,6.44-6.39,1.62-2.76,2.44-5.96,2.44-9.61,0-6.18-1.72-10.65-5.17-13.41-3.45-2.76-7.7-4.14-12.78-4.14-2.02,0-3.54.19-4.59.58-1.04.39-1.77,1.11-2.19,2.15-.42,1.04-.63,2.63-.63,4.78v27.41c2.34.58,4.97.88,7.9.88"/><path class="cls-1" d="M261.16,667.39c1.36-.78,2.05-2.08,2.05-3.9,0-1.56-.55-3.74-1.66-6.53l-3.71-9.66h-26.73l-3.32,8.58c-.91,2.41-1.37,4.39-1.37,5.95,0,4.49,3.38,6.73,10.15,6.73v1.76h-23.12v-1.76c2.86,0,5.15-1.04,6.88-3.12,1.72-2.08,3.56-5.59,5.51-10.53l17.46-45.26-2.15-5.56.1-.68c3.12-1.49,5.49-3.22,7.12-5.17h.68l22.43,58.43c1.24,3.25,2.32,5.69,3.27,7.32.94,1.63,1.98,2.8,3.12,3.51,1.14.72,2.62,1.07,4.44,1.07v1.76h-27.6v-1.76c2.93,0,5.07-.39,6.44-1.17M257.06,645.15l-12.58-32.58-12.58,32.58h25.17Z"/><path class="cls-1" d="M334.51,672.56c0-.85-.34-1.43-1.02-1.76-.68-.33-1.77-.49-3.27-.49h-43.31v-1.76c2.8,0,4.91-.26,6.34-.78,1.43-.52,2.47-1.61,3.12-3.27.65-1.66.98-4.24.98-7.75v-41.16c0-3.51-.31-6.1-.93-7.75-.62-1.66-1.64-2.75-3.07-3.27-1.43-.52-3.58-.78-6.44-.78v-1.76h31.12v1.76c-3.45,0-5.97.26-7.56.78-1.6.52-2.7,1.59-3.32,3.22-.62,1.63-.93,4.23-.93,7.8v44.87c0,2.28.27,3.95.83,5.02.55,1.07,1.53,1.79,2.93,2.15,1.4.36,3.53.54,6.39.54h3.32c4.62,0,8.19-.63,10.73-1.9,2.54-1.27,4.54-3.22,6-5.85,1.46-2.63,3.04-6.62,4.73-11.95l1.76.49-6.93,25.56-1.66-.49c.13-.39.2-.88.2-1.46"/><path class="cls-1" d="M355.24,665.97c1.53-1.72,2.29-4.76,2.29-9.12v-44.77c0-3.32-.76-5.53-2.29-6.63-1.53-1.1-3.95-1.66-7.27-1.66v-1.76h17.36l26.82,51.99,25.46-51.99h18.43v1.76c-2.67,0-4.67.28-6,.83-1.33.55-2.31,1.67-2.93,3.36-.62,1.69-.93,4.36-.93,8v40.87c0,3.58.29,6.18.88,7.8.58,1.63,1.53,2.68,2.83,3.17,1.3.49,3.35.73,6.14.73v1.76h-28.68v-1.76c2.8,0,4.84-.24,6.14-.73,1.3-.49,2.26-1.56,2.88-3.22.62-1.66.93-4.31.93-7.95v-48.09l-28.29,58.04h-1.07l-27.9-55.79-.1,45.94c0,4.42.76,7.5,2.29,9.22,1.53,1.72,3.92,2.58,7.17,2.58v1.76h-21.36v-1.76c3.25,0,5.64-.86,7.17-2.58"/><path class="cls-1" d="M461.85,690.41c-1.66-.98-2.49-2.28-2.49-3.9,0-1.04.36-1.94,1.07-2.68.72-.75,1.66-1.12,2.83-1.12.85,0,1.58.23,2.2.68.62.45,1.38,1.17,2.29,2.15,1.04,1.17,2,2.06,2.88,2.68.88.62,1.97.93,3.27.93,2.28,0,3.98-1.24,5.12-3.71,1.14-2.47,1.71-6.73,1.71-12.78v-57.06c0-3.58-.33-6.18-.98-7.8-.65-1.62-1.77-2.7-3.37-3.22-1.59-.52-4.11-.78-7.56-.78v-1.76h31.12v1.76c-2.86,0-4.99.26-6.39.78-1.4.52-2.41,1.61-3.02,3.27-.62,1.66-.93,4.24-.93,7.75v53.55c0,7.35-1.79,12.97-5.37,16.87-3.58,3.9-8.55,5.85-14.92,5.85-3.32,0-5.8-.49-7.46-1.46"/><path class="cls-1" d="M521.54,665.44c-4.26-4.42-6.39-11.22-6.39-20.39v-29.46c0-3.51-.31-6.1-.93-7.75-.62-1.66-1.64-2.75-3.07-3.27-1.43-.52-3.58-.78-6.44-.78v-1.76h29.75v1.76c-2.8,0-4.89.26-6.29.78-1.4.52-2.44,1.63-3.12,3.32-.68,1.69-1.03,4.26-1.03,7.71v28.39c0,7.87,1.66,13.84,4.97,17.9,3.32,4.07,8.03,6.1,14.14,6.1,7.15,0,12.49-2.18,16-6.54,3.51-4.35,5.27-11.12,5.27-20.29v-25.46c0-4.42-.91-7.51-2.73-9.27-1.82-1.76-4.84-2.63-9.07-2.63v-1.76h23.8v1.76c-3.25,0-5.67.91-7.27,2.73-1.59,1.82-2.39,4.85-2.39,9.07v25.56c0,10.28-2.1,18-6.29,23.17-4.19,5.17-10.68,7.75-19.46,7.75s-15.2-2.21-19.46-6.63"/><path class="cls-1" d="M588.56,665.97c1.53-1.72,2.29-4.76,2.29-9.12v-44.77c0-3.32-.77-5.53-2.29-6.63-1.53-1.1-3.95-1.66-7.27-1.66v-1.76h17.36l26.82,51.99,25.46-51.99h18.43v1.76c-2.67,0-4.67.28-6,.83-1.33.55-2.31,1.67-2.93,3.36-.62,1.69-.93,4.36-.93,8v40.87c0,3.58.29,6.18.88,7.8.58,1.63,1.53,2.68,2.83,3.17,1.3.49,3.35.73,6.14.73v1.76h-28.68v-1.76c2.79,0,4.84-.24,6.14-.73,1.3-.49,2.26-1.56,2.88-3.22.62-1.66.93-4.31.93-7.95v-48.09l-28.29,58.04h-1.07l-27.9-55.79-.1,45.94c0,4.42.76,7.5,2.29,9.22,1.53,1.72,3.92,2.58,7.17,2.58v1.76h-21.36v-1.76c3.25,0,5.64-.86,7.17-2.58"/><path class="cls-1" d="M726.72,672.56c0-.91-.33-1.51-.98-1.81-.65-.29-1.72-.44-3.22-.44h-43.6v-1.76c2.86,0,5.01-.26,6.44-.78,1.43-.52,2.45-1.61,3.07-3.27.62-1.66.93-4.24.93-7.75v-41.16c0-3.51-.31-6.1-.93-7.75-.62-1.66-1.64-2.75-3.07-3.27-1.43-.52-3.58-.78-6.44-.78v-1.76h41.55c1.43,0,2.47-.16,3.12-.49.65-.32.98-.91.98-1.76,0-.58-.07-1.07-.2-1.46l1.76-.49,5.56,20.68-1.85.59c-1.56-4.03-3.04-7.06-4.44-9.07-1.4-2.01-3.24-3.49-5.51-4.44-2.28-.94-5.4-1.41-9.36-1.41h-2.63c-2.93,0-5.04.18-6.34.54-1.3.36-2.18,1.06-2.63,2.1-.46,1.04-.68,2.77-.68,5.17v21.66h6.53c3.12,0,5.45-.37,6.97-1.12,1.53-.75,2.54-1.85,3.03-3.32.49-1.46.73-3.59.73-6.39h1.85v23.7h-1.85c0-2.86-.26-5.02-.78-6.49-.52-1.46-1.53-2.54-3.02-3.22-1.5-.68-3.77-1.02-6.83-1.02h-6.63v24.58c0,2.34.23,4.05.68,5.12.45,1.07,1.32,1.79,2.58,2.15,1.27.36,3.3.54,6.1.54h5.36c4.03,0,7.22-.5,9.56-1.51,2.34-1.01,4.24-2.67,5.71-4.97,1.46-2.31,2.91-5.71,4.34-10.19l1.85.59-6.14,22.43-1.76-.49c.13-.39.2-.88.2-1.46"/><path class="cls-1" d="M746.82,667.78c1.43-.52,2.45-1.61,3.07-3.27.62-1.66.93-4.24.93-7.75v-41.16c0-3.51-.31-6.1-.93-7.75-.62-1.66-1.64-2.75-3.07-3.27-1.43-.52-3.58-.78-6.44-.78v-1.76h29.65v1.76c-2.73,0-4.81.26-6.24.78-1.43.52-2.47,1.61-3.12,3.27-.65,1.66-.98,4.24-.98,7.75v41.07c0,3.51.31,6.11.93,7.8.62,1.69,1.62,2.8,3.02,3.32,1.4.52,3.53.78,6.39.78v1.76h-29.65v-1.76c2.86,0,5.01-.26,6.44-.78"/><path class="cls-1" d="M786.03,667.78c1.43-.52,2.45-1.62,3.07-3.32.62-1.69.93-4.29.93-7.8v-41.26c0-3.45-.31-5.98-.93-7.61-.62-1.62-1.64-2.7-3.07-3.22-1.43-.52-3.58-.78-6.44-.78v-1.76h30.34c7.93,0,14,1.51,18.19,4.54,4.19,3.02,6.29,7.14,6.29,12.34,0,4.29-1.64,7.92-4.93,10.88-3.28,2.96-7.69,4.93-13.22,5.9l11.7,15.61c3.58,4.75,6.44,8.31,8.58,10.68,2.15,2.38,4.13,4.07,5.95,5.07,1.82,1.01,3.8,1.51,5.95,1.51v1.76h-16.87l-25.17-33.94h-7.51v19.8c0,3.71.31,6.42.93,8.14.62,1.72,1.62,2.86,3.02,3.41,1.4.55,3.53.83,6.39.83v1.76h-29.65v-1.76c2.86,0,5.01-.26,6.44-.78M807.78,634.32c5.01,0,9.12-1.3,12.34-3.9,3.22-2.6,4.83-6.37,4.83-11.31,0-4.55-1.32-8.18-3.95-10.88-2.63-2.7-6.45-4.05-11.46-4.05h-1.27c-2.67,0-4.65.2-5.95.59-1.3.39-2.2,1.09-2.68,2.1-.49,1.01-.73,2.58-.73,4.73v22.63l8.88.1Z"/><path class="cls-1" d="M899.18,667.39c1.36-.78,2.05-2.08,2.05-3.9,0-1.56-.55-3.74-1.66-6.53l-3.71-9.66h-26.73l-3.32,8.58c-.91,2.41-1.37,4.39-1.37,5.95,0,4.49,3.38,6.73,10.15,6.73v1.76h-23.12v-1.76c2.86,0,5.15-1.04,6.88-3.12,1.72-2.08,3.56-5.59,5.51-10.53l17.46-45.26-2.14-5.56.1-.68c3.12-1.49,5.49-3.22,7.12-5.17h.68l22.43,58.43c1.24,3.25,2.32,5.69,3.27,7.32.94,1.63,1.98,2.8,3.12,3.51,1.14.72,2.62,1.07,4.44,1.07v1.76h-27.6v-1.76c2.93,0,5.07-.39,6.44-1.17M895.08,645.15l-12.58-32.58-12.58,32.58h25.17Z"/><path class="cls-1" d="M976.97,667.78c1.4-.52,2.41-1.61,3.02-3.27.62-1.66.93-4.24.93-7.75v-20.97h-36.68v20.78c0,3.58.31,6.21.93,7.9.62,1.69,1.62,2.8,3.02,3.32,1.4.52,3.53.78,6.39.78v1.76h-29.65v-1.76c2.86,0,5.01-.26,6.44-.78,1.43-.52,2.46-1.61,3.07-3.27.62-1.66.93-4.24.93-7.75v-41.16c0-3.51-.31-6.1-.93-7.75-.62-1.66-1.64-2.75-3.07-3.27-1.43-.52-3.58-.78-6.44-.78v-1.76h29.65v1.76c-2.73,0-4.81.26-6.24.78-1.43.52-2.47,1.63-3.12,3.32-.65,1.69-.97,4.26-.97,7.71v18.05h36.68v-18.05c0-3.51-.31-6.1-.93-7.75-.62-1.66-1.63-2.75-3.02-3.27-1.4-.52-3.53-.78-6.39-.78v-1.76h29.65v1.76c-2.8,0-4.9.26-6.29.78-1.4.52-2.42,1.61-3.07,3.27-.65,1.66-.98,4.24-.98,7.75v40.97c0,3.58.31,6.21.93,7.9.62,1.69,1.62,2.8,3.02,3.32,1.4.52,3.53.78,6.39.78v1.76h-29.65v-1.76c2.86,0,4.99-.26,6.39-.78"/></svg>