<svg width="1052" height="305" viewBox="0 0 1052 305" fill="none" xmlns="http://www.w3.org/2000/svg">
<path d="M181.594 254.117L113.898 152.333C172.617 152.333 197.634 116.776 197.634 74.9403C197.634 50.8829 187.049 0 121.285 0H0V6.61347H84.385C132.827 6.61347 154.646 37.9903 154.646 76.3336C154.646 111.89 139.889 135.242 108.444 142.914C101.382 145.013 93.3621 145.701 84.385 145.701H62.2414V103.865H91.7547V97.2329H61.9165V38.6777H57.1116C56.1541 42.1702 40.7476 89.5605 0 97.2329V103.865H18.9289V257.591C18.9289 279.902 23.426 305 58.3941 305C82.7776 305 94.0118 282.354 98.4919 270.149C95.927 268.05 95.2772 268.05 95.2772 268.05C91.7376 275.369 85.9752 284.788 76.3483 284.788C69.2863 284.788 61.8994 278.862 61.8994 262.83V250.309L62.2243 151.274L62.8741 152.314L146.284 281.277C154.629 295.916 169.71 304.981 185.75 304.981H222C204.354 290.343 195.052 274.663 181.577 254.099L181.594 254.117Z" fill="#231F20"/>
<path d="M272.686 146.427C256.159 146.427 254.029 134.518 254.029 123.946V51.0229H245.084V47.883C264.338 44.2415 271.613 21.7607 272.073 20.1071H274.339V47.883H288.447V51.0229H274.339V126.417C274.339 134.016 277.832 136.84 281.155 136.84C285.704 136.84 288.43 132.381 290.1 128.907C290.1 128.907 290.407 128.907 291.616 129.891C289.487 135.669 284.188 146.427 272.669 146.427H272.686Z" fill="#231F20"/>
<path d="M398.244 143.287V146.427H360.027V143.287C365.036 143.287 368.972 138.828 368.972 133.533V77.6468C368.972 64.9201 363.213 55.8163 350.621 55.8163C341.369 55.8163 332.271 66.5551 328.488 72.6862V133.533C328.488 136.171 329.544 138.661 331.061 140.314C332.731 142.135 334.997 143.287 337.433 143.287V146.427H299.216V143.287C304.072 143.287 308.161 138.828 308.161 133.533V17.952C308.161 12.4897 304.072 8.19793 299.216 8.19793V5.05804L328.488 0.0973816V66.7408C335.167 58.8075 344.402 47.7344 361.236 47.7344C384.443 47.7344 389.282 64.9201 389.282 83.2763V133.552C389.282 136.19 390.338 138.679 392.008 140.333C393.525 142.154 395.808 143.306 398.227 143.306L398.244 143.287Z" fill="#231F20"/>
<path d="M489.963 98.6598H426.58C429.152 123.797 444.317 134.536 457.811 134.536C465.854 134.536 476.912 131.229 482.977 121.977L484.341 123.463C477.815 137.193 465.683 146.446 449.309 146.446C422.627 146.446 406.389 125.284 405.792 98.6598V95.52C406.406 69.0633 421.263 47.7344 447.793 47.7344C474.322 47.7344 489.333 69.0633 489.946 95.52V98.6598H489.963ZM426.273 95.5014H469.483C469.176 70.6982 459.617 51.0229 447.793 51.0229C435.968 51.0229 426.102 68.5431 426.102 91.2096C426.102 92.696 426.256 94.0151 426.256 95.5014H426.273Z" fill="#231F20"/>
<path d="M330.925 280.717C337.297 290.471 341.693 297.903 350.025 304.851H332.884C325.302 304.851 318.18 300.56 314.227 293.611L274.799 232.43L274.493 231.928V291.958C274.493 297.253 278.429 301.712 283.438 301.712V304.851H245.067V301.712C250.076 301.712 254.012 297.253 254.012 291.958V173.069C254.012 167.774 250.076 163.315 245.067 163.315V160.175H302.385C333.463 160.175 338.473 184.31 338.473 195.717C338.473 215.56 326.648 232.43 298.892 232.43L330.891 280.717H330.925ZM284.971 229.29C289.214 229.29 293.014 228.956 296.336 227.971C311.194 224.329 318.18 213.256 318.18 196.386C318.18 178.197 307.871 163.315 284.971 163.315H274.51V229.29H284.971Z" fill="#231F20"/>
<path d="M441.744 257.066H378.36C380.933 282.203 396.097 292.942 409.592 292.942C417.634 292.942 428.692 289.635 434.758 280.383L436.121 281.869C429.595 295.599 417.464 304.851 401.09 304.851C374.407 304.851 358.169 283.69 357.573 257.066V253.926C358.169 227.469 373.044 206.14 399.573 206.14C426.102 206.14 441.113 227.469 441.727 253.926V257.066H441.744ZM378.053 253.926H421.263C420.957 229.123 411.398 209.447 399.573 209.447C387.748 209.447 377.883 226.968 377.883 249.634C377.883 251.12 378.036 252.44 378.036 253.926H378.053Z" fill="#231F20"/>
<path d="M507.24 254.26C507.24 254.26 524.381 263.513 524.381 278.079V278.413C524.075 298.423 504.668 304.87 489.35 304.87H486.624C469.636 303.885 455.392 294.614 449.326 289.486L464.491 262.212C464.491 263.531 464.337 264.851 464.337 266.17C464.337 289.821 476.009 301.229 487.697 301.712H488.447C494.513 301.712 503.458 299.891 504.071 287.814V286.83C504.071 279.231 499.215 274.437 494.07 271.279L467.83 255.728C467.83 255.728 453.415 247.962 453.415 233.08C453.415 214.724 469.04 206.122 486.47 206.122H487.527C502.845 206.456 515.129 214.557 522.865 223.809L505.877 243.819C506.337 241.329 506.474 238.691 506.474 236.22C506.474 222.657 500.561 209.596 486.164 209.262H485.704C479.638 209.262 470.233 212.569 470.233 222.657C470.233 231.91 481.751 238.357 487.51 241.664L507.223 254.223L507.24 254.26Z" fill="#231F20"/>
<path d="M570.454 301.712V304.851H532.236V301.712C537.092 301.712 541.181 297.253 541.181 291.957V222.509C541.181 217.046 537.092 212.755 532.236 212.755V209.615L561.509 204.654V291.957C561.509 294.596 562.565 297.085 564.081 298.739C565.751 300.56 568.017 301.712 570.454 301.712ZM537.552 174.24C537.552 166.474 543.311 160.343 550.45 160.343C557.59 160.343 563.195 166.455 563.195 174.24C563.195 182.024 557.436 188.137 550.45 188.137C543.465 188.137 537.552 181.857 537.552 174.24Z" fill="#231F20"/>
<path d="M664.763 291.958C664.763 297.253 668.699 301.712 673.555 301.712V304.851H644.282V288.818C638.217 298.739 628.368 304.851 616.68 304.851C593.78 304.851 578.019 284.359 578.019 257.066C578.019 227.135 592.877 206.14 620.019 206.14H620.326C628.675 206.14 637.007 208.946 644.282 213.739V176.377C644.282 170.914 640.346 166.622 635.337 166.622V163.483L664.746 158.522V291.958H664.763ZM644.299 282.203V227.971C642.63 218.217 633.991 209.28 624.432 209.28C608.211 209.28 598.346 228.788 598.346 254.26C598.346 282.705 609.575 296.416 623.972 296.416C631.401 296.416 640.346 290.954 644.299 282.203Z" fill="#231F20"/>
<path d="M765.291 257.066H701.907C704.48 282.203 719.644 292.942 733.139 292.942C741.181 292.942 752.239 289.635 758.305 280.383L759.668 281.869C753.142 295.599 741.011 304.851 724.637 304.851C697.954 304.851 681.716 283.69 681.12 257.066V253.926C681.733 227.469 696.591 206.14 723.12 206.14C749.649 206.14 764.66 227.469 765.274 253.926V257.066H765.291ZM701.6 253.926H744.81C744.504 229.123 734.945 209.447 723.12 209.447C711.295 209.447 701.43 226.968 701.43 249.634C701.43 251.12 701.583 252.44 701.583 253.926H701.6Z" fill="#231F20"/>
<path d="M871.885 301.544V304.851H833.667V301.544C838.676 301.544 842.612 297.253 842.612 291.79V235.904C842.612 223.177 837.756 214.241 825.471 214.241C817.582 214.241 807.734 222.676 802.111 230.944V291.958C802.111 294.596 803.168 296.918 804.837 298.739C806.354 300.56 808.62 301.544 811.057 301.544V304.851H772.839V301.544C777.848 301.544 781.784 297.253 781.784 291.958V223.995C781.784 218.7 777.848 214.241 772.839 214.241V211.101L802.111 206.14V225.147C808.79 217.046 818.485 206.14 834.86 206.14C858.066 206.14 862.905 223.177 862.905 241.682V291.79C862.905 294.596 863.962 296.918 865.631 298.739C867.148 300.56 869.414 301.544 871.85 301.544H871.885Z" fill="#231F20"/>
<path d="M944.043 251.288C944.043 251.121 944.197 249.133 944.197 246.16C944.197 235.087 942.22 209.447 923.733 209.447C909.625 209.447 899.777 226.968 899.777 249.634C899.777 280.067 915.691 292.961 931.469 292.961C941.334 292.961 952.545 288 958.765 279.231L960.128 280.717C954.215 294.614 942.544 304.851 923.426 304.851C896.897 304.851 880.063 283.69 879.45 257.066V253.926C880.063 227.469 894.614 206.14 923.273 206.14C951.932 206.14 960.128 230.108 960.128 231.111L944.06 251.288H944.043Z" fill="#231F20"/>
<path d="M1052 257.066H988.616C991.189 282.203 1006.35 292.942 1019.85 292.942C1027.89 292.942 1038.95 289.635 1045.01 280.383L1046.38 281.869C1039.85 295.599 1027.72 304.851 1011.35 304.851C984.663 304.851 968.425 283.69 967.829 257.066V253.926C968.443 227.469 983.3 206.14 1009.83 206.14C1036.36 206.14 1051.37 227.469 1051.98 253.926V257.066H1052ZM988.31 253.926H1031.52C1031.21 229.123 1021.65 209.447 1009.83 209.447C998.005 209.447 988.139 226.968 988.139 249.634C988.139 251.12 988.293 252.44 988.293 253.926H988.31Z" fill="#231F20"/>
</svg>
