<svg version="1.2" xmlns="http://www.w3.org/2000/svg" viewBox="0 0 570 178" width="570" height="178"><defs><clipPath clipPathUnits="userSpaceOnUse" id="cp1"><path d="m-435-629h1440v1440h-1440z"/></clipPath></defs><style>.a{fill:#000}</style><g clip-path="url(#cp1)"><path class="a" d="m69.3 113.8l-34.8-87.4c-1.8-4.8-2.3-8.4-1.6-11.1 0.6-2.7 2.1-5 4.1-6.6h-32.4c2.3 1.6 4.6 4.1 6.4 7.3 1.7 3.1 3.6 6.7 4.8 10.4l42.7 106.4h10l40.4-106.4c1.3-3.4 2.8-6.6 4.3-10 1.8-3.4 4.2-5.9 6.7-7.7h-20.5c2.1 1.6 3.6 3.9 4.4 6.8 0.8 3 0.5 6.6-1.1 10.9z"/><path class="a" d="m269.3 25.6v98.6c0 8-2.2 13.6-6.6 16.6h8.6c10.1 0 19.9 1.4 28.9 4 9.3 2.6 18.2 5.5 26.3 9.1 5.9 2.5 11.3 4.9 16.9 7.3 5.4 2.3 11 4.6 16.7 6.5 5.6 2 11.5 3.5 17.6 4.8 6.2 1.3 12.8 1.7 19.7 1.7 4.1 0 8.5-0.4 12.7-1.3 4.4-0.9 8.4-2.4 12.3-4.1 3.9-1.7 7.6-3.8 10.8-6.5 3-2.5 5.4-5.6 6.8-9.1-7.3 2.6-14.4 4.3-21.1 5.6-6.6 1.3-13 1.8-19.3 1.8-11.1 0-21.9-1.2-32.9-3.9-11.1-2.7-22.8-6.2-35.3-9.8-6.1-1.8-13.3-3.7-20.9-5.4-7.8-1.7-15.9-2.8-24-3.3v-112.6c0-8.2 2.2-13.7 6.6-16.5h-30.4c4.4 2.8 6.6 8.3 6.6 16.5z"/><path class="a" d="m182.2 8.7c-8.6 0-16.7 1.6-24.2 5-7.4 3.2-14 7.7-19.6 13.1-5.7 5.6-10.2 12.2-13.4 19.7-3.1 7.6-4.9 15.6-4.9 24.1 0 8.8 1.8 16.7 4.9 24.2 3.2 7.5 7.7 14 13.4 19.6 5.6 5.7 12.2 10.2 19.6 13.4 7.5 3.4 15.6 5 24.2 5 8.5 0 16.5-1.6 23.9-5 7.5-3.2 14-7.7 19.7-13.4 5.6-5.6 10.1-12.1 13.3-19.6 3.4-7.5 5-15.3 5-24.2 0-8.5-1.6-16.5-5-24.1-3.1-7.5-7.7-14.1-13.3-19.7-5.7-5.4-12.2-9.9-19.7-13.1-7.4-3.4-15.4-5-23.9-5zm39.3 39.3c3.8 6.8 6.5 13.6 7.9 20.8 1.3 7.3 1.6 14 0.7 20.4-0.9 6.5-3.2 12.4-6.6 17.6-3.4 5.4-7.7 9.7-13.1 12.6-5.9 3.6-12.2 5.2-19.2 5.2-9 0-18-2.7-26.6-8.3-8.8-5.5-16.1-13.1-21.7-22.8-4.1-6.8-6.8-13.8-8.2-20.8-1.3-7.3-1.3-14-0.4-20.4 1.1-6.5 3.4-12.4 6.5-17.8 3.4-5.2 8-9.5 13.2-12.4 6-3.6 12.6-5.2 19.2-5.2 9 0 17.8 2.7 26.6 8.1q13.2 8.5 21.7 23z"/><path class="a" d="m333.4 26.4v88.7c0 4.3-0.6 7.9-1.8 10.9q-1.9 4.4-5.4 6.8h20.2c-2.1-1.6-3.8-3.9-5.1-6.8-1.3-3-2.1-6.6-2.1-10.9v-89.6l83.1 107.3h5.9v-106.4c0-4.6 0.8-8.2 2.1-11.1 1.2-2.7 2.8-5 4.8-6.6h-20.2c2.3 1.6 3.9 3.9 5.1 6.6 1.3 2.9 2.1 6.5 2.1 11.1v78.8l-74.4-96.5h-21.5c2.3 1.6 4.1 3.9 5.4 6.6 1.2 2.9 1.8 6.5 1.8 11.1z"/><path class="a" d="m501.3 27.7l34.8 87.4c1.8 4.8 2.3 8.4 1.5 11.1-0.5 2.7-2 5-4.1 6.6h32.5c-2.3-1.6-4.6-4.1-6.4-7.3-1.8-3.1-3.6-6.8-4.8-10.4l-42.8-106.4h-9.9l-40.5 106.4c-1.2 3.4-2.8 6.6-4.3 10-1.8 3.4-4.1 5.9-6.7 7.7h20.5c-2-1.6-3.6-3.9-4.3-6.8-0.8-3-0.5-6.6 1-10.9z"/></g></svg>
